<svg width="53" height="53" viewBox="0 0 53 53" fill="none" xmlns="http://www.w3.org/2000/svg">
<path opacity="0.9" d="M37.1 0H15.9C7.13115 0 0 7.13115 0 15.9V50.35C0 51.0528 0.279196 51.7269 0.776167 52.2238C1.27314 52.7208 1.94718 53 2.65 53H37.1C45.8689 53 53 45.8689 53 37.1V15.9C53 7.13115 45.8689 0 37.1 0ZM47.7 37.1C47.7 42.9459 42.9459 47.7 37.1 47.7H5.3V15.9C5.3 10.0541 10.0541 5.3 15.9 5.3H37.1C42.9459 5.3 47.7 10.0541 47.7 15.9V37.1Z" fill="#53B2E8"/>
<path opacity="0.9" d="M13.25 18.55H39.75V23.85H13.25V18.55ZM13.25 29.15H31.8V34.45H13.25V29.15Z" fill="#53B2E8"/>
</svg>
