<svg width="124" height="124" viewBox="0 0 124 124" fill="none" xmlns="http://www.w3.org/2000/svg">
<path d="M122.184 68.9968C123.187 68.9968 124 68.1835 124 67.1804V62.7338C124 56.336 118.795 51.1306 112.397 51.1306H111.051C113.893 48.5581 115.682 44.842 115.682 40.7156C115.682 32.969 109.38 26.6668 101.633 26.6668C93.8867 26.6668 87.5844 32.969 87.5844 40.7156C87.5844 44.842 89.3732 48.5581 92.2156 51.1306H90.869C86.5193 51.1306 82.5973 53.5481 80.6109 57.3025C80.3665 57.2262 80.1202 57.1541 79.8713 57.0875L70.1777 54.4912V49.3304C74.7676 46.5908 77.8749 41.6206 77.9977 35.9266H80.1045C83.2645 35.9266 85.8354 33.3558 85.8354 30.1957C85.8354 27.4926 83.9536 25.2221 81.4314 24.6217V19.6758C81.4309 8.82652 72.6047 0 61.7554 0C50.9061 0 42.0796 8.82652 42.0796 19.6758V24.7617C39.8074 25.5232 38.1651 27.6706 38.1651 30.1957C38.1651 33.3555 40.7359 35.9266 43.896 35.9266H46.0028C46.1256 41.6204 49.2326 46.5908 53.8228 49.3304V54.4912L44.1287 57.0875C43.88 57.1543 43.6337 57.2262 43.3896 57.3025C41.4032 53.5484 37.4812 51.1306 33.1315 51.1306H31.7849C34.6272 48.5581 36.416 44.842 36.416 40.7156C36.416 32.969 30.1138 26.6668 22.3672 26.6668C14.6206 26.6668 8.31841 32.969 8.31841 40.7156C8.31841 44.842 10.1072 48.5581 12.9495 51.1306H11.6032C5.20509 51.1306 0 56.3357 0 62.7338V67.1804C0 68.1835 0.813023 68.9968 1.81641 68.9968C2.81979 68.9968 3.63281 68.1835 3.63281 67.1804V62.7338C3.63281 58.3391 7.20847 54.7634 11.6032 54.7634H33.1313C36.0111 54.7634 38.6132 56.3091 40.0203 58.7288C34.0147 61.9847 30.0918 68.3317 30.0918 75.3833V85.1386H3.63281V75.657C3.63281 74.6538 2.81979 73.8406 1.81641 73.8406C0.813023 73.8406 0 74.6538 0 75.657V86.955C0 87.9581 0.813023 88.7714 1.81641 88.7714H42.6863C41.2019 91.0877 40.1155 93.6946 39.5444 96.5088C39.3451 97.4921 39.9803 98.4507 40.9634 98.6502C41.9459 98.8493 42.9055 98.2145 43.1048 97.2315C44.9188 88.2921 52.8654 81.8037 62.0002 81.8037C72.6315 81.8037 81.2808 90.4539 81.2808 101.087C81.2808 111.718 72.6315 120.367 62.0002 120.367C52.8652 120.367 44.9185 113.88 43.1048 104.942C42.9055 103.959 41.9459 103.324 40.9634 103.523C39.9801 103.723 39.3448 104.681 39.5444 105.664C41.7003 116.289 51.1442 124 62 124C74.6344 124 84.9134 113.721 84.9134 101.087C84.9134 96.557 83.5922 92.3304 81.3154 88.7714H122.184C123.187 88.7714 124 87.9581 124 86.955V75.657C124 74.6538 123.187 73.8406 122.184 73.8406C121.18 73.8406 120.367 74.6538 120.367 75.657V85.1386H93.9082V75.3833C93.9082 68.332 89.9855 61.985 83.9797 58.7288C85.3868 56.3091 87.9889 54.7634 90.8688 54.7634H112.397C116.792 54.7634 120.367 58.3389 120.367 62.7338V67.1804C120.367 68.1835 121.18 68.9968 122.184 68.9968ZM11.951 40.7156C11.951 34.9724 16.6235 30.2996 22.367 30.2996C28.1105 30.2996 32.783 34.9721 32.783 40.7156C32.783 46.4465 28.1306 51.1105 22.4043 51.1306H22.3297C16.6034 51.1103 11.951 46.4465 11.951 40.7156ZM58.1449 63.093L56.3866 64.5582C55.5685 65.24 54.5164 65.4492 53.499 65.1312C52.4825 64.8135 51.7363 64.0424 51.452 63.0157L50.3874 59.172L54.1488 58.1645C54.7676 60.2916 56.2277 62.0635 58.1449 63.093ZM69.8512 58.1647L73.6126 59.172L72.548 63.0157C72.2639 64.0424 71.5177 64.8133 70.5013 65.131C69.4838 65.4488 68.4318 65.2397 67.6137 64.558L65.8554 63.0927C67.7723 62.0634 69.2324 60.2916 69.8512 58.1647ZM82.2021 30.1957C82.2021 31.3524 81.2607 32.2938 80.104 32.2938H78.0062V28.0979H79.6148H80.1042C81.2607 28.0976 82.2021 29.0388 82.2021 30.1957ZM45.7124 19.6758C45.7124 10.8297 52.9093 3.63281 61.7554 3.63281C70.6013 3.63281 77.7981 10.8297 77.7981 19.6758V24.4648H71.7858C70.0893 24.4648 68.7093 23.0846 68.7093 21.3883C68.7093 20.3852 67.8963 19.5719 66.8929 19.5719C65.8895 19.5719 65.0765 20.3852 65.0765 21.3883C65.0765 23.0846 63.6965 24.4648 62 24.4648H45.7124V19.6758ZM41.7979 30.1957C41.7979 29.039 42.7393 28.0976 43.896 28.0976H45.9938V32.2935H43.896C42.7393 32.2935 41.7979 31.3524 41.7979 30.1957ZM49.6266 35.5778V28.0976H62C63.9276 28.0976 65.6682 27.2805 66.8929 25.9744C68.1179 27.2805 69.8583 28.0976 71.7858 28.0976H74.3734V35.5778C74.3734 42.4005 68.8227 47.9509 62 47.9509C55.1773 47.9509 49.6266 42.4005 49.6266 35.5778ZM62 51.584C63.5786 51.584 65.1029 51.3505 66.5447 50.9228V55.8838C66.5447 58.3897 64.5059 60.4282 62 60.4282C59.4941 60.4282 57.4554 58.3897 57.4554 55.8838V50.9228C58.8971 51.3505 60.4214 51.584 62 51.584ZM90.2754 75.3833V85.1386H78.437C74.2699 80.8441 68.4417 78.1709 62 78.1709C55.646 78.1709 49.778 80.816 45.5695 85.1386H33.7246V75.3833C33.7246 68.4683 38.3899 62.3877 45.0689 60.5965L46.8781 60.1119L47.9507 63.9852C48.5615 66.1908 50.2304 67.9157 52.4149 68.5984C53.0768 68.8052 53.7542 68.9065 54.4263 68.9065C55.9715 68.9065 57.4868 68.37 58.7123 67.3487L62 64.6091L65.2877 67.349C66.5136 68.3703 68.0283 68.9067 69.5737 68.9067C70.2455 68.9067 70.9229 68.8055 71.5851 68.5986C73.7696 67.9157 75.4383 66.1911 76.0491 63.9855L77.1219 60.1119L78.9308 60.5963C85.6101 62.3877 90.2754 68.4683 90.2754 75.3833ZM91.2173 40.7156C91.2173 34.9724 95.8898 30.2996 101.633 30.2996C107.377 30.2996 112.049 34.9721 112.049 40.7156C112.049 46.4465 107.397 51.1105 101.671 51.1306H101.596C95.8697 51.1103 91.2173 46.4465 91.2173 40.7156Z" fill="#F15C1F"/>
<path d="M59.5 111.677C61.1027 111.677 62.6093 111.042 63.7429 109.89L72.9535 100.525C75.293 98.1457 75.293 94.2748 72.9533 91.8957C70.6136 89.5169 66.8069 89.5174 64.4672 91.8957L59.5 96.947C57.1576 94.6014 53.3753 94.6123 51.0464 96.98C48.7071 99.3588 48.7071 103.229 51.0464 105.609L55.2573 109.89C56.3906 111.042 57.8975 111.677 59.5 111.677ZM53.5777 99.5541C54.05 99.0742 54.6697 98.8344 55.2898 98.8344C55.9098 98.8344 56.5295 99.0744 57.0013 99.5539L58.2344 100.808C58.57 101.149 59.0253 101.341 59.5002 101.341C59.9751 101.341 60.43 101.149 60.766 100.808L66.9988 94.4699C67.9426 93.5104 69.4786 93.5097 70.4224 94.4699C71.3663 95.4296 71.3663 96.9912 70.4224 97.9509L61.212 107.316C60.7548 107.781 60.1467 108.037 59.5002 108.037C58.8537 108.037 58.2456 107.781 57.7886 107.316L53.5779 103.035C52.6341 102.075 52.6341 100.514 53.5777 99.5541Z" fill="#F15C1F"/>
</svg>
