<svg width="124" height="124" viewBox="0 0 124 124" fill="none" xmlns="http://www.w3.org/2000/svg">
<g clip-path="url(#clip0)">
<path d="M115.734 24.8C111.174 24.8 107.467 28.5076 107.467 33.0666C107.467 37.6255 111.175 41.3332 115.734 41.3332C120.292 41.3332 124 37.6258 124 33.0666C124 28.5076 120.292 24.8 115.734 24.8ZM115.734 37.2C113.454 37.2 111.6 35.3463 111.6 33.0666C111.6 30.7871 113.454 28.9332 115.734 28.9332C118.013 28.9332 119.867 30.7869 119.867 33.0666C119.867 35.3463 118.013 37.2 115.734 37.2Z" fill="#F15C1F"/>
<path d="M8.26659 93C3.70765 93 0 96.7076 0 101.267C0 105.826 3.70765 109.533 8.26659 109.533C12.8258 109.533 16.5332 105.826 16.5332 101.267C16.5332 96.7076 12.8258 93 8.26659 93ZM8.26659 105.4C5.98712 105.4 4.13317 103.546 4.13317 101.267C4.13317 98.9869 5.98688 97.1332 8.26659 97.1332C10.5461 97.1332 12.4 98.9869 12.4 101.267C12.4 103.546 10.5463 105.4 8.26659 105.4Z" fill="#F15C1F"/>
<path d="M111.726 27.4122L93.8971 18.8046C92.8678 18.3064 91.6341 18.7404 91.1381 19.7678C90.6421 20.7949 91.0739 22.0308 92.1013 22.5268L109.93 31.1344C110.22 31.2749 110.526 31.341 110.827 31.341C111.596 31.341 112.334 30.9111 112.689 30.1712C113.185 29.1441 112.753 27.9082 111.726 27.4122Z" fill="#F15C1F"/>
<path d="M92.9999 107.467C88.4407 107.467 84.7333 111.174 84.7333 115.733C84.7333 120.292 88.4407 124 92.9999 124C97.5591 124 101.266 120.292 101.266 115.733C101.266 111.174 97.5591 107.467 92.9999 107.467ZM92.9999 119.867C90.7204 119.867 88.8665 118.013 88.8665 115.733C88.8665 113.453 90.7204 111.6 92.9999 111.6C95.2794 111.6 97.1333 113.454 97.1333 115.733C97.1333 118.013 95.2794 119.867 92.9999 119.867Z" fill="#F15C1F"/>
<path d="M88.9927 110.079L71.1636 101.471C70.1343 100.973 68.9006 101.405 68.4046 102.435C67.9086 103.462 68.3404 104.698 69.3678 105.194L87.1969 113.801C87.4863 113.942 87.7922 114.008 88.0937 114.008C88.8624 114.008 89.6004 113.578 89.9559 112.838C90.4517 111.811 90.0198 110.575 88.9927 110.079Z" fill="#F15C1F"/>
<path d="M62 55.8C57.4409 55.8 53.7335 59.5076 53.7335 64.0666C53.7335 68.6258 57.4411 72.3332 62 72.3332C66.5592 72.3332 70.2666 68.6255 70.2666 64.0666C70.2666 59.5076 66.5592 55.8 62 55.8ZM62 68.2C59.7206 68.2 57.8666 66.3463 57.8666 64.0666C57.8666 61.7871 59.7203 59.9332 62 59.9332C64.2795 59.9332 66.1335 61.7869 66.1335 64.0666C66.1335 66.3463 64.2795 68.2 62 68.2Z" fill="#F15C1F"/>
<path d="M58.3667 58.6438L44.671 47.9694C43.7698 47.2728 42.4721 47.4278 41.7693 48.329C41.0687 49.2302 41.2278 50.5278 42.129 51.2307L55.8247 61.9051C56.203 62.1986 56.6493 62.3413 57.0937 62.3413C57.7096 62.3413 58.3173 62.0685 58.7263 61.5457C59.427 60.6442 59.2679 59.3464 58.3667 58.6438Z" fill="#F15C1F"/>
<path d="M99.2 53.7334C86.6656 53.7334 76.4666 63.9324 76.4666 76.4668C76.4666 89.0013 86.6656 99.2003 99.2 99.2003C111.734 99.2003 121.933 89.0013 121.933 76.4668C121.933 63.9324 111.734 53.7334 99.2 53.7334ZM99.2 95.0666C88.9431 95.0666 80.6 86.7235 80.6 76.4666C80.6 66.2097 88.9431 57.8666 99.2 57.8666C109.457 57.8666 117.8 66.2097 117.8 76.4666C117.8 86.7235 109.457 95.0666 99.2 95.0666Z" fill="#F15C1F"/>
<path d="M99.2001 62C94.6409 62 90.9335 65.7076 90.9335 70.2666C90.9335 74.8258 94.6412 78.5332 99.2001 78.5332C103.759 78.5332 107.467 74.8255 107.467 70.2666C107.467 65.7076 103.759 62 99.2001 62ZM99.2001 74.4C96.9206 74.4 95.0667 72.5463 95.0667 70.2666C95.0667 67.9871 96.9204 66.1332 99.2001 66.1332C101.48 66.1332 103.334 67.9869 103.334 70.2666C103.334 72.5463 101.48 74.4 99.2001 74.4Z" fill="#F15C1F"/>
<path d="M105.195 82.6666H93.2047C89.6729 82.6666 86.8001 85.4629 86.8001 88.8976V94.3453C86.8001 95.083 87.1927 95.765 87.8313 96.1351C91.2951 98.1397 95.2258 99.2 99.2001 99.2C103.174 99.2 107.105 98.1397 110.569 96.1351C111.208 95.7672 111.6 95.083 111.6 94.3475V88.8997C111.6 85.4629 108.728 82.6666 105.195 82.6666ZM107.467 93.1136C102.323 95.6761 96.0773 95.6761 90.9333 93.1136V88.8997C90.9333 87.7423 91.9521 86.8 93.2045 86.8H105.195C106.448 86.8 107.466 87.7423 107.466 88.8997V93.1136H107.467Z" fill="#F15C1F"/>
<path d="M49.6 78.5334C37.0655 78.5334 26.8665 88.7324 26.8665 101.267C26.8665 113.801 37.0655 124 49.6 124C62.1344 124 72.3334 113.801 72.3334 101.267C72.3334 88.7322 62.1344 78.5334 49.6 78.5334ZM49.6 119.867C39.3431 119.867 31 111.523 31 101.267C31 91.0097 39.3431 82.6666 49.6 82.6666C59.8568 82.6666 68.2 91.0097 68.2 101.267C68.2 111.523 59.8568 119.867 49.6 119.867Z" fill="#F15C1F"/>
<path d="M49.6 86.8C45.0408 86.8 41.3334 90.5076 41.3334 95.0666C41.3334 99.6257 45.0411 103.333 49.6 103.333C54.1589 103.333 57.8666 99.6255 57.8666 95.0666C57.8666 90.5076 54.1592 86.8 49.6 86.8ZM49.6 99.2C47.3205 99.2 45.4666 97.3463 45.4666 95.0666C45.4666 92.7871 47.3203 90.9332 49.6 90.9332C51.8795 90.9332 53.7334 92.7869 53.7334 95.0666C53.7334 97.3463 51.8795 99.2 49.6 99.2Z" fill="#F15C1F"/>
<path d="M55.5953 107.467H43.6046C40.0728 107.467 37.2 110.263 37.2 113.698V119.145C37.2 119.883 37.5925 120.565 38.2312 120.935C41.6949 122.94 45.6257 124 49.5999 124C53.5742 124 57.5049 122.94 60.9687 120.935C61.6074 120.567 61.9999 119.883 61.9999 119.148V113.7C61.9999 110.263 59.1274 107.467 55.5953 107.467ZM57.8665 117.914C52.7225 120.476 46.4772 120.476 41.3331 117.914V113.7C41.3331 112.542 42.352 111.6 43.6044 111.6H55.5951C56.8474 111.6 57.8663 112.542 57.8663 113.7V117.914H57.8665Z" fill="#F15C1F"/>
<path d="M22.7334 26.8666C10.199 26.8666 0 37.0656 0 49.6C0 62.1344 10.199 72.3334 22.7334 72.3334C35.2678 72.3334 45.4668 62.1344 45.4668 49.6C45.4666 37.0656 35.2676 26.8666 22.7334 26.8666ZM22.7334 68.2C12.4765 68.2 4.13341 59.8569 4.13341 49.6C4.13341 39.3431 12.4765 31 22.7334 31C32.9903 31 41.3334 39.3431 41.3334 49.6C41.3334 59.8569 32.9903 68.2 22.7334 68.2Z" fill="#F15C1F"/>
<path d="M22.7335 35.1334C18.1743 35.1334 14.4669 38.8411 14.4669 43.4C14.4669 47.9589 18.1745 51.6666 22.7335 51.6666C27.2926 51.6666 31 47.9589 31 43.4C31 38.8411 27.2924 35.1334 22.7335 35.1334ZM22.7335 47.5334C20.454 47.5334 18.6 45.6797 18.6 43.4C18.6 41.1203 20.4537 39.2666 22.7335 39.2666C25.0129 39.2666 26.8669 41.1203 26.8669 43.4C26.8669 45.6797 25.0129 47.5334 22.7335 47.5334Z" fill="#F15C1F"/>
<path d="M28.7288 55.8H16.7381C13.2062 55.8 10.3334 58.5963 10.3334 62.031V67.4788C10.3334 68.2165 10.726 68.8985 11.3647 69.2685C14.8284 71.2731 18.7591 72.3334 22.7334 72.3334C26.7077 72.3334 30.6384 71.2731 34.1022 69.2685C34.7408 68.9006 35.1334 68.2165 35.1334 67.4809V62.0332C35.1334 58.5963 32.2606 55.8 28.7288 55.8ZM31 66.247C25.8562 68.8096 19.6107 68.8096 14.4666 66.247V62.0332C14.4666 60.8758 15.4855 59.9334 16.7378 59.9334H28.7285C29.9809 59.9334 30.9998 60.8758 30.9998 62.0332V66.247H31Z" fill="#F15C1F"/>
<path d="M72.3334 0C59.799 0 49.6 10.199 49.6 22.7334C49.6 35.2678 59.799 45.4668 72.3334 45.4668C84.8678 45.4668 95.0668 35.2678 95.0668 22.7334C95.0665 10.199 84.8675 0 72.3334 0ZM72.3334 41.3334C62.0765 41.3334 53.7334 32.9903 53.7334 22.7334C53.7334 12.4765 62.0765 4.13341 72.3334 4.13341C82.5902 4.13341 90.9334 12.4765 90.9334 22.7334C90.9334 32.9903 82.5902 41.3334 72.3334 41.3334Z" fill="#F15C1F"/>
<path d="M72.3335 8.2666C67.7743 8.2666 64.0669 11.9743 64.0669 16.5332C64.0669 21.0921 67.7745 24.7998 72.3335 24.7998C76.8924 24.7998 80.6 21.0924 80.6 16.5334C80.6 11.9745 76.8924 8.2666 72.3335 8.2666ZM72.3335 20.6666C70.054 20.6666 68.2 18.8129 68.2 16.5332C68.2 14.2537 70.0537 12.3998 72.3335 12.3998C74.6132 12.3998 76.4669 14.2535 76.4669 16.5332C76.4666 18.8129 74.6129 20.6666 72.3335 20.6666Z" fill="#F15C1F"/>
<path d="M78.3287 28.9334H66.338C62.8062 28.9334 59.9333 31.7297 59.9333 35.1644V40.6122C59.9333 41.3499 60.3259 42.0319 60.9646 42.4019C64.4284 44.4065 68.359 45.4668 72.3333 45.4668C76.3076 45.4668 80.2383 44.4065 83.7021 42.4019C84.3408 42.0341 84.7333 41.3499 84.7333 40.6144V35.1666C84.7333 31.7295 81.8605 28.9334 78.3287 28.9334ZM80.5999 39.3804C75.4561 41.943 69.2106 41.943 64.0665 39.3804V35.1666C64.0665 34.0092 65.0854 33.0668 66.3378 33.0668H78.3284C79.5808 33.0668 80.5997 34.0092 80.5997 35.1666V39.3804H80.5999Z" fill="#F15C1F"/>
<path d="M53.2394 21.3878C52.4975 20.5239 51.1934 20.4205 50.3254 21.1626L36.0033 33.418C35.1353 34.1598 35.0341 35.464 35.7759 36.332C36.1852 36.8094 36.7638 37.0554 37.3465 37.0554C37.8219 37.0554 38.2993 36.8922 38.6899 36.5572L53.0119 24.3018C53.8802 23.56 53.9814 22.2558 53.2394 21.3878Z" fill="#F15C1F"/>
<path d="M98.7866 54.5622L86.3866 38.0288C85.7024 37.1133 84.4067 36.9334 83.4932 37.6154C82.5797 38.2995 82.3959 39.5952 83.0798 40.5066L95.4798 57.04C95.8869 57.5815 96.5069 57.8666 97.1351 57.8666C97.565 57.8666 98.0012 57.7322 98.3732 57.4532C99.2867 56.7692 99.4708 55.4735 98.7866 54.5622Z" fill="#F15C1F"/>
<path d="M81.8255 83.3011C81.1413 82.3876 79.8456 82.2038 78.9321 82.8877L67.3877 91.5449C66.4742 92.2291 66.2904 93.5248 66.9743 94.4362C67.3814 94.9777 68.0014 95.2628 68.6297 95.2628C69.0615 95.2628 69.4955 95.1264 69.8677 94.8493L81.4121 86.1921C82.3256 85.5084 82.5097 84.2125 81.8255 83.3011Z" fill="#F15C1F"/>
<path d="M28.9334 99.2H14.4666C13.3259 99.2 12.4 100.124 12.4 101.267C12.4 102.409 13.3259 103.333 14.4666 103.333H28.9332C30.0739 103.333 30.9997 102.409 30.9997 101.267C30.9997 100.124 30.0741 99.2 28.9334 99.2Z" fill="#F15C1F"/>
<path d="M22.7335 0C18.1743 0 14.4666 3.70765 14.4666 8.26659C14.4666 12.8258 18.1743 16.5332 22.7332 16.5332C27.2924 16.5332 30.9998 12.8255 30.9998 8.26659C31 3.70765 27.2924 0 22.7335 0ZM22.7335 12.4C20.454 12.4 18.6 10.5463 18.6 8.26659C18.6 5.98712 20.4537 4.13317 22.7335 4.13317C25.0129 4.13317 26.8669 5.98688 26.8669 8.26659C26.8666 10.5463 25.0129 12.4 22.7335 12.4Z" fill="#F15C1F"/>
<path d="M22.7334 12.4C21.5927 12.4 20.6668 13.3237 20.6668 14.4666V28.9332C20.6668 30.0761 21.5927 30.9998 22.7334 30.9998C23.8741 30.9998 24.8 30.0761 24.8 28.9332V14.4666C24.8 13.3237 23.8741 12.4 22.7334 12.4Z" fill="#F15C1F"/>
</g>
<defs>
<clipPath id="clip0">
<rect width="124" height="124" fill="white"/>
</clipPath>
</defs>
</svg>
