<svg width="128" height="125" viewBox="0 0 128 125" fill="none" xmlns="http://www.w3.org/2000/svg">
<path d="M121.6 0H6.4C4.70322 0.00198369 3.0765 0.679488 1.8767 1.88389C0.676895 3.08829 0.00197612 4.72124 0 6.42452V117.783C0.00197612 119.486 0.676895 121.119 1.8767 122.324C3.0765 123.528 4.70322 124.205 6.4 124.207H121.6C123.297 124.205 124.924 123.528 126.123 122.324C127.323 121.119 127.998 119.486 128 117.783V6.42452C127.998 4.72124 127.323 3.08829 126.123 1.88389C124.924 0.679488 123.297 0.00198369 121.6 0ZM6.4 4.28301H121.6C122.166 4.28365 122.708 4.50948 123.108 4.91095C123.508 5.31242 123.733 5.85675 123.733 6.42452V17.1321H4.26667V6.42452C4.2673 5.85675 4.49227 5.31242 4.89221 4.91095C5.29215 4.50948 5.8344 4.28365 6.4 4.28301ZM121.6 119.924H6.4C5.8344 119.924 5.29215 119.698 4.89221 119.296C4.49227 118.895 4.2673 118.351 4.26667 117.783V21.4151H123.733V117.783C123.733 118.351 123.508 118.895 123.108 119.296C122.708 119.698 122.166 119.924 121.6 119.924Z" fill="#F15C1F"/>
<path d="M27.9704 13.2741C29.2795 13.2741 30.3407 12.2128 30.3407 10.9037C30.3407 9.59458 29.2795 8.53333 27.9704 8.53333C26.6613 8.53333 25.6 9.59458 25.6 10.9037C25.6 12.2128 26.6613 13.2741 27.9704 13.2741Z" fill="#F15C1F"/>
<path d="M19.4371 13.2741C20.7462 13.2741 21.8074 12.2128 21.8074 10.9037C21.8074 9.59458 20.7462 8.53333 19.4371 8.53333C18.1279 8.53333 17.0667 9.59458 17.0667 10.9037C17.0667 12.2128 18.1279 13.2741 19.4371 13.2741Z" fill="#F15C1F"/>
<path d="M10.9037 13.2741C12.2128 13.2741 13.2741 12.2128 13.2741 10.9037C13.2741 9.59458 12.2128 8.53333 10.9037 8.53333C9.59458 8.53333 8.53333 9.59458 8.53333 10.9037C8.53333 12.2128 9.59458 13.2741 10.9037 13.2741Z" fill="#F15C1F"/>
<path d="M53.3333 34.1333H74.6667C75.2325 34.1333 75.7751 33.9335 76.1752 33.5779C76.5753 33.2223 76.8 32.74 76.8 32.237C76.8 31.7341 76.5753 31.2518 76.1752 30.8961C75.7751 30.5405 75.2325 30.3407 74.6667 30.3407H53.3333C52.7676 30.3407 52.2249 30.5405 51.8248 30.8961C51.4248 31.2518 51.2 31.7341 51.2 32.237C51.2 32.74 51.4248 33.2223 51.8248 33.5779C52.2249 33.9335 52.7676 34.1333 53.3333 34.1333Z" fill="#F15C1F"/>
<path d="M89.8188 38.8741H38.1812C37.6106 38.8741 37.0633 39.0905 36.6598 39.4758C36.2563 39.861 36.0296 40.3836 36.0296 40.9284V49.1457C36.0296 49.6905 36.2563 50.2131 36.6598 50.5983C37.0633 50.9836 37.6106 51.2 38.1812 51.2H89.8188C90.3894 51.2 90.9367 50.9836 91.3402 50.5983C91.7437 50.2131 91.9704 49.6905 91.9704 49.1457V40.9284C91.9704 40.3836 91.7437 39.861 91.3402 39.4758C90.9367 39.0905 90.3894 38.8741 89.8188 38.8741ZM87.6672 47.0914H40.3328V42.9827H87.6672V47.0914Z" fill="#F15C1F"/>
<path d="M89.8188 55.9407H38.1812C37.6106 55.9407 37.0633 56.1572 36.6598 56.5424C36.2563 56.9277 36.0296 57.4502 36.0296 57.9951V66.2123C36.0296 66.7572 36.2563 67.2797 36.6598 67.665C37.0633 68.0502 37.6106 68.2667 38.1812 68.2667H89.8188C90.3894 68.2667 90.9367 68.0502 91.3402 67.665C91.7437 67.2797 91.9704 66.7572 91.9704 66.2123V57.9951C91.9704 57.4502 91.7437 56.9277 91.3402 56.5424C90.9367 56.1572 90.3894 55.9407 89.8188 55.9407ZM87.6672 64.158H40.3328V60.0494H87.6672V64.158Z" fill="#F15C1F"/>
<path d="M89.8188 73.0074H38.1812C37.6106 73.0074 37.0633 73.2272 36.6598 73.6184C36.2563 74.0096 36.0296 74.5401 36.0296 75.0933V91.7807C36.0296 92.334 36.2563 92.8645 36.6598 93.2557C37.0633 93.6469 37.6106 93.8667 38.1812 93.8667H89.8188C90.3894 93.8667 90.9367 93.6469 91.3402 93.2557C91.7437 92.8645 91.9704 92.334 91.9704 91.7807V75.0933C91.9704 74.5401 91.7437 74.0096 91.3402 73.6184C90.9367 73.2272 90.3894 73.0074 89.8188 73.0074ZM87.6672 89.6948H40.3328V77.1793H87.6672V89.6948Z" fill="#F15C1F"/>
<path d="M68.3615 98.6074H59.6385C57.9034 98.6074 56.2394 99.2567 55.0125 100.413C53.7855 101.568 53.0963 103.136 53.0963 104.77C53.0963 106.405 53.7855 107.972 55.0125 109.128C56.2394 110.284 57.9034 110.933 59.6385 110.933H68.3615C70.0966 110.933 71.7606 110.284 72.9875 109.128C74.2144 107.972 74.9037 106.405 74.9037 104.77C74.9037 103.136 74.2144 101.568 72.9875 100.413C71.7606 99.2567 70.0966 98.6074 68.3615 98.6074ZM68.3615 106.825H59.6385C59.0601 106.825 58.5055 106.608 58.0965 106.223C57.6875 105.838 57.4578 105.315 57.4578 104.77C57.4578 104.226 57.6875 103.703 58.0965 103.318C58.5055 102.932 59.0601 102.716 59.6385 102.716H68.3615C68.9398 102.716 69.4945 102.932 69.9035 103.318C70.3125 103.703 70.5422 104.226 70.5422 104.77C70.5422 105.315 70.3125 105.838 69.9035 106.223C69.4945 106.608 68.9398 106.825 68.3615 106.825Z" fill="#F15C1F"/>
</svg>
