<svg width="94" height="135" viewBox="0 0 94 135" fill="none" xmlns="http://www.w3.org/2000/svg">
<path d="M93.602 115.463C80.7164 96.8485 73.8256 74.7208 73.8572 52.0588V33.1633C73.8499 30.88 73.1518 28.6527 71.8552 26.776C70.5587 24.8993 68.7247 23.4615 66.5959 22.653L55.9242 18.6388C55.941 18.4144 55.9524 18.1887 55.9524 17.9601V6.73505C55.9524 6.36546 55.8614 6.00159 55.6876 5.67573C55.5137 5.34988 55.2623 5.07212 54.9557 4.86713L49.54 1.24556C48.4268 0.50102 47.133 0.0735249 45.7966 0.00866508C44.4602 -0.0561948 43.1313 0.244013 41.9516 0.877273C40.772 1.51053 39.7858 2.45309 39.0982 3.60444C38.4107 4.75578 38.0476 6.07273 38.0476 7.41483V17.9601C38.0476 18.1887 38.059 18.4144 38.0758 18.6388L27.4041 22.653C25.2753 23.4615 23.4413 24.8993 22.1448 26.776C20.8482 28.6527 20.1501 30.88 20.1428 33.1633V52.0588C20.1744 74.7208 13.2836 96.8485 0.397978 115.463C0.165492 115.8 0.0293251 116.194 0.0042296 116.603C-0.0208659 117.012 0.0660659 117.42 0.255608 117.783C0.445151 118.146 0.730078 118.45 1.07952 118.662C1.42896 118.874 1.82959 118.986 2.23802 118.986H27.3036L26.8585 132.381C26.8485 132.682 26.8989 132.982 27.0068 133.263C27.1147 133.544 27.2778 133.8 27.4865 134.017C27.6952 134.233 27.9452 134.405 28.2215 134.523C28.4979 134.64 28.795 134.701 29.0952 134.701H35.8095C36.3238 134.701 36.8224 134.523 37.2215 134.198C37.6205 133.872 37.8956 133.419 38.0006 132.914L40.8933 118.986H53.1067L55.9994 132.914C56.1044 133.419 56.3795 133.872 56.7785 134.198C57.1776 134.523 57.6762 134.701 58.1905 134.701H64.9048C65.205 134.701 65.5021 134.64 65.7785 134.523C66.0548 134.405 66.3048 134.233 66.5135 134.017C66.7222 133.8 66.8853 133.544 66.9932 133.263C67.1011 132.982 67.1516 132.682 67.1415 132.381L66.6964 118.986H91.762C92.1704 118.986 92.571 118.874 92.9205 118.662C93.2699 118.45 93.5548 118.146 93.7444 117.783C93.9339 117.42 94.0209 117.012 93.9958 116.603C93.9707 116.194 93.8345 115.8 93.602 115.463ZM69.381 33.1633V44.9003C69.379 46.686 68.6709 48.3979 67.4122 49.6605C66.1535 50.9231 64.4468 51.6334 62.6667 51.6354H56.4808L51.4504 49.1124L60.0132 43.3862L64.1969 44.7851L65.6127 40.5256L62.6667 39.5405V33.6753C62.6667 33.0798 62.4309 32.5088 62.0112 32.0878C61.5914 31.6668 61.0222 31.4303 60.4286 31.4302H59.2581L61.596 25.5676L65.0245 26.8572C66.3017 27.3423 67.402 28.205 68.1799 29.331C68.9578 30.457 69.3766 31.7934 69.381 33.1633ZM33.1682 62.8605L31.8253 56.1254H40.2857C40.7276 56.1254 41.1595 55.9942 41.5271 55.7483L47.1607 51.981L54.9514 55.8884C55.2622 56.0443 55.6049 56.1254 55.9524 56.1254H62.1747L60.8319 62.8605H33.1682ZM42.5238 13.4701H51.4762V17.9601C51.4762 19.151 51.0046 20.293 50.1652 21.1351C49.3257 21.9771 48.1872 22.4502 47 22.4502C45.8128 22.4502 44.6743 21.9771 43.8349 21.1351C42.9954 20.293 42.5238 19.151 42.5238 17.9601V13.4701ZM56.3835 35.9203H58.1905V39.2089L54.5823 41.6218L52.5142 37.4728L56.3835 35.9203ZM57.4038 23.9906L54.2306 31.9482L49.2381 33.9514V26.656C51.3889 26.0941 53.2556 24.7522 54.4774 22.8899L57.4038 23.9906ZM45.4394 4.49004C46.0152 4.48944 46.5781 4.66042 47.0568 4.98127L51.4762 7.93663V8.98007H42.5238V7.41483C42.5246 6.63941 42.8321 5.89598 43.3787 5.34765C43.9253 4.79933 44.6664 4.4909 45.4394 4.49004ZM44.7619 26.656V33.5538L39.7401 31.8747L36.5962 23.9906L39.5226 22.8899C40.7444 24.7522 42.6111 26.0941 44.7619 26.656ZM35.8095 35.9203H37.6845L41.3097 37.1324L35.8095 39.3393V35.9203ZM24.619 33.1633C24.6234 31.7934 25.0422 30.457 25.8201 29.331C26.598 28.205 27.6983 27.3423 28.9755 26.8572L32.404 25.5676L34.7419 31.4302H33.5714C32.9778 31.4303 32.4086 31.6668 31.9888 32.0878C31.5691 32.5088 31.3333 33.0798 31.3333 33.6753V42.6553C31.3333 43.0222 31.4229 43.3835 31.5943 43.7076C31.7657 44.0317 32.0137 44.3087 32.3166 44.5144C32.6194 44.72 32.9679 44.8481 33.3316 44.8874C33.6952 44.9267 34.0629 44.876 34.4025 44.7398L48.3438 39.146L50.829 44.1317L39.6082 51.6354H31.3333C29.5532 51.6334 27.8465 50.9231 26.5878 49.6605C25.3291 48.3979 24.621 46.686 24.619 44.9003V33.1633ZM6.41724 114.496C18.0027 96.3835 24.3024 75.3797 24.6032 53.8617C25.3688 54.4416 26.2056 54.9203 27.093 55.286L29.0878 65.2908L27.4528 114.496H6.41724ZM41.8259 114.496L47 89.5831L52.1741 114.496H41.8259ZM60.0103 130.211L49.1911 78.1177C49.0862 77.6126 48.811 77.1592 48.412 76.8337C48.0129 76.5083 47.5143 76.3306 47 76.3306C46.4857 76.3306 45.987 76.5083 45.588 76.8337C45.1889 77.1592 44.9138 77.6126 44.8089 78.1177L33.9897 130.211H31.4093L33.4979 67.3505H60.5021L62.5907 130.211H60.0103ZM66.5472 114.496L64.9122 65.2908L66.907 55.286C67.7944 54.9203 68.6312 54.4416 69.3968 53.8617C69.6976 75.3797 75.9973 96.3835 87.5828 114.496H66.5472Z" fill="#F15C1F"/>
</svg>
