<svg width="33" height="29" viewBox="0 0 33 29" fill="none" xmlns="http://www.w3.org/2000/svg">
<path d="M13.3725 15.1394C13.2934 15.1842 13.2253 15.2424 13.172 15.3105C13.1188 15.3786 13.0815 15.4554 13.0624 15.5362C13.0249 15.6918 13.056 15.8541 13.1493 15.9904C13.2427 16.1267 13.3914 16.2269 13.5656 16.2709C13.5347 15.8837 13.5137 15.4888 13.5071 15.0813C13.4601 15.0965 13.415 15.116 13.3725 15.1394Z" fill="#FA627D"/>
<path d="M2.45757 7.52517C2.36932 7.49477 2.275 7.48023 2.18022 7.48239C2.08543 7.48455 1.99211 7.50338 1.90577 7.53775C1.75411 7.5972 1.63063 7.70091 1.55633 7.83123C1.48203 7.96155 1.46152 8.11043 1.49828 8.25252C1.53504 8.39461 1.6268 8.52114 1.75795 8.61057C1.8891 8.69999 2.05153 8.7468 2.21759 8.74301C2.38365 8.73922 2.54308 8.68508 2.66875 8.58979C2.79442 8.49451 2.87857 8.36397 2.90686 8.22039C2.93515 8.07682 2.90585 7.92908 2.82393 7.80232C2.74202 7.67557 2.61255 7.57762 2.45757 7.52517Z" fill="#FA627D"/>
<path d="M13.2098 11.5734C13.1254 11.6554 13.0672 11.7556 13.041 11.8636C13.0148 11.9717 13.0216 12.084 13.0607 12.189C13.0998 12.2941 13.1697 12.3882 13.2635 12.462C13.3573 12.5358 13.4716 12.5865 13.5949 12.6091C13.6364 12.193 13.7027 11.7791 13.7936 11.3691C13.777 11.3691 13.7605 11.3691 13.7439 11.3691C13.6436 11.3687 13.5443 11.3866 13.4523 11.4218C13.3603 11.457 13.2777 11.5086 13.2098 11.5734Z" fill="#FA627D"/>
<path d="M6.919 12.2849H5.92578C5.96265 13.0682 6.15343 13.8401 6.48971 14.5664L7.39244 14.2063C7.47249 14.1745 7.56367 14.1719 7.64594 14.199C7.72821 14.2262 7.79481 14.2808 7.83111 14.3511C7.8674 14.4213 7.87041 14.5013 7.83947 14.5734C7.80853 14.6456 7.74617 14.704 7.66612 14.7358L6.7645 15.095C7.09716 15.6702 7.52069 16.2014 8.02258 16.6728L8.71673 16.0552C8.77906 16.0034 8.86187 15.975 8.94769 15.9757C9.03351 15.9765 9.11564 16.0065 9.17675 16.0593C9.23787 16.1122 9.27319 16.1838 9.27528 16.259C9.27737 16.3343 9.24606 16.4073 9.18796 16.4627L8.4927 17.0813C9.03763 17.5143 9.64908 17.8783 10.3092 18.1625L10.7065 17.3649C10.7417 17.2943 10.8075 17.2389 10.8894 17.2108C10.9713 17.1828 11.0625 17.1844 11.1429 17.2153C11.2234 17.2463 11.2866 17.304 11.3186 17.3758C11.3506 17.4476 11.3487 17.5276 11.3134 17.5982L10.9162 18.3958C11.6016 18.6293 12.3213 18.7766 13.0538 18.8333L13.1001 17.9621C13.1041 17.8851 13.1428 17.8126 13.2076 17.7606C13.2725 17.7086 13.3583 17.6813 13.4461 17.6848C13.5339 17.6883 13.6166 17.7222 13.6758 17.7791C13.7351 17.836 13.7662 17.9112 13.7623 17.9883L13.7159 18.8594H13.7479C13.823 18.8594 13.898 18.8594 13.9687 18.8594C13.8149 18.203 13.6996 17.54 13.6232 16.8731C13.5743 16.8691 13.5257 16.8626 13.4776 16.8538C13.1657 16.7962 12.8861 16.6456 12.6865 16.4277C12.4868 16.2098 12.3793 15.938 12.3823 15.6584C12.3853 15.3788 12.4986 15.1088 12.7029 14.8942C12.9072 14.6796 13.1899 14.5337 13.5029 14.4813C13.5029 14.0641 13.5162 13.6304 13.5449 13.1929C13.3623 13.1735 13.186 13.1223 13.0264 13.0423C12.8667 12.9623 12.7269 12.855 12.6152 12.7269C12.5035 12.5988 12.4222 12.4523 12.376 12.2962C12.3299 12.1401 12.3198 11.9774 12.3463 11.8178C12.3729 11.6582 12.4356 11.5049 12.5308 11.3669C12.626 11.2289 12.7517 11.109 12.9005 11.0142C13.0493 10.9194 13.2182 10.8518 13.3973 10.8152C13.5764 10.7785 13.762 10.7737 13.9433 10.801C13.9984 10.6238 14.0536 10.4496 14.1265 10.2802C14.1471 10.2281 14.1842 10.1822 14.2334 10.148C14.2827 10.1137 14.342 10.0924 14.4046 10.0866C14.9467 10.0362 15.4855 9.96193 16.0191 9.86398C16.0435 9.77136 16.0806 9.68165 16.1295 9.59682C16.211 9.45498 16.3238 9.32873 16.4613 9.22539C16.5988 9.12204 16.7584 9.04364 16.9307 8.99473C17.1701 8.9262 17.4264 8.9163 17.6718 8.96611C17.9173 9.01592 18.1425 9.12355 18.3234 9.27738C18.6383 9.17349 18.9473 9.0612 19.2504 8.94052C19.2104 8.9116 19.1787 8.87485 19.1579 8.83322C19.1371 8.7916 19.1277 8.74628 19.1305 8.70089C19.1333 8.6555 19.1482 8.61133 19.174 8.57191C19.1998 8.5325 19.2358 8.49894 19.2791 8.47396L20.1068 7.99868C19.6777 7.475 19.1673 7.00648 18.5904 6.60672L18.0122 7.31044C17.9813 7.34775 17.9409 7.37809 17.894 7.39896C17.8472 7.41983 17.7954 7.43063 17.7429 7.43047C17.6735 7.43028 17.606 7.41098 17.5498 7.3753C17.5145 7.35293 17.4847 7.32469 17.4619 7.2922C17.4391 7.25971 17.4239 7.2236 17.417 7.18594C17.4101 7.14828 17.4118 7.10979 17.4219 7.07269C17.432 7.03559 17.4503 7.0006 17.4758 6.96971L18.0552 6.26599C17.441 5.90886 16.7722 5.62989 16.0688 5.4374L15.8171 6.27664C15.7985 6.33838 15.7571 6.39299 15.6994 6.43201C15.6418 6.47104 15.571 6.4923 15.4982 6.4925C15.4692 6.49214 15.4403 6.48889 15.4121 6.48282C15.3701 6.47303 15.3307 6.45609 15.2961 6.43294C15.2616 6.40979 15.2325 6.38089 15.2107 6.3479C15.1889 6.31491 15.1747 6.27848 15.1689 6.24067C15.1631 6.20286 15.1659 6.16443 15.1771 6.12757L15.432 5.28542C14.8783 5.17751 14.3129 5.12298 13.7457 5.1228C13.5769 5.1228 13.4091 5.12958 13.2425 5.13829L13.3529 6.00947C13.3621 6.08596 13.3364 6.16256 13.2814 6.22245C13.2264 6.28233 13.1465 6.32062 13.0593 6.32891H13.0229C12.9409 6.32932 12.8616 6.30301 12.8004 6.25508C12.7393 6.20716 12.7006 6.14102 12.6918 6.06949L12.5815 5.19831C11.854 5.29371 11.1458 5.47949 10.478 5.75005L10.9294 6.52444C10.9681 6.59259 10.9748 6.67136 10.948 6.74378C10.9211 6.8162 10.863 6.87648 10.7859 6.91163C10.739 6.93242 10.6873 6.94336 10.6347 6.94358C10.5737 6.94351 10.5139 6.92864 10.4619 6.90063C10.4099 6.87261 10.3678 6.83254 10.3401 6.78483L9.88873 6.01044C9.24946 6.32881 8.66436 6.72439 8.15059 7.18557L8.88558 7.76636C8.92068 7.79107 8.94967 7.82179 8.97078 7.85666C8.99189 7.89152 9.00468 7.9298 9.00835 7.96914C9.01203 8.00849 9.00652 8.04808 8.99216 8.08549C8.97781 8.12291 8.9549 8.15736 8.92485 8.18675C8.8948 8.21614 8.85824 8.23985 8.81739 8.25642C8.77654 8.273 8.73227 8.28209 8.68728 8.28315C8.64229 8.28421 8.59752 8.27722 8.55572 8.26259C8.51392 8.24796 8.47595 8.22601 8.44414 8.19808L7.70806 7.61729C7.23905 8.11568 6.85266 8.66967 6.56034 9.26286L7.48734 9.57455C7.55954 9.59891 7.61973 9.64467 7.65747 9.70389C7.69521 9.76311 7.70812 9.83205 7.69396 9.89875C7.6798 9.96545 7.63947 10.0257 7.57995 10.069C7.52044 10.1124 7.44551 10.136 7.36816 10.136C7.32775 10.1361 7.28768 10.1296 7.25007 10.1166L6.32307 9.80493C6.08864 10.4183 5.95487 11.0577 5.92578 11.7041H6.919C7.00681 11.7041 7.09102 11.7347 7.15311 11.7892C7.21519 11.8436 7.25007 11.9175 7.25007 11.9945C7.25007 12.0715 7.21519 12.1454 7.15311 12.1998C7.09102 12.2543 7.00681 12.2849 6.919 12.2849ZM12.3784 8.07128C12.4324 7.8478 12.5573 7.64228 12.7389 7.4785C12.9205 7.31472 13.1512 7.19936 13.4043 7.14577C13.6575 7.09219 13.9228 7.10256 14.1695 7.17568C14.4163 7.24881 14.6344 7.38171 14.7986 7.55901C14.9628 7.73631 15.0665 7.95076 15.0975 8.17756C15.1286 8.40437 15.0859 8.63426 14.9742 8.84065C14.8626 9.04704 14.6866 9.22149 14.4667 9.34383C14.2468 9.46616 13.9918 9.53139 13.7314 9.53196C13.6342 9.53186 13.5374 9.5231 13.4422 9.50583C13.265 9.47292 13.0969 9.40971 12.9475 9.3198C12.7981 9.22989 12.6703 9.11505 12.5716 8.98184C12.4728 8.84862 12.4049 8.69964 12.3717 8.54341C12.3386 8.38717 12.3408 8.22674 12.3784 8.07128ZM11.3609 14.3941C11.2791 14.536 11.1661 14.6623 11.0284 14.7656C10.8907 14.8689 10.731 14.9473 10.5586 14.9962C10.2109 15.0952 9.83259 15.0693 9.5066 14.9242C9.1806 14.779 8.93348 14.5265 8.81936 14.2218C8.7058 13.9166 8.73513 13.5843 8.90091 13.298C9.06668 13.0117 9.35532 12.7949 9.70333 12.6953C10.0513 12.5957 10.4302 12.6214 10.7566 12.7669C11.083 12.9123 11.3301 13.1654 11.4437 13.4707C11.5001 13.6218 11.5217 13.7814 11.5071 13.9399C11.4925 14.0985 11.4421 14.2529 11.3587 14.3941H11.3609ZM9.08643 9.36063C9.20707 9.24209 9.35316 9.14555 9.51634 9.07653C9.67952 9.00751 9.8566 8.96736 10.0375 8.95837C10.2184 8.94938 10.3995 8.97173 10.5705 9.02414C10.7415 9.07655 10.8991 9.158 11.0342 9.26383C11.3058 9.47879 11.4692 9.77938 11.4886 10.0998C11.5081 10.4202 11.382 10.7343 11.138 10.9733C11.0173 11.0918 10.8709 11.1881 10.7074 11.2565C10.5439 11.325 10.3665 11.3643 10.1856 11.3721C10.1602 11.3721 10.1348 11.3721 10.1105 11.3721C9.84404 11.3721 9.58324 11.3043 9.35974 11.177C9.13623 11.0497 8.9596 10.8683 8.85123 10.6547C8.74286 10.4411 8.7074 10.2046 8.74914 9.97372C8.79089 9.74284 8.90804 9.52753 9.08643 9.35385V9.36063Z" fill="white"/>
<path d="M23.1997 25.2798C24.0825 25.2798 25.6662 24.5209 27.0743 22.854C28.211 21.5076 29.5662 19.167 29.5662 15.6648C29.5662 14.7307 29.521 13.6611 29.1866 12.7667C26.8923 12.5392 24.7723 11.7242 23.1997 10.4609C21.6227 11.7242 19.506 12.5392 17.2117 12.7667C16.8806 13.6611 16.832 14.7307 16.832 15.6648C16.832 19.167 18.1872 21.5076 19.3239 22.854C20.7321 24.5209 22.319 25.2798 23.1997 25.2798ZM19.7863 18.3423V16.6144C19.7863 16.5759 19.8038 16.539 19.8348 16.5117C19.8658 16.4845 19.9079 16.4692 19.9518 16.4692H22.0486V14.63C22.0486 14.5915 22.0661 14.5546 22.0971 14.5274C22.1282 14.5001 22.1703 14.4848 22.2142 14.4848H24.1841C24.228 14.4848 24.2701 14.5001 24.3011 14.5274C24.3322 14.5546 24.3496 14.5915 24.3496 14.63V16.4692H26.4464C26.4903 16.4692 26.5324 16.4845 26.5635 16.5117C26.5945 16.539 26.6119 16.5759 26.6119 16.6144V18.3423C26.6119 18.3808 26.5945 18.4177 26.5635 18.4449C26.5324 18.4722 26.4903 18.4875 26.4464 18.4875H24.3551V20.3266C24.3551 20.3651 24.3377 20.4021 24.3066 20.4293C24.2756 20.4565 24.2335 20.4718 24.1896 20.4718H22.2142C22.1703 20.4718 22.1282 20.4565 22.0971 20.4293C22.0661 20.4021 22.0486 20.3651 22.0486 20.3266V18.4875H19.9518C19.9079 18.4875 19.8658 18.4722 19.8348 18.4449C19.8038 18.4177 19.7863 18.3808 19.7863 18.3423Z" fill="white"/>
<path d="M17.1387 9.54434C17.0372 9.57387 16.9445 9.6227 16.8672 9.68733C17.0791 9.63709 17.2891 9.58363 17.4973 9.52695C17.4523 9.51853 17.4065 9.514 17.3605 9.51343C17.2852 9.51386 17.2104 9.52428 17.1387 9.54434Z" fill="#FA627D"/>
<path d="M13.5775 8.9374C13.7402 8.96758 13.9097 8.94737 14.0572 8.88022C14.2047 8.81307 14.3211 8.70313 14.3866 8.56913C14.4521 8.43513 14.4626 8.28536 14.4163 8.14534C14.37 8.00532 14.2698 7.88371 14.1327 7.80123C13.9957 7.71875 13.8303 7.6805 13.6647 7.69299C13.4991 7.70549 13.3435 7.76796 13.2246 7.86977C13.1056 7.97157 13.0305 8.10641 13.0122 8.2513C12.9939 8.3962 13.0334 8.5422 13.124 8.66442C13.1753 8.73389 13.2418 8.79378 13.3197 8.84063C13.3975 8.88748 13.4852 8.92036 13.5775 8.9374Z" fill="#FA627D"/>
<path d="M13.142 1.14613C13.1232 0.991757 13.04 0.848927 12.9084 0.74511C12.7768 0.641293 12.6061 0.583818 12.4291 0.58374C12.4037 0.58374 12.3783 0.58374 12.3529 0.58374C12.212 0.596803 12.0786 0.646199 11.9696 0.725693C11.8606 0.805187 11.7809 0.911216 11.7406 1.0304C11.7003 1.14958 11.7011 1.27657 11.743 1.39534C11.7848 1.5141 11.8659 1.61933 11.9759 1.69773C12.0859 1.77613 12.2199 1.82419 12.361 1.83585C12.5022 1.8475 12.644 1.82223 12.7688 1.76321C12.8936 1.7042 12.9956 1.61409 13.062 1.50427C13.1284 1.39444 13.1563 1.26982 13.142 1.14613Z" fill="#FA627D"/>
<path d="M9.63096 10.6411C9.77273 10.7522 9.95885 10.8096 10.1487 10.8007C10.3385 10.7918 10.5166 10.7174 10.6441 10.5937C10.7364 10.5032 10.7969 10.3912 10.8184 10.2712C10.8398 10.1512 10.8212 10.0283 10.7649 9.91733C10.7086 9.80637 10.6169 9.71204 10.5009 9.64571C10.3849 9.57938 10.2495 9.54387 10.111 9.54346H10.0724C9.9306 9.54997 9.79419 9.59325 9.68045 9.66782C9.56672 9.74238 9.48077 9.84488 9.4335 9.96232C9.38622 10.0798 9.37975 10.2069 9.41491 10.3275C9.45006 10.4482 9.52525 10.557 9.63096 10.6402V10.6411Z" fill="#FA627D"/>
<path d="M14.166 14.7203C14.166 19.718 16.0984 23.0566 17.7206 24.9809C19.7181 27.3476 21.9617 28.425 23.1999 28.425C24.4381 28.425 26.6806 27.3476 28.6781 24.9809C30.3004 23.0604 32.2327 19.7219 32.2327 14.7203C32.2327 13.4048 32.1687 11.9025 31.7107 10.6412C28.4563 10.3092 25.4534 9.15437 23.1999 7.37231C20.9453 9.15437 17.9425 10.3092 14.688 10.6412C14.23 11.9025 14.166 13.4048 14.166 14.7203ZM16.9327 12.5839C16.9431 12.558 16.9617 12.5351 16.9863 12.5179C17.0109 12.5008 17.0405 12.4901 17.0717 12.4871C19.3893 12.2761 21.5269 11.4485 23.0863 10.1572C23.1169 10.1315 23.1576 10.1172 23.1999 10.1172C23.2423 10.1172 23.283 10.1315 23.3136 10.1572C24.8718 11.4495 27.004 12.2781 29.327 12.4881C29.3582 12.4911 29.3878 12.5018 29.4124 12.5189C29.437 12.536 29.4556 12.5589 29.4661 12.5849C29.8468 13.5384 29.8976 14.6767 29.8976 15.666C29.8976 22.2018 25.2029 25.5714 23.1999 25.5714C21.1969 25.5714 16.5012 22.2018 16.5012 15.666C16.5012 14.6758 16.552 13.5364 16.9327 12.5839Z" fill="#FA627D"/>
<path d="M22.3795 18.3424V20.1816H24.0239V18.3424C24.0239 18.3039 24.0413 18.267 24.0723 18.2397C24.1034 18.2125 24.1455 18.1972 24.1894 18.1972H26.2862V16.7598H24.1894C24.1455 16.7598 24.1034 16.7445 24.0723 16.7172C24.0413 16.69 24.0239 16.6531 24.0239 16.6146V14.7754H22.3795V16.6146C22.3795 16.6531 22.3621 16.69 22.331 16.7172C22.3 16.7445 22.2579 16.7598 22.214 16.7598H20.1172V18.1972H22.214C22.2579 18.1972 22.3 18.2125 22.331 18.2397C22.3621 18.267 22.3795 18.3039 22.3795 18.3424Z" fill="#FA627D"/>
<path d="M10.1289 13.2158C10.0539 13.2157 9.97936 13.2262 9.90815 13.2468C9.73679 13.2958 9.59281 13.3997 9.50494 13.5378C9.41706 13.6758 9.39176 13.8379 9.43408 13.9915C9.4764 14.1452 9.58323 14.2793 9.73325 14.3669C9.88327 14.4546 10.0654 14.4894 10.2434 14.4644C10.4214 14.4394 10.5821 14.3565 10.6935 14.2322C10.8048 14.1078 10.8586 13.9512 10.8442 13.7936C10.8297 13.6361 10.7481 13.489 10.6155 13.3819C10.4829 13.2748 10.3091 13.2155 10.1289 13.2158Z" fill="#FA627D"/>
<path d="M2.48774 15.8499C2.31951 15.8497 2.15656 15.9014 2.02738 15.9959C1.89819 16.0904 1.81099 16.2217 1.78101 16.3669C1.75104 16.5121 1.78019 16.6619 1.86338 16.7902C1.94657 16.9184 2.07851 17.017 2.23612 17.0685C2.36904 17.1121 2.51368 17.1201 2.6518 17.0917C2.78993 17.0632 2.91535 16.9995 3.01226 16.9086C3.10917 16.8177 3.17322 16.7037 3.19633 16.5809C3.21945 16.4581 3.2006 16.3321 3.14215 16.2187C3.08483 16.1086 2.99268 16.0154 2.87666 15.95C2.76064 15.8846 2.62564 15.8499 2.48774 15.8499Z" fill="#FA627D"/>
<path d="M1.38141 12.6234C1.77759 12.6234 2.09875 12.3417 2.09875 11.9942C2.09875 11.6467 1.77759 11.365 1.38141 11.365C0.985229 11.365 0.664062 11.6467 0.664062 11.9942C0.664062 12.3417 0.985229 12.6234 1.38141 12.6234Z" fill="#FA627D"/>
<path d="M23.4925 6.40241C23.5967 6.54207 23.7599 6.6397 23.9462 6.67382C24.1324 6.70795 24.3265 6.67578 24.4858 6.58439C24.645 6.493 24.7563 6.34987 24.7952 6.18649C24.8341 6.02312 24.7974 5.85288 24.6932 5.71322C24.6417 5.64406 24.575 5.58449 24.4972 5.53791C24.4194 5.49133 24.3318 5.45866 24.2396 5.44176C24.1474 5.42486 24.0522 5.42407 23.9597 5.43942C23.8671 5.45478 23.7788 5.48598 23.7 5.53125C23.5408 5.62264 23.4294 5.76568 23.3903 5.929C23.3512 6.09232 23.3876 6.26257 23.4914 6.40241H23.4925Z" fill="#FA627D"/>
<path d="M8.1146 1.70851C7.99957 1.70792 7.88605 1.73148 7.78353 1.77724C7.69963 1.81487 7.62499 1.86662 7.56388 1.92955C7.50278 1.99248 7.4564 2.06535 7.4274 2.144C7.3984 2.22264 7.38735 2.30553 7.39487 2.38793C7.40239 2.47033 7.42834 2.55062 7.47123 2.62422C7.51413 2.69782 7.57313 2.76329 7.64487 2.81689C7.71661 2.87049 7.79969 2.91117 7.88935 2.93661C7.97902 2.96204 8.07351 2.97174 8.16745 2.96514C8.26139 2.95855 8.35292 2.93579 8.43683 2.89816C8.58072 2.83378 8.69562 2.72868 8.76294 2.59988C8.83025 2.47108 8.84603 2.32612 8.80773 2.18848C8.76942 2.05083 8.67927 1.92856 8.55188 1.84145C8.42448 1.75434 8.26729 1.7075 8.10577 1.70851H8.1146Z" fill="#FA627D"/>
<path d="M13.1733 22.1987C13.0332 22.1991 12.8963 22.2354 12.7795 22.3033C12.6627 22.3713 12.5712 22.4677 12.5163 22.5808C12.4614 22.6939 12.4455 22.8186 12.4706 22.9395C12.4957 23.0604 12.5607 23.1722 12.6575 23.2611C12.7543 23.3499 12.8787 23.4119 13.0153 23.4393C13.1519 23.4668 13.2946 23.4585 13.4259 23.4155C13.5571 23.3724 13.6711 23.2966 13.7537 23.1973C13.8363 23.0981 13.8839 22.9797 13.8906 22.857C13.8987 22.6902 13.8314 22.5275 13.7032 22.4042C13.575 22.2809 13.3964 22.207 13.2064 22.1987H13.1733Z" fill="#FA627D"/>
<path d="M5.02814 4.27666C4.89679 4.17276 4.72605 4.11548 4.54918 4.11597H4.51055C4.34482 4.12385 4.18733 4.1819 4.06492 4.28022C3.94251 4.37854 3.86276 4.51105 3.83926 4.65517C3.81576 4.79929 3.84996 4.9461 3.93604 5.07057C4.02211 5.19505 4.15474 5.2895 4.31131 5.33781C4.46788 5.38613 4.63871 5.38533 4.79468 5.33554C4.95065 5.28576 5.08211 5.19007 5.16667 5.06479C5.25122 4.93951 5.28363 4.79239 5.25837 4.6485C5.23311 4.50461 5.15174 4.37286 5.02814 4.27569V4.27666Z" fill="#FA627D"/>
<path d="M16.7341 2.12011C16.8948 2.15592 17.0647 2.14177 17.2149 2.08008C17.3651 2.01839 17.4862 1.91297 17.5578 1.78175C17.6293 1.65053 17.6468 1.50163 17.6073 1.36037C17.5678 1.2191 17.4737 1.09421 17.3411 1.00694C17.2084 0.91967 17.0454 0.875409 16.8797 0.881691C16.714 0.887972 16.556 0.944407 16.4324 1.04139C16.3088 1.13838 16.2273 1.26993 16.2019 1.41365C16.1764 1.55738 16.2085 1.70441 16.2927 1.82972C16.3405 1.90149 16.4041 1.96416 16.48 2.01403C16.5558 2.0639 16.6422 2.09996 16.7341 2.12011Z" fill="#FA627D"/>
<path d="M20.5655 3.71214C20.6806 3.78543 20.8179 3.8271 20.96 3.83189C21.1021 3.83667 21.2426 3.80435 21.3638 3.73901C21.4849 3.67368 21.5813 3.57827 21.6405 3.46487C21.6998 3.35148 21.7194 3.2252 21.6968 3.10204C21.6742 2.97887 21.6104 2.86436 21.5136 2.77302C21.4167 2.68167 21.2911 2.61759 21.1527 2.58891C21.0143 2.56022 20.8693 2.56822 20.7361 2.61188C20.6029 2.65554 20.4874 2.7329 20.4043 2.83417C20.2937 2.96954 20.2485 3.13781 20.2787 3.30227C20.3089 3.46674 20.4119 3.61407 20.5655 3.71214Z" fill="#FA627D"/>
<path d="M5.06305 19.0879C4.8728 19.0879 4.69034 19.1542 4.55581 19.2722C4.42128 19.3902 4.3457 19.5502 4.3457 19.7171C4.3457 19.8839 4.42128 20.044 4.55581 20.162C4.69034 20.28 4.8728 20.3463 5.06305 20.3463C5.2533 20.3463 5.43576 20.28 5.57029 20.162C5.70482 20.044 5.7804 19.8839 5.7804 19.7171C5.7804 19.5502 5.70482 19.3902 5.57029 19.2722C5.43576 19.1542 5.2533 19.0879 5.06305 19.0879Z" fill="#FA627D"/>
<path d="M9.07764 21.354C8.94759 21.304 8.80353 21.2889 8.66373 21.3108C8.52392 21.3326 8.39465 21.3904 8.29231 21.4768C8.18996 21.5631 8.11914 21.6742 8.08881 21.7959C8.05849 21.9176 8.07002 22.0444 8.12196 22.1603C8.16507 22.2566 8.23457 22.342 8.3243 22.4091C8.41403 22.4762 8.52122 22.5228 8.6364 22.5449C8.75157 22.567 8.87118 22.5639 8.98463 22.5357C9.09808 22.5076 9.20189 22.4554 9.28685 22.3837C9.37182 22.312 9.43534 22.2231 9.47177 22.1247C9.50821 22.0264 9.51645 21.9216 9.49577 21.8198C9.47508 21.718 9.42611 21.6223 9.35318 21.541C9.28025 21.4598 9.18561 21.3955 9.07764 21.354Z" fill="#FA627D"/>
<path d="M9.18843 11.0731C9.44064 11.2731 9.76879 11.3835 10.1088 11.3828C10.1331 11.3828 10.1585 11.3828 10.1839 11.3828C10.3648 11.375 10.5422 11.3357 10.7057 11.2673C10.8692 11.1988 11.0155 11.1025 11.1363 10.984C11.319 10.8058 11.4373 10.584 11.4762 10.3468C11.515 10.1095 11.4726 9.86745 11.3544 9.65135C11.2362 9.43524 11.0474 9.25481 10.8121 9.13293C10.5768 9.01105 10.3055 8.95322 10.0327 8.96678C9.76021 8.97951 9.49816 9.06282 9.27968 9.20619C9.0612 9.34955 8.8961 9.54652 8.80526 9.77219C8.71442 9.99786 8.70192 10.2421 8.76934 10.474C8.83675 10.7059 8.98107 10.915 9.18402 11.075L9.18843 11.0731ZM9.57689 9.75277C9.63965 9.69101 9.71577 9.64082 9.80083 9.60509C9.8859 9.56936 9.97821 9.54882 10.0724 9.54465H10.111C10.2756 9.54458 10.4352 9.59407 10.5632 9.68485C10.6911 9.77562 10.7797 9.90218 10.814 10.0434C10.8483 10.1845 10.8264 10.3318 10.7518 10.4604C10.6772 10.5891 10.5545 10.6914 10.4042 10.7502C10.2539 10.8091 10.0851 10.8209 9.92612 10.7836C9.76711 10.7464 9.62749 10.6624 9.53062 10.5457C9.43374 10.429 9.38548 10.2867 9.3939 10.1425C9.40232 9.99838 9.46692 9.86113 9.57689 9.75373V9.75277Z" fill="#FA627D"/>
<path d="M9.70237 12.695C9.39052 12.7845 9.12525 12.9686 8.95421 13.2142C8.78316 13.4598 8.71753 13.7509 8.7691 14.0351C8.82067 14.3193 8.98607 14.5781 9.23559 14.765C9.48512 14.9519 9.80243 15.0547 10.1306 15.0549C10.2752 15.0547 10.4189 15.0348 10.5565 14.9958C10.9006 14.8938 11.1848 14.6769 11.3477 14.3922C11.5105 14.1074 11.5388 13.7779 11.4264 13.475C11.3139 13.1721 11.0698 12.9203 10.7471 12.7743C10.4243 12.6283 10.0489 12.5998 9.70237 12.695ZM10.3513 14.4431C10.2607 14.4721 10.1644 14.4848 10.0681 14.4804C9.97177 14.476 9.87747 14.4546 9.7908 14.4175C9.70414 14.3804 9.62689 14.3284 9.56368 14.2645C9.50046 14.2007 9.45258 14.1263 9.42289 14.0458C9.39319 13.9653 9.38231 13.8804 9.39087 13.7962C9.39944 13.7119 9.42728 13.6301 9.47274 13.5555C9.5182 13.4809 9.58033 13.4151 9.65544 13.362C9.73054 13.309 9.81707 13.2698 9.90985 13.2467C9.98106 13.2261 10.0556 13.2156 10.1306 13.2157C10.3012 13.2161 10.4661 13.2697 10.5956 13.3671C10.7252 13.4644 10.811 13.5991 10.8376 13.7469C10.8641 13.8947 10.8298 14.046 10.7407 14.1736C10.6515 14.3012 10.5135 14.3968 10.3513 14.4431Z" fill="#FA627D"/>
<path d="M13.44 9.50566C13.5351 9.52294 13.632 9.5317 13.7291 9.5318C14.0824 9.53091 14.4218 9.41119 14.6774 9.1973C14.933 8.98341 15.0853 8.69166 15.103 8.38218C15.1206 8.07271 15.0022 7.7691 14.7722 7.53393C14.5421 7.29876 14.218 7.14996 13.8666 7.11819C13.5152 7.08643 13.1633 7.17413 12.8834 7.3632C12.6036 7.55228 12.417 7.82833 12.3623 8.13446C12.3076 8.44058 12.3889 8.75344 12.5894 9.00856C12.7899 9.26368 13.0944 9.4416 13.44 9.50566ZM13.0239 8.19113C13.0583 8.04844 13.148 7.92061 13.2777 7.82944C13.4075 7.73827 13.5693 7.68939 13.7355 7.69114C13.9018 7.69289 14.0622 7.74516 14.1894 7.83904C14.3166 7.93292 14.4028 8.0626 14.4332 8.20597C14.4636 8.34933 14.4364 8.49752 14.3562 8.62526C14.276 8.753 14.1478 8.85238 13.9934 8.90647C13.839 8.96056 13.668 8.966 13.5095 8.92188C13.351 8.87775 13.2149 8.78678 13.1244 8.66448C13.0727 8.59533 13.0373 8.51789 13.02 8.43663C13.0028 8.35538 13.0041 8.27193 13.0239 8.19113Z" fill="#FA627D"/>
<path d="M2.71863 11.7041C2.63775 11.4171 2.43993 11.1661 2.1625 10.9983C1.88507 10.8305 1.54722 10.7576 1.21271 10.7934C0.878205 10.8291 0.570176 10.971 0.346762 11.1923C0.123347 11.4135 0 11.6989 0 11.9945C0 12.2901 0.123347 12.5754 0.346762 12.7967C0.570176 13.018 0.878205 13.1598 1.21271 13.1956C1.54722 13.2313 1.88507 13.1584 2.1625 12.9906C2.43993 12.8229 2.63775 12.5718 2.71863 12.2849H5.26348C5.30034 13.1513 5.51104 14.0052 5.8859 14.8074L3.56839 15.7299C3.35945 15.499 3.06139 15.3431 2.73044 15.2917C2.3995 15.2403 2.05854 15.2969 1.7719 15.4509C1.48526 15.6048 1.27275 15.8454 1.17446 16.1273C1.07617 16.4092 1.0989 16.7129 1.23836 16.9812C1.37782 17.2494 1.62436 17.4636 1.93148 17.5833C2.2386 17.7031 2.58506 17.7201 2.90551 17.6312C3.22596 17.5423 3.49823 17.3536 3.67097 17.1007C3.8437 16.8478 3.90496 16.5482 3.84318 16.2584L6.16069 15.335C6.52809 15.9743 6.99823 16.564 7.55672 17.0861L5.76782 18.6765C5.55244 18.5628 5.30515 18.5041 5.0538 18.5071C4.68794 18.5082 4.33759 18.6368 4.07982 18.8645C3.82205 19.0923 3.67798 19.4005 3.67929 19.7214C3.68061 20.0423 3.82721 20.3496 4.08684 20.5757C4.34648 20.8018 4.69788 20.9282 5.06374 20.927H5.07367C5.31771 20.9256 5.55696 20.8674 5.7669 20.7582C5.97685 20.6491 6.14997 20.493 6.26853 20.3059C6.38709 20.1188 6.44684 19.9074 6.44166 19.6934C6.43648 19.4793 6.36655 19.2704 6.23905 19.0879L8.02243 17.4946C8.62665 17.9776 9.30676 18.3822 10.042 18.6958L9.02338 20.7392C8.71961 20.693 8.40694 20.7375 8.13542 20.8656C7.8639 20.9937 7.64925 21.1981 7.52582 21.4459C7.42128 21.654 7.38563 21.8837 7.42294 22.1088C7.46025 22.3339 7.56902 22.5452 7.73681 22.7186C7.9046 22.8921 8.12463 23.0205 8.37176 23.0894C8.61888 23.1583 8.88312 23.1648 9.13426 23.1082C9.3854 23.0516 9.6133 22.9341 9.79191 22.7692C9.97052 22.6043 10.0926 22.3987 10.1443 22.1758C10.1959 21.9529 10.175 21.7217 10.0839 21.5088C9.99282 21.2958 9.83527 21.1097 9.62924 20.9715L10.6489 18.9272C11.4089 19.1885 12.2082 19.3515 13.0216 19.4112L12.9047 21.6375C12.6021 21.6894 12.3282 21.829 12.1271 22.0339C11.9259 22.2388 11.8092 22.497 11.7956 22.7672C11.7788 23.0875 11.9077 23.4006 12.1539 23.6376C12.4002 23.8747 12.7436 24.0163 13.1088 24.0313H13.175C13.5034 24.0278 13.8195 23.9215 14.0664 23.7317C14.3134 23.5418 14.475 23.2809 14.5221 22.9959C14.5692 22.7108 14.4987 22.4204 14.3234 22.1769C14.1481 21.9334 13.8794 21.7527 13.5657 21.6675L13.6838 19.4412H13.7456C13.8703 19.4412 13.9939 19.4412 14.1164 19.4334C14.8403 22.0731 16.0841 24.0139 17.1888 25.3217C19.3341 27.8636 21.7543 29 23.2 29C24.6456 29 27.0625 27.8626 29.21 25.3217C30.8919 23.3315 32.8949 19.8758 32.8949 14.7193C32.8949 13.2945 32.821 11.6537 32.2703 10.2763C32.2497 10.2242 32.2126 10.1783 32.1633 10.144C32.1141 10.1098 32.0547 10.0885 31.9922 10.0827C30.1373 9.91811 28.3315 9.46099 26.6619 8.73334C26.6343 8.71592 26.6067 8.69752 26.5769 8.68107C26.4742 8.62246 26.3628 8.57653 26.2458 8.54458C25.4796 8.17948 24.755 7.75097 24.0817 7.26491H24.0983C24.3912 7.26509 24.6765 7.18355 24.9131 7.03208C25.1497 6.88062 25.3253 6.66708 25.4144 6.42234C25.5035 6.1776 25.5015 5.91435 25.4088 5.67064C25.3161 5.42694 25.1374 5.21542 24.8986 5.06666C24.6598 4.9179 24.3732 4.83962 24.0803 4.84313C23.7875 4.84664 23.5035 4.93177 23.2694 5.0862C23.0353 5.24063 22.8633 5.45635 22.7782 5.70219C22.6931 5.94803 22.6993 6.21123 22.796 6.45374L20.6606 7.68017C20.1873 7.09603 19.6209 6.57446 18.9788 6.1314L20.4697 4.32127C20.7827 4.43287 21.1314 4.44012 21.45 4.34165C21.7686 4.24318 22.0351 4.04581 22.1992 3.78679C22.3633 3.52777 22.4136 3.22502 22.3406 2.9357C22.2676 2.64638 22.0764 2.39049 21.8031 2.21636C21.5298 2.04222 21.1932 1.96187 20.857 1.99048C20.5207 2.01909 20.208 2.15468 19.978 2.37165C19.7479 2.58862 19.6163 2.87197 19.6081 3.1682C19.5999 3.46443 19.7156 3.75305 19.9334 3.97958L18.4435 5.79261C17.7643 5.39507 17.0231 5.08567 16.243 4.87399L16.8941 2.72023H16.9195C17.257 2.72122 17.5832 2.61409 17.837 2.41897C18.0908 2.22385 18.2547 1.95417 18.2978 1.66058C18.3409 1.36699 18.2603 1.06969 18.0711 0.824542C17.882 0.579392 17.5973 0.403253 17.2705 0.329213C16.9438 0.255174 16.5974 0.288328 16.2966 0.422448C15.9957 0.556568 15.7611 0.782425 15.6367 1.05759C15.5122 1.33276 15.5067 1.6383 15.621 1.91682C15.7352 2.19535 15.9615 2.42768 16.2573 2.57019L15.6018 4.72783C14.9927 4.6071 14.3701 4.54607 13.7456 4.54585C13.5525 4.54585 13.3615 4.55359 13.1717 4.56521L12.9014 2.34659C13.2177 2.24528 13.4809 2.04594 13.6413 1.78615C13.8017 1.52637 13.8482 1.22409 13.772 0.936314C13.6958 0.648541 13.5023 0.395155 13.2278 0.223936C12.9533 0.0527161 12.6169 -0.0245068 12.282 0.0068279C11.9471 0.0381626 11.6368 0.17589 11.4097 0.39404C11.1825 0.61219 11.0542 0.89569 11.049 1.19108C11.0437 1.48648 11.1619 1.77335 11.3811 1.99762C11.6004 2.22188 11.9056 2.36805 12.2392 2.40854L12.5096 4.62522C11.7015 4.72866 10.9148 4.93474 10.1744 5.23699L9.01565 3.25068C9.25037 3.07489 9.41071 2.83484 9.47078 2.56929C9.53085 2.30374 9.48715 2.02818 9.34673 1.78709C9.22923 1.58403 9.04893 1.41409 8.82646 1.29671C8.60399 1.17933 8.34834 1.11925 8.08877 1.12335C7.82919 1.12745 7.57618 1.19557 7.35868 1.3199C7.14117 1.44423 6.96797 1.61976 6.85888 1.8264C6.74979 2.03304 6.70923 2.26244 6.74184 2.48836C6.77444 2.71427 6.87889 2.92757 7.04324 3.10385C7.20759 3.28013 7.4252 3.41227 7.67116 3.48514C7.91713 3.55801 8.18151 3.56868 8.43407 3.51591L9.58951 5.50221C8.87867 5.85402 8.22904 6.29344 7.66046 6.80705L5.76561 5.31346C5.90679 5.08009 5.95687 4.81257 5.90817 4.55186C5.85947 4.29116 5.71468 4.05164 5.49598 3.87C5.27728 3.68835 4.99672 3.5746 4.69728 3.54616C4.39784 3.51773 4.09602 3.57617 3.83807 3.71255C3.58011 3.84892 3.38023 4.05571 3.26904 4.30123C3.15785 4.54676 3.14149 4.81748 3.22246 5.07194C3.30343 5.3264 3.47726 5.55056 3.71733 5.7101C3.95741 5.86963 4.25048 5.95574 4.55167 5.95523H4.62672C4.87765 5.94356 5.12009 5.87156 5.32749 5.74711L7.22123 7.23974C6.69878 7.79012 6.26949 8.40368 5.9466 9.06149L3.56839 8.26096C3.60015 8.03583 3.55913 7.8074 3.44999 7.60174C3.34085 7.39607 3.168 7.22146 2.95115 7.09783C2.7343 6.9742 2.4822 6.90653 2.22361 6.90254C1.96502 6.89855 1.71037 6.95841 1.4887 7.07527C1.26703 7.19214 1.08728 7.36131 0.969967 7.56348C0.852652 7.76565 0.802495 7.99268 0.825221 8.21865C0.847946 8.44463 0.942638 8.66044 1.09849 8.84148C1.25434 9.02251 1.46508 9.16147 1.70665 9.2425C1.86451 9.29541 2.03205 9.32264 2.20105 9.32284C2.42308 9.32237 2.64171 9.27496 2.83843 9.18465C3.03514 9.09433 3.20414 8.96376 3.33112 8.804L5.70491 9.60162C5.44218 10.2799 5.29348 10.9882 5.26348 11.7041H2.71863ZM1.38109 12.6237C1.23922 12.6237 1.10053 12.5868 0.982567 12.5176C0.864603 12.4485 0.772661 12.3502 0.718368 12.2353C0.664076 12.1203 0.64987 11.9938 0.677549 11.8717C0.705227 11.7497 0.773545 11.6376 0.873865 11.5496C0.974185 11.4616 1.102 11.4017 1.24115 11.3774C1.3803 11.3531 1.52453 11.3656 1.6556 11.4132C1.78667 11.4608 1.89871 11.5414 1.97753 11.6449C2.05635 11.7484 2.09842 11.87 2.09842 11.9945C2.09813 12.1613 2.02246 12.3212 1.888 12.4391C1.75353 12.557 1.57125 12.6234 1.38109 12.6237ZM3.15896 16.6998C3.10952 16.8166 3.02162 16.9179 2.90642 16.9907C2.79122 17.0636 2.65392 17.1048 2.51198 17.109C2.37003 17.1133 2.22985 17.0804 2.10925 17.0146C1.98865 16.9488 1.89307 16.8531 1.83466 16.7395C1.78573 16.6453 1.76405 16.542 1.77154 16.4387C1.77903 16.3354 1.81546 16.2353 1.8776 16.1473C1.93973 16.0593 2.02566 15.9862 2.12776 15.9343C2.22987 15.8824 2.34499 15.8534 2.46293 15.8498C2.58086 15.8463 2.69798 15.8683 2.80388 15.914C2.90978 15.9597 3.0012 16.0275 3.07004 16.1116C3.13889 16.1957 3.18302 16.2933 3.19852 16.3959C3.21403 16.4986 3.20044 16.6029 3.15896 16.6998ZM5.57469 20.1584C5.50864 20.2173 5.42998 20.2641 5.34324 20.2961C5.2565 20.3282 5.16338 20.3449 5.06925 20.3453C4.97592 20.3456 4.88343 20.3298 4.79708 20.2987C4.71073 20.2677 4.63221 20.222 4.56602 20.1643C4.49899 20.1063 4.44564 20.0373 4.409 19.9613C4.37237 19.8852 4.35317 19.8036 4.3525 19.721C4.35184 19.6384 4.36972 19.5566 4.40512 19.4801C4.44053 19.4036 4.49276 19.334 4.55885 19.2752C4.62493 19.2164 4.70357 19.1696 4.79028 19.1374C4.87698 19.1053 4.97006 19.0885 5.06418 19.0879C5.15831 19.0873 5.25164 19.103 5.33886 19.134C5.42607 19.1651 5.50546 19.2109 5.57249 19.2689C5.6397 19.3268 5.69322 19.3957 5.72999 19.4718C5.76677 19.5479 5.78606 19.6296 5.78678 19.7122C5.7875 19.7949 5.76962 19.8768 5.73418 19.9534C5.69873 20.03 5.64641 20.0996 5.58021 20.1584H5.57469ZM9.44715 22.1825C9.39022 22.2963 9.29615 22.3927 9.17681 22.4597C9.05746 22.5267 8.91819 22.5611 8.77654 22.5587C8.63489 22.5564 8.49722 22.5172 8.38089 22.4463C8.26456 22.3754 8.17477 22.2759 8.12286 22.1602C8.08329 22.0825 8.06211 21.9986 8.06058 21.9136C8.05905 21.8285 8.0772 21.744 8.11395 21.6653C8.1507 21.5865 8.20528 21.5151 8.27438 21.4554C8.34348 21.3957 8.42567 21.3489 8.51598 21.3178C8.60629 21.2868 8.70285 21.2721 8.79981 21.2747C8.89677 21.2773 8.99212 21.2972 9.08009 21.333C9.16806 21.3689 9.24683 21.42 9.31163 21.4833C9.37642 21.5466 9.42591 21.6208 9.45708 21.7014C9.49185 21.7782 9.50887 21.8602 9.50717 21.9428C9.50546 22.0254 9.48506 22.1069 9.44715 22.1825ZM20.4035 2.83445C20.4865 2.73352 20.6019 2.65647 20.7348 2.61304C20.8678 2.5696 21.0125 2.56175 21.1506 2.59047C21.2887 2.61918 21.414 2.68318 21.5106 2.77435C21.6072 2.86553 21.6708 2.9798 21.6933 3.10269C21.7159 3.22558 21.6964 3.35158 21.6373 3.46475C21.5782 3.57791 21.4821 3.67315 21.3613 3.73843C21.2405 3.8037 21.1003 3.83607 20.9584 3.83144C20.8166 3.82681 20.6796 3.78538 20.5646 3.71241C20.4881 3.66418 20.4232 3.60316 20.3737 3.53287C20.3242 3.46257 20.291 3.38439 20.276 3.3028C20.261 3.22122 20.2646 3.13785 20.2865 3.05747C20.3083 2.9771 20.3481 2.90131 20.4035 2.83445ZM16.2242 1.35053C16.2656 1.20938 16.3615 1.08518 16.4956 0.999159C16.6297 0.913133 16.7937 0.870612 16.9596 0.878857C17.1255 0.887101 17.283 0.9456 17.4051 1.04436C17.5273 1.14313 17.6066 1.27603 17.6295 1.42038C17.6524 1.56472 17.6174 1.71156 17.5306 1.83582C17.4438 1.96008 17.3105 2.05404 17.1535 2.10167C16.9964 2.1493 16.8254 2.14765 16.6696 2.09698C16.5138 2.04632 16.3829 1.94979 16.2993 1.82388C16.2038 1.68103 16.1768 1.51081 16.2242 1.35053ZM8.79494 2.53147C8.76604 2.61022 8.71966 2.68318 8.65849 2.74614C8.59731 2.8091 8.52254 2.86083 8.43848 2.89834C8.29068 2.9645 8.12131 2.98367 7.9592 2.95259C7.7971 2.92151 7.65229 2.84209 7.54945 2.72787C7.44661 2.61365 7.3921 2.47169 7.39519 2.32617C7.39829 2.18065 7.45881 2.04058 7.56644 1.9298C7.67407 1.81903 7.82216 1.74441 7.98547 1.71866C8.14878 1.6929 8.31723 1.71761 8.46211 1.78857C8.60698 1.85952 8.71933 1.97234 8.78002 2.1078C8.84071 2.24326 8.84598 2.39299 8.79494 2.53147ZM5.0825 5.16535C5.00371 5.24244 4.90445 5.30128 4.79353 5.33666C4.6826 5.37204 4.56344 5.38287 4.4466 5.36818C4.32977 5.35349 4.21887 5.31374 4.12374 5.25245C4.02861 5.19117 3.9522 5.11024 3.90127 5.01684C3.85034 4.92345 3.82647 4.82047 3.83178 4.71705C3.83709 4.61363 3.87142 4.51295 3.93171 4.42395C3.992 4.33495 4.0764 4.26037 4.17743 4.20683C4.27845 4.15329 4.39297 4.12245 4.51084 4.11703H4.54947C4.68815 4.11677 4.82394 4.15184 4.94034 4.21797C5.05674 4.2841 5.14875 4.37845 5.20519 4.48956C5.26163 4.60068 5.28009 4.72377 5.25831 4.84391C5.23653 4.96404 5.17545 5.07605 5.0825 5.16632V5.16535ZM13.8902 22.8572C13.8839 22.9805 13.8365 23.0995 13.7538 23.1994C13.6711 23.2993 13.5567 23.3757 13.425 23.4191C13.2932 23.4625 13.1498 23.4709 13.0126 23.4435C12.8754 23.416 12.7504 23.3538 12.6531 23.2645C12.5559 23.1753 12.4906 23.063 12.4655 22.9415C12.4404 22.82 12.4566 22.6948 12.5119 22.5813C12.5673 22.4678 12.6594 22.371 12.7769 22.303C12.8944 22.2351 13.0321 22.1989 13.1728 22.199H13.2059C13.396 22.2072 13.5745 22.2811 13.7027 22.4044C13.8309 22.5277 13.8983 22.6905 13.8902 22.8572ZM23.701 5.53028C23.8198 5.46231 23.9589 5.42676 24.1007 5.42812C24.2426 5.42949 24.3808 5.46771 24.4979 5.53795C24.6149 5.60819 24.7056 5.7073 24.7585 5.82276C24.8114 5.93821 24.824 6.06482 24.7949 6.18658C24.7657 6.30835 24.6961 6.41979 24.5947 6.50684C24.4934 6.59389 24.3649 6.65262 24.2255 6.67562C24.0861 6.69862 23.942 6.68485 23.8115 6.63605C23.6811 6.58725 23.57 6.50562 23.4924 6.40147C23.3889 6.26171 23.3528 6.09168 23.3918 5.92859C23.4309 5.7655 23.5421 5.62263 23.701 5.53125V5.53028ZM23.2 7.36945C25.4535 9.15151 28.4563 10.3063 31.7108 10.6383C32.1687 11.8967 32.2327 13.4019 32.2327 14.7174C32.2327 19.7151 30.3004 23.0537 28.6781 24.978C26.6806 27.3448 24.4382 28.4221 23.2 28.4221C21.9617 28.4221 19.7204 27.3438 17.7207 24.9771C16.0984 23.0566 14.1661 19.718 14.1661 14.7164C14.1661 13.401 14.2301 11.8986 14.688 10.6374C17.9425 10.3092 20.9453 9.15441 23.2 7.37236V7.36945ZM16.8676 9.68487C16.9449 9.62012 17.0377 9.57119 17.1391 9.54161C17.2105 9.5216 17.2849 9.51116 17.3598 9.51063C17.4058 9.51121 17.4517 9.51575 17.4967 9.52418C17.287 9.58291 17.0773 9.63744 16.8676 9.68777V9.68487ZM12.5063 1.83646C12.317 1.85418 12.1276 1.80523 11.9795 1.7004C11.8314 1.59556 11.7369 1.44342 11.7167 1.27745C11.6965 1.11148 11.7523 0.945267 11.8718 0.815381C11.9913 0.685495 12.1648 0.602574 12.354 0.58486C12.3794 0.58486 12.4047 0.58486 12.4301 0.58486C12.6204 0.576003 12.8068 0.633798 12.9485 0.745531C13.0902 0.857264 13.1754 1.01378 13.1855 1.18065C13.1956 1.34752 13.1297 1.51108 13.0023 1.63534C12.875 1.7596 12.6965 1.83438 12.5063 1.84324V1.83646ZM6.91885 11.7041H5.92563C5.95596 11.0592 6.09046 10.4214 6.32513 9.80974L7.25213 10.1214C7.28974 10.1344 7.32981 10.141 7.37021 10.1408C7.44756 10.1409 7.5225 10.1172 7.58201 10.0738C7.64153 10.0305 7.68186 9.97025 7.69602 9.90355C7.71018 9.83685 7.69727 9.76791 7.65953 9.70869C7.62178 9.64947 7.56159 9.60371 7.4894 9.57936L6.5624 9.26767C6.85472 8.67448 7.24111 8.12048 7.71012 7.6221L8.4462 8.20289C8.5068 8.25072 8.58539 8.27726 8.66692 8.27742C8.73382 8.27729 8.79911 8.25938 8.85418 8.22606C8.90925 8.19274 8.95151 8.14556 8.97541 8.09075C8.99931 8.03594 9.00371 7.97607 8.98804 7.91902C8.97237 7.86197 8.93737 7.81042 8.88764 7.77117L8.15265 7.19038C8.66642 6.72919 9.25152 6.33361 9.89079 6.01524L10.3422 6.78963C10.3698 6.83734 10.412 6.87742 10.464 6.90543C10.516 6.93344 10.5758 6.94831 10.6368 6.94838C10.6893 6.94816 10.7411 6.93722 10.788 6.91644C10.865 6.88129 10.9232 6.82101 10.95 6.74858C10.9769 6.67616 10.9702 6.59739 10.9315 6.52924L10.4801 5.75486C11.1478 5.48429 11.8561 5.29851 12.5835 5.20311L12.6939 6.07429C12.7026 6.14582 12.7413 6.21196 12.8025 6.25989C12.8637 6.30781 12.9429 6.33412 13.025 6.33371H13.0614C13.1486 6.32542 13.2284 6.28714 13.2835 6.22725C13.3385 6.16736 13.3642 6.09077 13.3549 6.01428L13.2446 5.14309C13.4112 5.13438 13.5756 5.1276 13.7478 5.1276C14.315 5.12778 14.8804 5.18231 15.4341 5.29023L15.1791 6.13237C15.168 6.16923 15.1652 6.20767 15.171 6.24547C15.1767 6.28328 15.1909 6.31972 15.2128 6.35271C15.2346 6.3857 15.2636 6.41459 15.2982 6.43774C15.3327 6.46089 15.3722 6.47784 15.4142 6.48762C15.4424 6.4937 15.4713 6.49694 15.5003 6.4973C15.5735 6.49639 15.6442 6.47424 15.7015 6.43431C15.7588 6.39438 15.7995 6.33892 15.817 6.2766L16.0786 5.43639C16.782 5.62889 17.4508 5.90786 18.065 6.26498L17.4856 6.96871C17.4601 6.9996 17.4418 7.03459 17.4317 7.07169C17.4216 7.10879 17.4199 7.14727 17.4268 7.18493C17.4337 7.2226 17.4489 7.25871 17.4717 7.2912C17.4945 7.32369 17.5243 7.35192 17.5596 7.37429C17.6158 7.40998 17.6833 7.42928 17.7527 7.42947C17.8052 7.42963 17.857 7.41883 17.9038 7.39796C17.9507 7.37709 17.9911 7.34674 18.022 7.30944L18.6002 6.60571C19.1771 7.00547 19.6875 7.47399 20.1166 7.99767L19.2889 8.47295C19.2456 8.49794 19.2096 8.53149 19.1838 8.57091C19.158 8.61032 19.1431 8.6545 19.1403 8.69989C19.1375 8.74527 19.1469 8.7906 19.1677 8.83222C19.1885 8.87384 19.2202 8.91059 19.2602 8.93952C18.9571 9.06084 18.6481 9.17313 18.3332 9.27638C18.1528 9.1229 17.9281 9.01541 17.6833 8.96544C17.4386 8.91547 17.1829 8.92492 16.9438 8.99276C16.7715 9.04167 16.6119 9.12007 16.4744 9.22342C16.3369 9.32676 16.2241 9.45301 16.1426 9.59484C16.0937 9.67968 16.0566 9.76938 16.0322 9.86201C15.4986 9.95996 14.9598 10.0343 14.4177 10.0846C14.3551 10.0904 14.2958 10.1117 14.2465 10.146C14.1973 10.1803 14.1602 10.2261 14.1396 10.2782C14.0711 10.4476 14.0116 10.6219 13.9564 10.799C13.7751 10.7717 13.5895 10.7766 13.4104 10.8132C13.2313 10.8498 13.0624 10.9175 12.9136 11.0122C12.7648 11.107 12.6391 11.2269 12.5439 11.3649C12.4488 11.5029 12.386 11.6562 12.3594 11.8158C12.3329 11.9754 12.343 12.1381 12.3891 12.2942C12.4353 12.4504 12.5166 12.5968 12.6283 12.7249C12.74 12.8531 12.8798 12.9603 13.0395 13.0403C13.1991 13.1204 13.3754 13.1716 13.558 13.1909C13.5293 13.6284 13.5183 14.0621 13.516 14.4793C13.203 14.5317 12.9203 14.6777 12.716 14.8923C12.5117 15.1068 12.3984 15.3769 12.3954 15.6564C12.3924 15.936 12.4999 16.2078 12.6996 16.4258C12.8992 16.6437 13.1788 16.7942 13.4907 16.8518C13.5388 16.8606 13.5874 16.8671 13.6363 16.8712C13.7089 17.5388 13.8205 18.2028 13.9707 18.8604C13.8957 18.8604 13.8206 18.8604 13.75 18.8604H13.718L13.7644 17.9892C13.7683 17.9122 13.7372 17.8369 13.6779 17.78C13.6186 17.7231 13.536 17.6892 13.4482 17.6857C13.3604 17.6823 13.2746 17.7095 13.2097 17.7615C13.1448 17.8136 13.1062 17.886 13.1022 17.9631L13.0559 18.8342C12.3234 18.7776 11.6037 18.6303 10.9182 18.3967L11.3155 17.5991C11.3508 17.5285 11.3526 17.4485 11.3207 17.3767C11.2887 17.3049 11.2255 17.2472 11.145 17.2163C11.0645 17.1853 10.9733 17.1837 10.8915 17.2117C10.8096 17.2398 10.7438 17.2952 10.7085 17.3658L10.3113 18.1634C9.65114 17.8792 9.03969 17.5153 8.49476 17.0822L9.19002 16.4637C9.24813 16.4083 9.27944 16.3352 9.27735 16.26C9.27526 16.1847 9.23993 16.1131 9.17881 16.0603C9.1177 16.0074 9.03557 15.9774 8.94975 15.9767C8.86393 15.9759 8.78112 16.0044 8.71879 16.0561L8.02243 16.6727C7.52055 16.2013 7.09701 15.6701 6.76435 15.0949L7.66597 14.7358C7.74602 14.704 7.80838 14.6455 7.83932 14.5734C7.87026 14.5012 7.86725 14.4212 7.83096 14.351C7.79467 14.2808 7.72806 14.2261 7.64579 14.199C7.56353 14.1718 7.47234 14.1745 7.39229 14.2063L6.48956 14.5664C6.15328 13.84 5.9625 13.0682 5.92563 12.2849H6.91885C7.00666 12.2849 7.09087 12.2543 7.15296 12.1998C7.21504 12.1454 7.24993 12.0715 7.24993 11.9945C7.24993 11.9175 7.21504 11.8436 7.15296 11.7891C7.09087 11.7347 7.00666 11.7041 6.91885 11.7041ZM13.7975 11.3692C13.7066 11.7792 13.6403 12.1931 13.5988 12.6091C13.4243 12.5781 13.2692 12.491 13.1638 12.3651C13.0585 12.2391 13.0104 12.0832 13.029 11.9278C13.0476 11.7725 13.1316 11.6287 13.2645 11.5247C13.3974 11.4207 13.5697 11.3639 13.7478 11.3653C13.761 11.3653 13.7787 11.3682 13.7953 11.3692H13.7975ZM13.569 16.271C13.3948 16.227 13.2461 16.1268 13.1527 15.9905C13.0594 15.8542 13.0283 15.6919 13.0658 15.5363C13.0849 15.4555 13.1222 15.3787 13.1754 15.3106C13.2287 15.2425 13.2968 15.1843 13.3759 15.1395C13.4184 15.1161 13.4635 15.0966 13.5105 15.0814C13.5149 15.4889 13.5403 15.8848 13.5668 16.271H13.569ZM2.87203 8.33356C2.82503 8.4402 2.74574 8.53357 2.64272 8.60361C2.53969 8.67365 2.41682 8.71769 2.28736 8.731C2.1579 8.74431 2.02676 8.72638 1.90806 8.67914C1.78936 8.63191 1.6876 8.55715 1.61376 8.46293C1.53992 8.36872 1.4968 8.25861 1.48903 8.14448C1.48126 8.03036 1.50915 7.91653 1.56969 7.81528C1.63023 7.71403 1.72112 7.62919 1.83257 7.5699C1.94402 7.51061 2.07181 7.47913 2.20215 7.47883C2.29011 7.47919 2.37725 7.49363 2.45929 7.52143C2.54723 7.55092 2.62768 7.59534 2.69604 7.65214C2.76439 7.70894 2.81931 7.777 2.85764 7.85243C2.89598 7.92786 2.91698 8.00918 2.91945 8.09174C2.92192 8.1743 2.9058 8.25647 2.87203 8.33356Z" fill="#FA627D"/>
<path d="M22.0494 20.3278C22.0494 20.3663 22.0669 20.4033 22.0979 20.4305C22.129 20.4577 22.1711 20.473 22.215 20.473H24.1849C24.2288 20.473 24.2709 20.4577 24.3019 20.4305C24.333 20.4033 24.3504 20.3663 24.3504 20.3278V18.4887H26.4472C26.4911 18.4887 26.5332 18.4734 26.5642 18.4461C26.5953 18.4189 26.6127 18.382 26.6127 18.3435V16.6147C26.6127 16.5761 26.5953 16.5392 26.5642 16.512C26.5332 16.4848 26.4911 16.4695 26.4472 16.4695H24.3559V14.6303C24.3559 14.5918 24.3385 14.5549 24.3074 14.5276C24.2764 14.5004 24.2343 14.4851 24.1904 14.4851H22.215C22.1711 14.4851 22.129 14.5004 22.0979 14.5276C22.0669 14.5549 22.0494 14.5918 22.0494 14.6303V16.4695H19.9526C19.9087 16.4695 19.8666 16.4848 19.8356 16.512C19.8045 16.5392 19.7871 16.5761 19.7871 16.6147V18.3425C19.7871 18.381 19.8045 18.4179 19.8356 18.4452C19.8666 18.4724 19.9087 18.4877 19.9526 18.4877H22.0494V20.3278ZM20.1182 18.1983V16.7599H22.215C22.2589 16.7599 22.301 16.7446 22.332 16.7173C22.3631 16.6901 22.3805 16.6532 22.3805 16.6147V14.7755H24.0248V16.6147C24.0248 16.6532 24.0423 16.6901 24.0733 16.7173C24.1044 16.7446 24.1465 16.7599 24.1904 16.7599H26.2872V18.1973H24.1904C24.1465 18.1973 24.1044 18.2126 24.0733 18.2398C24.0423 18.2671 24.0248 18.304 24.0248 18.3425V20.1816H22.3805V18.3425C22.3805 18.304 22.3631 18.2671 22.332 18.2398C22.301 18.2126 22.2589 18.1973 22.215 18.1973L20.1182 18.1983Z" fill="#FA627D"/>
<path d="M23.1987 25.5704C25.2017 25.5704 29.8964 22.2009 29.8964 15.665C29.8964 14.6758 29.8456 13.5355 29.4649 12.5839C29.4544 12.5579 29.4359 12.5351 29.4113 12.5179C29.3867 12.5008 29.357 12.4901 29.3258 12.4871C27.0083 12.2761 24.8707 11.4485 23.3124 10.1572C23.2818 10.1315 23.2411 10.1172 23.1987 10.1172C23.1564 10.1172 23.1157 10.1315 23.0851 10.1572C21.5257 11.4495 19.3881 12.2781 17.0706 12.4881C17.0393 12.4911 17.0097 12.5018 16.9851 12.5189C16.9605 12.536 16.9419 12.5589 16.9315 12.5849C16.5508 13.5374 16.5 14.6767 16.5 15.666C16.5 22.2009 21.1946 25.5704 23.1987 25.5704ZM16.8311 15.666C16.8311 14.7319 16.8774 13.6623 17.2107 12.7679C19.505 12.5404 21.625 11.7253 23.1987 10.4621C24.7746 11.7253 26.8913 12.5404 29.1857 12.7679C29.5167 13.6623 29.5653 14.7319 29.5653 15.666C29.5653 19.1682 28.2101 21.5088 27.0734 22.8552C25.6652 24.5221 24.0783 25.281 23.1987 25.281C22.3192 25.281 20.7311 24.5221 19.323 22.8552C18.1863 21.5078 16.8311 19.1672 16.8311 15.666Z" fill="#FA627D"/>
</svg>
