<svg width="40" height="37" viewBox="0 0 40 37" fill="none" xmlns="http://www.w3.org/2000/svg">
<path fill-rule="evenodd" clip-rule="evenodd" d="M25.4658 24.0244C25.6923 23.8105 25.9612 23.6408 26.2573 23.525C26.5533 23.4092 26.8707 23.3496 27.1912 23.3496C27.5117 23.3496 27.829 23.4092 28.1251 23.525C28.4212 23.6408 28.6901 23.8105 28.9166 24.0244L38.3059 32.882C38.7635 33.3134 39.0208 33.8986 39.021 34.5089C39.0212 35.1192 38.7644 35.7046 38.3072 36.1363C37.8499 36.568 37.2295 36.8107 36.5826 36.8109C35.9356 36.8111 35.3151 36.5689 34.8575 36.1375L25.4682 27.2798C25.2414 27.0662 25.0616 26.8124 24.9388 26.5331C24.8161 26.2538 24.7529 25.9545 24.7529 25.6521C24.7529 25.3498 24.8161 25.0504 24.9388 24.7711C25.0616 24.4918 25.2414 24.238 25.4682 24.0244H25.4658Z" fill="#BDBDBD"/>
<path fill-rule="evenodd" clip-rule="evenodd" d="M15.8521 27.6082C17.6136 27.6082 19.3578 27.2809 20.9851 26.645C22.6125 26.0091 24.0912 25.077 25.3367 23.902C26.5823 22.727 27.5703 21.3321 28.2444 19.7969C28.9185 18.2616 29.2654 16.6162 29.2654 14.9545C29.2654 13.2927 28.9185 11.6473 28.2444 10.1121C27.5703 8.57684 26.5823 7.1819 25.3367 6.00689C24.0912 4.83188 22.6125 3.89981 20.9851 3.2639C19.3578 2.62799 17.6136 2.30069 15.8521 2.30069C12.2947 2.30069 8.88293 3.63385 6.36745 6.00689C3.85197 8.37993 2.43878 11.5985 2.43878 14.9545C2.43878 18.3104 3.85197 21.529 6.36745 23.902C8.88293 26.2751 12.2947 27.6082 15.8521 27.6082ZM31.7042 14.9545C31.7042 18.9206 30.0341 22.7244 27.0612 25.5289C24.0884 28.3334 20.0563 29.9089 15.8521 29.9089C11.6479 29.9089 7.61581 28.3334 4.64297 25.5289C1.67013 22.7244 0 18.9206 0 14.9545C0 10.9883 1.67013 7.18457 4.64297 4.38006C7.61581 1.57555 11.6479 0 15.8521 0C20.0563 0 24.0884 1.57555 27.0612 4.38006C30.0341 7.18457 31.7042 10.9883 31.7042 14.9545Z" fill="#BDBDBD"/>
</svg>
