<svg width="12" height="12" viewBox="0 0 12 12" fill="none" xmlns="http://www.w3.org/2000/svg">
<path d="M11.25 1.25H1.25V11.25H11.25V1.25Z" stroke="#748494" stroke-miterlimit="10" stroke-linecap="square"/>
<mask id="path-2-inside-1" fill="white">
<path d="M6.25 9.75C6.52614 9.75 6.75 9.52614 6.75 9.25C6.75 8.97386 6.52614 8.75 6.25 8.75C5.97386 8.75 5.75 8.97386 5.75 9.25C5.75 9.52614 5.97386 9.75 6.25 9.75Z"/>
</mask>
<path d="M6.25 9.75C6.52614 9.75 6.75 9.52614 6.75 9.25C6.75 8.97386 6.52614 8.75 6.25 8.75C5.97386 8.75 5.75 8.97386 5.75 9.25C5.75 9.52614 5.97386 9.75 6.25 9.75Z" fill="#748494"/>
<path d="M5.75 9.25C5.75 8.97386 5.97386 8.75 6.25 8.75V10.75C7.07843 10.75 7.75 10.0784 7.75 9.25H5.75ZM6.25 8.75C6.52614 8.75 6.75 8.97386 6.75 9.25H4.75C4.75 10.0784 5.42157 10.75 6.25 10.75V8.75ZM6.75 9.25C6.75 9.52614 6.52614 9.75 6.25 9.75V7.75C5.42157 7.75 4.75 8.42157 4.75 9.25H6.75ZM6.25 9.75C5.97386 9.75 5.75 9.52614 5.75 9.25H7.75C7.75 8.42157 7.07843 7.75 6.25 7.75V9.75Z" fill="#748494" mask="url(#path-2-inside-1)"/>
<path d="M5.17627 3.53001C6.16627 3.09251 7.44727 3.14451 7.88477 3.85251C8.32227 4.56051 8.02027 5.38401 7.27027 6.01951C6.52027 6.65501 6.24977 7.00001 6.24977 7.50001" stroke="#748494" stroke-miterlimit="10" stroke-linecap="square"/>
</svg>
