<svg width="30" height="30" viewBox="0 0 30 30" fill="none" xmlns="http://www.w3.org/2000/svg">
<path d="M27.5 4.99996C23.5537 4.99996 18.9187 3.61121 15.6937 1.45996C15.2737 1.17871 14.7275 1.17871 14.3075 1.45996C11.0812 3.61121 6.44625 4.99996 2.5 4.99996C1.81 4.99996 1.25 5.55871 1.25 6.24996C1.25 16.7175 6.20625 25.0912 14.5075 28.6487C14.665 28.7162 14.8325 28.75 15 28.75C15.1675 28.75 15.335 28.7162 15.4925 28.6487C23.7937 25.0912 28.75 16.7175 28.75 6.24996C28.75 5.55871 28.19 4.99996 27.5 4.99996ZM15 26.1312V15H5.17625C4.36375 12.7 3.88375 10.1662 3.775 7.45871C7.5925 7.21496 11.8025 5.91496 15 3.98121V15H24.8237C23.0362 20.0562 19.6362 23.9825 15 26.1312Z" fill="#494949"/>
</svg>
