<svg width="31" height="32" viewBox="0 0 31 32" fill="none" xmlns="http://www.w3.org/2000/svg">
<path d="M12.6033 16.2658C12.5288 16.3139 12.4646 16.3764 12.4144 16.4496C12.3642 16.5228 12.3291 16.6053 12.3111 16.6922C12.2757 16.8593 12.305 17.0336 12.393 17.1801C12.481 17.3265 12.6211 17.4342 12.7853 17.4815C12.7562 17.0655 12.7364 16.6412 12.7302 16.2034C12.6858 16.2197 12.6433 16.2406 12.6033 16.2658Z" fill="#F15C20"/>
<path d="M2.31552 8.08501C2.23234 8.05235 2.14346 8.03672 2.05414 8.03904C1.96482 8.04137 1.87687 8.06159 1.79551 8.09853C1.65259 8.1624 1.53622 8.27383 1.4662 8.41384C1.39619 8.55386 1.37686 8.71381 1.4115 8.86648C1.44614 9.01914 1.53262 9.15508 1.65621 9.25117C1.7798 9.34725 1.93287 9.39754 2.08936 9.39347C2.24585 9.3894 2.3961 9.33122 2.51453 9.22885C2.63296 9.12647 2.71225 8.98622 2.73891 8.83196C2.76558 8.6777 2.73796 8.51897 2.66076 8.38278C2.58357 8.2466 2.46156 8.14137 2.31552 8.08501Z" fill="#F15C20"/>
<path d="M12.4484 12.4345C12.3688 12.5227 12.314 12.6303 12.2893 12.7464C12.2646 12.8625 12.271 12.9831 12.3078 13.096C12.3446 13.2089 12.4106 13.31 12.499 13.3893C12.5874 13.4685 12.6951 13.523 12.8113 13.5473C12.8504 13.1003 12.9129 12.6556 12.9985 12.2151C12.9829 12.2151 12.9673 12.2151 12.9517 12.2151C12.8572 12.2146 12.7635 12.2339 12.6769 12.2717C12.5902 12.3095 12.5124 12.3649 12.4484 12.4345Z" fill="#F15C20"/>
<path d="M6.5203 13.1989H5.58429C5.61903 14.0405 5.79882 14.8698 6.11573 15.6502L6.96646 15.2633C7.0419 15.2291 7.12784 15.2263 7.20536 15.2555C7.28289 15.2846 7.34566 15.3434 7.37986 15.4188C7.41407 15.4943 7.4169 15.5802 7.38774 15.6577C7.35858 15.7353 7.29982 15.798 7.22438 15.8322L6.3747 16.2181C6.68819 16.8361 7.08733 17.4068 7.5603 17.9133L8.21447 17.2498C8.27321 17.1942 8.35125 17.1635 8.43213 17.1644C8.513 17.1652 8.5904 17.1974 8.64799 17.2542C8.70559 17.311 8.73888 17.3879 8.74085 17.4688C8.74282 17.5496 8.71331 17.6281 8.65855 17.6876L8.00335 18.3522C8.51689 18.8175 9.09311 19.2085 9.7152 19.5139L10.0896 18.6569C10.1228 18.581 10.1848 18.5215 10.262 18.4914C10.3391 18.4612 10.4251 18.463 10.5009 18.4962C10.5768 18.5294 10.6363 18.5914 10.6665 18.6686C10.6966 18.7457 10.6948 18.8317 10.6616 18.9075L10.2872 19.7645C10.9332 20.0154 11.6114 20.1737 12.3017 20.2346L12.3454 19.2986C12.3491 19.2158 12.3855 19.1379 12.4467 19.0821C12.5078 19.0262 12.5887 18.9969 12.6714 19.0006C12.7542 19.0043 12.8321 19.0408 12.8879 19.1019C12.9438 19.1631 12.9731 19.2439 12.9694 19.3267L12.9257 20.2627H12.9559C13.0266 20.2627 13.0973 20.2627 13.1639 20.2627C13.0189 19.5573 12.9103 18.845 12.8383 18.1286C12.7922 18.1242 12.7464 18.1172 12.7011 18.1078C12.4071 18.0459 12.1437 17.8841 11.9555 17.65C11.7674 17.4159 11.6661 17.1238 11.6689 16.8234C11.6717 16.5231 11.7785 16.233 11.971 16.0024C12.1635 15.7718 12.4299 15.615 12.725 15.5587C12.725 15.1105 12.7375 14.6445 12.7645 14.1745C12.5925 14.1537 12.4263 14.0987 12.2759 14.0127C12.1254 13.9267 11.9937 13.8115 11.8884 13.6738C11.7831 13.5361 11.7065 13.3788 11.663 13.2111C11.6195 13.0433 11.61 12.8686 11.635 12.6971C11.6601 12.5256 11.7192 12.3609 11.8089 12.2126C11.8985 12.0643 12.017 11.9355 12.1572 11.8337C12.2975 11.7319 12.4567 11.6592 12.6254 11.6198C12.7942 11.5805 12.9691 11.5753 13.1399 11.6046C13.1919 11.4143 13.2439 11.2271 13.3126 11.0451C13.332 10.9891 13.367 10.9398 13.4134 10.903C13.4598 10.8661 13.5157 10.8433 13.5747 10.8371C14.0855 10.7829 14.5934 10.7031 15.0962 10.5979C15.1192 10.4983 15.1541 10.402 15.2002 10.3108C15.277 10.1584 15.3833 10.0228 15.5129 9.91176C15.6425 9.80072 15.7929 9.71649 15.9552 9.66394C16.1809 9.59031 16.4225 9.57967 16.6537 9.63319C16.885 9.6867 17.0973 9.80234 17.2677 9.96762C17.5645 9.85599 17.8557 9.73535 18.1413 9.6057C18.1037 9.57462 18.0738 9.53513 18.0542 9.49041C18.0346 9.44569 18.0257 9.39699 18.0284 9.34823C18.031 9.29947 18.045 9.252 18.0694 9.20966C18.0937 9.16731 18.1276 9.13126 18.1684 9.10441L18.9484 8.59377C18.5441 8.03112 18.0631 7.52774 17.5194 7.09824L16.9745 7.85432C16.9454 7.89441 16.9073 7.92701 16.8631 7.94943C16.819 7.97185 16.7702 7.98346 16.7207 7.98328C16.6553 7.98308 16.5917 7.96235 16.5387 7.924C16.5055 7.89997 16.4774 7.86963 16.4559 7.83473C16.4344 7.79982 16.4201 7.76102 16.4136 7.72056C16.4071 7.68009 16.4087 7.63875 16.4182 7.59889C16.4277 7.55902 16.445 7.52143 16.469 7.48824L17.015 6.73216C16.4362 6.34846 15.8059 6.04873 15.143 5.84191L14.9059 6.7436C14.8883 6.80993 14.8493 6.8686 14.7949 6.91053C14.7406 6.95246 14.674 6.9753 14.6053 6.97552C14.578 6.97514 14.5508 6.97165 14.5242 6.96512C14.4846 6.95461 14.4474 6.9364 14.4149 6.91152C14.3823 6.88665 14.3549 6.85561 14.3344 6.82016C14.3138 6.78472 14.3004 6.74557 14.295 6.70495C14.2895 6.66433 14.2922 6.62304 14.3027 6.58343L14.5429 5.67863C14.0212 5.56269 13.4883 5.5041 12.9538 5.50391C12.7947 5.50391 12.6366 5.51119 12.4795 5.52055L12.5835 6.45655C12.5923 6.53873 12.5681 6.62103 12.5162 6.68537C12.4643 6.74972 12.3891 6.79085 12.3069 6.79976H12.2726C12.1953 6.8002 12.1206 6.77193 12.0629 6.72044C12.0053 6.66894 11.9688 6.59789 11.9606 6.52103L11.8566 5.58503C11.171 5.68753 10.5036 5.88713 9.87432 6.17783L10.2997 7.00984C10.3362 7.08306 10.3425 7.16769 10.3172 7.2455C10.2919 7.32331 10.2371 7.38807 10.1645 7.42584C10.1203 7.44817 10.0715 7.45992 10.022 7.46016C9.9645 7.46008 9.90813 7.44411 9.85912 7.41401C9.81012 7.38392 9.77039 7.34086 9.74432 7.2896L9.31896 6.45759C8.71651 6.79965 8.16512 7.22466 7.68095 7.72016L8.37359 8.34417C8.40667 8.37071 8.434 8.40372 8.45389 8.44118C8.47378 8.47864 8.48583 8.51976 8.48929 8.56204C8.49276 8.60431 8.48757 8.64684 8.47404 8.68704C8.46051 8.72724 8.43893 8.76426 8.41061 8.79584C8.38229 8.82741 8.34783 8.85288 8.30933 8.87069C8.27084 8.8885 8.22912 8.89827 8.18672 8.89941C8.14432 8.90055 8.10213 8.89303 8.06274 8.87732C8.02334 8.8616 7.98756 8.83802 7.95759 8.80801L7.2639 8.18401C6.82191 8.71947 6.45778 9.31469 6.18229 9.95202L7.0559 10.2869C7.12393 10.3131 7.18066 10.3622 7.21623 10.4259C7.25179 10.4895 7.26396 10.5636 7.25062 10.6352C7.23728 10.7069 7.19926 10.7716 7.14318 10.8182C7.08709 10.8647 7.01647 10.8902 6.94358 10.8901C6.9055 10.8903 6.86774 10.8832 6.8323 10.8693L5.95869 10.5344C5.73777 11.1934 5.61171 11.8804 5.58429 12.5749H6.5203C6.60304 12.5749 6.6824 12.6078 6.74092 12.6663C6.79943 12.7248 6.8323 12.8042 6.8323 12.8869C6.8323 12.9697 6.79943 13.049 6.74092 13.1075C6.6824 13.1661 6.60304 13.1989 6.5203 13.1989ZM11.6652 8.67177C11.7161 8.43166 11.8339 8.21085 12.005 8.03488C12.1761 7.85892 12.3935 7.73498 12.6321 7.6774C12.8706 7.61983 13.1207 7.63097 13.3532 7.70954C13.5857 7.78811 13.7912 7.93089 13.946 8.12138C14.1008 8.31187 14.1984 8.54229 14.2277 8.78597C14.257 9.02965 14.2167 9.27665 14.1115 9.49839C14.0063 9.72013 13.8405 9.90756 13.6332 10.039C13.4259 10.1704 13.1857 10.2405 12.9403 10.2411C12.8487 10.241 12.7574 10.2316 12.6678 10.2131C12.5007 10.1777 12.3423 10.1098 12.2015 10.0132C12.0607 9.91659 11.9403 9.79321 11.8472 9.65008C11.7541 9.50696 11.6901 9.34689 11.6589 9.17903C11.6277 9.01117 11.6298 8.8388 11.6652 8.67177ZM10.7063 15.4651C10.6293 15.6175 10.5228 15.7532 10.393 15.8642C10.2632 15.9752 10.1128 16.0595 9.95024 16.112C9.62255 16.2184 9.26605 16.1905 8.95884 16.0346C8.65163 15.8786 8.41874 15.6073 8.31119 15.28C8.20417 14.952 8.23181 14.595 8.38804 14.2874C8.54427 13.9798 8.81628 13.7469 9.14424 13.6399C9.47219 13.5329 9.82924 13.5605 10.1368 13.7167C10.4444 13.873 10.6773 14.145 10.7843 14.4729C10.8376 14.6353 10.8579 14.8067 10.8441 14.9771C10.8304 15.1474 10.7828 15.3133 10.7042 15.4651H10.7063ZM8.56287 10.0571C8.67657 9.9297 8.81424 9.82598 8.96802 9.75182C9.1218 9.67767 9.28869 9.63453 9.45914 9.62487C9.62959 9.61521 9.80028 9.63923 9.96145 9.69554C10.1226 9.75185 10.2711 9.83935 10.3985 9.95306C10.6544 10.184 10.8084 10.507 10.8267 10.8512C10.845 11.1954 10.7262 11.5329 10.4962 11.7897C10.3825 11.917 10.2446 12.0205 10.0905 12.094C9.93641 12.1676 9.76925 12.2098 9.59872 12.2182C9.5748 12.2182 9.55088 12.2182 9.528 12.2182C9.27684 12.2182 9.03107 12.1454 8.82044 12.0086C8.60981 11.8718 8.44335 11.6769 8.34122 11.4474C8.2391 11.218 8.20568 10.9638 8.24502 10.7158C8.28436 10.4677 8.39476 10.2364 8.56287 10.0498V10.0571Z" fill="white"/>
<path d="M21.8636 27.1607C22.6956 27.1607 24.188 26.3454 25.515 24.5545C26.5863 23.1078 27.8634 20.5931 27.8634 16.8303C27.8634 15.8267 27.8207 14.6775 27.5056 13.7166C25.3434 13.4722 23.3456 12.5965 21.8636 11.2393C20.3774 12.5965 18.3827 13.4722 16.2205 13.7166C15.9085 14.6775 15.8627 15.8267 15.8627 16.8303C15.8627 20.5931 17.1399 23.1078 18.2111 24.5545C19.5381 26.3454 21.0337 27.1607 21.8636 27.1607ZM18.6468 19.707V17.8506C18.6468 17.8092 18.6633 17.7695 18.6925 17.7403C18.7218 17.711 18.7615 17.6946 18.8028 17.6946H20.7788V15.7186C20.7788 15.6772 20.7953 15.6375 20.8245 15.6083C20.8538 15.579 20.8935 15.5626 20.9349 15.5626H22.7913C22.8326 15.5626 22.8723 15.579 22.9016 15.6083C22.9308 15.6375 22.9473 15.6772 22.9473 15.7186V17.6946H24.9233C24.9647 17.6946 25.0043 17.711 25.0336 17.7403C25.0628 17.7695 25.0793 17.8092 25.0793 17.8506V19.707C25.0793 19.7484 25.0628 19.7881 25.0336 19.8173C25.0043 19.8466 24.9647 19.863 24.9233 19.863H22.9525V21.839C22.9525 21.8804 22.936 21.9201 22.9068 21.9493C22.8775 21.9786 22.8378 21.995 22.7965 21.995H20.9349C20.8935 21.995 20.8538 21.9786 20.8245 21.9493C20.7953 21.9201 20.7788 21.8804 20.7788 21.839V19.863H18.8028C18.7615 19.863 18.7218 19.8466 18.6925 19.8173C18.6633 19.7881 18.6468 19.7484 18.6468 19.707Z" fill="white"/>
<path d="M16.1518 10.2547C16.0562 10.2865 15.9688 10.3391 15.8959 10.4086C16.0956 10.3546 16.2936 10.297 16.4898 10.236C16.4474 10.2269 16.4042 10.2221 16.3608 10.2214C16.2899 10.2219 16.2194 10.2331 16.1518 10.2547Z" fill="#F15C20"/>
<path d="M12.7957 9.60237C12.9489 9.63479 13.1087 9.61308 13.2477 9.54093C13.3867 9.46879 13.4964 9.35067 13.5581 9.20671C13.6198 9.06275 13.6297 8.90184 13.5861 8.75141C13.5425 8.60098 13.448 8.47033 13.3189 8.38172C13.1897 8.2931 13.0339 8.25201 12.8778 8.26543C12.7217 8.27886 12.5752 8.34598 12.4631 8.45535C12.3509 8.56472 12.2802 8.70958 12.2629 8.86526C12.2456 9.02093 12.2829 9.17778 12.3682 9.30908C12.4167 9.38373 12.4793 9.44806 12.5527 9.4984C12.626 9.54873 12.7086 9.58406 12.7957 9.60237Z" fill="#F15C20"/>
<path d="M12.3859 1.23144C12.3682 1.06558 12.2898 0.912121 12.1658 0.800577C12.0418 0.689033 11.8809 0.627281 11.7141 0.627197C11.6902 0.627197 11.6662 0.627197 11.6423 0.627197C11.5095 0.641232 11.3838 0.694305 11.2811 0.779715C11.1784 0.865125 11.1033 0.979045 11.0653 1.10709C11.0273 1.23514 11.0281 1.37158 11.0675 1.49919C11.107 1.6268 11.1834 1.73986 11.287 1.8241C11.3907 1.90833 11.517 1.95997 11.65 1.97249C11.783 1.98501 11.9167 1.95785 12.0342 1.89445C12.1518 1.83104 12.248 1.73423 12.3106 1.61623C12.3731 1.49823 12.3994 1.36434 12.3859 1.23144Z" fill="#F15C20"/>
<path d="M9.0756 11.4328C9.2092 11.5521 9.38459 11.6137 9.56347 11.6042C9.74236 11.5947 9.91019 11.5147 10.0303 11.3818C10.1173 11.2846 10.1744 11.1642 10.1946 11.0353C10.2148 10.9064 10.1973 10.7743 10.1442 10.6551C10.0911 10.5359 10.0047 10.4345 9.89542 10.3633C9.7861 10.292 9.6585 10.2539 9.528 10.2534H9.4916C9.35797 10.2604 9.22942 10.3069 9.12224 10.387C9.01506 10.4671 8.93406 10.5773 8.88951 10.7035C8.84496 10.8296 8.83887 10.9662 8.87199 11.0958C8.90512 11.2255 8.97598 11.3424 9.0756 11.4317V11.4328Z" fill="#F15C20"/>
<path d="M13.35 15.8156C13.35 21.1852 15.1711 24.7721 16.6999 26.8397C18.5823 29.3825 20.6967 30.54 21.8635 30.54C23.0304 30.54 25.1437 29.3825 27.0261 26.8397C28.555 24.7763 30.376 21.1893 30.376 15.8156C30.376 14.4022 30.3157 12.7881 29.8841 11.433C26.8171 11.0763 23.9872 9.83555 21.8635 7.9209C19.7388 9.83555 16.9089 11.0763 13.842 11.433C13.4104 12.7881 13.35 14.4022 13.35 15.8156ZM15.9573 13.5203C15.9672 13.4924 15.9847 13.4678 16.0079 13.4494C16.031 13.431 16.059 13.4195 16.0884 13.4163C18.2724 13.1896 20.2869 12.3004 21.7564 10.913C21.7853 10.8854 21.8236 10.87 21.8635 10.87C21.9035 10.87 21.9418 10.8854 21.9707 10.913C23.4392 12.3014 25.4484 13.1917 27.6377 13.4173C27.6671 13.4206 27.695 13.432 27.7182 13.4504C27.7414 13.4688 27.7589 13.4934 27.7687 13.5213C28.1275 14.5457 28.1753 15.7688 28.1753 16.8317C28.1753 23.8538 23.7512 27.4741 21.8635 27.4741C19.9759 27.4741 15.5507 23.8538 15.5507 16.8317C15.5507 15.7678 15.5985 14.5437 15.9573 13.5203Z" fill="#F15C20"/>
<path d="M21.0908 19.7072V21.6832H22.6404V19.7072C22.6404 19.6658 22.6569 19.6261 22.6861 19.5969C22.7154 19.5676 22.7551 19.5512 22.7964 19.5512H24.7724V18.0068H22.7964C22.7551 18.0068 22.7154 17.9903 22.6861 17.9611C22.6569 17.9318 22.6404 17.8921 22.6404 17.8508V15.8748H21.0908V17.8508C21.0908 17.8921 21.0744 17.9318 21.0451 17.9611C21.0159 17.9903 20.9762 18.0068 20.9348 18.0068H18.9588V19.5512H20.9348C20.9762 19.5512 21.0159 19.5676 21.0451 19.5969C21.0744 19.6261 21.0908 19.6658 21.0908 19.7072Z" fill="#F15C20"/>
<path d="M9.54571 14.1992C9.47504 14.1991 9.40481 14.2103 9.3377 14.2325C9.17621 14.2852 9.04052 14.3968 8.95771 14.5451C8.8749 14.6934 8.85106 14.8675 8.89094 15.0327C8.93082 15.1978 9.0315 15.3418 9.17287 15.4359C9.31425 15.5301 9.48594 15.5675 9.65367 15.5407C9.82141 15.5138 9.97286 15.4247 10.0778 15.2912C10.1827 15.1576 10.2335 14.9894 10.2198 14.82C10.2062 14.6507 10.1292 14.4928 10.0043 14.3777C9.87932 14.2626 9.71557 14.1989 9.54571 14.1992Z" fill="#F15C20"/>
<path d="M2.34365 17.0293C2.18511 17.0291 2.03155 17.0846 1.90981 17.1862C1.78806 17.2877 1.70588 17.4288 1.67763 17.5848C1.64938 17.7408 1.67686 17.9018 1.75526 18.0396C1.83366 18.1774 1.95799 18.2833 2.10653 18.3387C2.23179 18.3855 2.3681 18.3941 2.49827 18.3635C2.62844 18.3329 2.74664 18.2645 2.83796 18.1668C2.92929 18.0692 2.98965 17.9467 3.01143 17.8147C3.03322 17.6828 3.01545 17.5474 2.96038 17.4255C2.90636 17.3073 2.81951 17.2071 2.71017 17.1369C2.60083 17.0666 2.47361 17.0293 2.34365 17.0293Z" fill="#F15C20"/>
<path d="M1.30155 13.5627C1.6749 13.5627 1.97756 13.26 1.97756 12.8867C1.97756 12.5134 1.6749 12.2107 1.30155 12.2107C0.928207 12.2107 0.625549 12.5134 0.625549 12.8867C0.625549 13.26 0.928207 13.5627 1.30155 13.5627Z" fill="#F15C20"/>
<path d="M22.1391 6.87871C22.2373 7.02876 22.3911 7.13366 22.5667 7.17033C22.7422 7.207 22.9251 7.17243 23.0752 7.07424C23.2252 6.97604 23.3301 6.82226 23.3668 6.64673C23.4034 6.47119 23.3689 6.28828 23.2707 6.13823C23.2221 6.06392 23.1593 5.99991 23.0859 5.94986C23.0126 5.89982 22.9301 5.86472 22.8432 5.84656C22.7563 5.8284 22.6666 5.82755 22.5794 5.84404C22.4921 5.86054 22.409 5.89407 22.3347 5.94271C22.1846 6.0409 22.0797 6.19459 22.0428 6.37006C22.006 6.54554 22.0402 6.72847 22.1381 6.87871H22.1391Z" fill="#F15C20"/>
<path d="M7.64767 1.83547C7.53927 1.83483 7.43229 1.86014 7.33567 1.90931C7.25659 1.94973 7.18625 2.00534 7.12867 2.07295C7.07108 2.14056 7.02737 2.21885 7.00004 2.30335C6.97271 2.38786 6.96229 2.47691 6.96938 2.56544C6.97647 2.65397 7.00092 2.74024 7.04135 2.81931C7.08178 2.89839 7.13738 2.96873 7.20499 3.02632C7.2726 3.08391 7.3509 3.12761 7.4354 3.15494C7.5199 3.18227 7.60896 3.19269 7.69749 3.1856C7.78601 3.17852 7.87228 3.15406 7.95136 3.11364C8.08696 3.04446 8.19525 2.93154 8.25869 2.79316C8.32213 2.65478 8.337 2.49904 8.3009 2.35115C8.2648 2.20326 8.17984 2.07189 8.05978 1.9783C7.93972 1.88471 7.79158 1.83438 7.63936 1.83547H7.64767Z" fill="#F15C20"/>
<path d="M12.4141 23.8506C12.282 23.8509 12.153 23.89 12.0429 23.963C11.9329 24.0359 11.8466 24.1396 11.7949 24.2611C11.7431 24.3826 11.7282 24.5165 11.7518 24.6465C11.7755 24.7764 11.8367 24.8965 11.928 24.9919C12.0192 25.0874 12.1364 25.154 12.2651 25.1835C12.3939 25.213 12.5284 25.204 12.6521 25.1578C12.7758 25.1116 12.8832 25.0301 12.9611 24.9235C13.0389 24.8168 13.0838 24.6897 13.0901 24.5578C13.0977 24.3787 13.0342 24.2038 12.9134 24.0713C12.7926 23.9388 12.6243 23.8595 12.4453 23.8506H12.4141Z" fill="#F15C20"/>
<path d="M4.73875 4.59501C4.61497 4.48338 4.45407 4.42184 4.28739 4.42237H4.25099C4.09481 4.43083 3.94639 4.4932 3.83104 4.59883C3.71568 4.70446 3.64053 4.84683 3.61838 5.00166C3.59624 5.1565 3.62847 5.31423 3.70958 5.44796C3.7907 5.5817 3.91568 5.68316 4.06323 5.73507C4.21078 5.78698 4.37176 5.78612 4.51874 5.73263C4.66573 5.67915 4.78961 5.57635 4.86929 5.44175C4.94897 5.30715 4.97951 5.14909 4.95571 4.9945C4.93191 4.83991 4.85523 4.69836 4.73875 4.59397V4.59501Z" fill="#F15C20"/>
<path d="M15.7702 2.27774C15.9216 2.31621 16.0817 2.30101 16.2233 2.23473C16.3648 2.16845 16.479 2.05519 16.5464 1.9142C16.6138 1.77322 16.6303 1.61323 16.5931 1.46146C16.5559 1.30969 16.4672 1.1755 16.3422 1.08173C16.2171 0.987969 16.0635 0.940415 15.9074 0.947164C15.7512 0.953913 15.6023 1.01455 15.4858 1.11875C15.3693 1.22296 15.2926 1.36429 15.2686 1.51871C15.2446 1.67314 15.2748 1.8311 15.3542 1.96574C15.3992 2.04285 15.4592 2.11018 15.5306 2.16376C15.6021 2.21734 15.6835 2.2561 15.7702 2.27774Z" fill="#F15C20"/>
<path d="M19.38 3.98836C19.4885 4.0671 19.6179 4.11188 19.7518 4.11702C19.8857 4.12216 20.0182 4.08743 20.1324 4.01724C20.2465 3.94704 20.3373 3.84453 20.3932 3.7227C20.4491 3.60087 20.4675 3.4652 20.4462 3.33287C20.4249 3.20055 20.3648 3.07752 20.2735 2.97938C20.1823 2.88123 20.0639 2.81239 19.9335 2.78157C19.803 2.75075 19.6664 2.75934 19.5408 2.80625C19.4153 2.85316 19.3065 2.93628 19.2282 3.04508C19.1239 3.19052 19.0813 3.3713 19.1098 3.548C19.1382 3.72471 19.2353 3.883 19.38 3.98836Z" fill="#F15C20"/>
<path d="M4.77201 20.5081C4.59273 20.5081 4.42078 20.5793 4.29401 20.7061C4.16723 20.8328 4.09601 21.0048 4.09601 21.1841C4.09601 21.3633 4.16723 21.5353 4.29401 21.6621C4.42078 21.7888 4.59273 21.8601 4.77201 21.8601C4.9513 21.8601 5.12325 21.7888 5.25002 21.6621C5.3768 21.5353 5.44802 21.3633 5.44802 21.1841C5.44802 21.0048 5.3768 20.8328 5.25002 20.7061C5.12325 20.5793 4.9513 20.5081 4.77201 20.5081Z" fill="#F15C20"/>
<path d="M8.55459 22.9429C8.43203 22.8891 8.29627 22.873 8.16451 22.8965C8.03276 22.92 7.91094 22.982 7.81449 23.0748C7.71803 23.1676 7.65129 23.2869 7.62271 23.4176C7.59413 23.5484 7.605 23.6847 7.65395 23.8092C7.69458 23.9126 7.76007 24.0044 7.84463 24.0765C7.9292 24.1486 8.03022 24.1987 8.13876 24.2224C8.2473 24.2461 8.36002 24.2427 8.46694 24.2125C8.57386 24.1823 8.67168 24.1262 8.75176 24.0492C8.83183 23.9722 8.89169 23.8766 8.92603 23.7709C8.96037 23.6653 8.96813 23.5528 8.94864 23.4434C8.92915 23.334 8.88299 23.2311 8.81426 23.1438C8.74553 23.0565 8.65635 22.9875 8.55459 22.9429Z" fill="#F15C20"/>
<path d="M8.65853 11.8967C8.89621 12.1117 9.20545 12.2303 9.52589 12.2295C9.54878 12.2295 9.5727 12.2295 9.59662 12.2295C9.76715 12.2211 9.93431 12.1789 10.0884 12.1054C10.2425 12.0318 10.3804 11.9284 10.4941 11.801C10.6664 11.6096 10.7779 11.3713 10.8145 11.1164C10.8511 10.8614 10.8111 10.6014 10.6997 10.3692C10.5883 10.137 10.4104 9.94314 10.1887 9.81219C9.96692 9.68124 9.71126 9.61911 9.45414 9.63367C9.19737 9.64735 8.95042 9.73686 8.74452 9.8909C8.53863 10.0449 8.38304 10.2566 8.29743 10.499C8.21182 10.7415 8.20004 11.0039 8.26358 11.2531C8.32711 11.5022 8.46311 11.7269 8.65437 11.8988L8.65853 11.8967ZM9.02461 10.4782C9.08375 10.4118 9.15549 10.3579 9.23565 10.3195C9.31582 10.2811 9.40281 10.259 9.49158 10.2546H9.52798C9.68307 10.2545 9.83349 10.3077 9.95408 10.4052C10.0747 10.5027 10.1581 10.6387 10.1905 10.7904C10.2228 10.9421 10.2021 11.1003 10.1318 11.2385C10.0615 11.3767 9.94587 11.4867 9.80424 11.5499C9.66261 11.6131 9.50357 11.6257 9.35372 11.5857C9.20387 11.5458 9.0723 11.4555 8.981 11.3301C8.88971 11.2048 8.84422 11.0518 8.85216 10.8969C8.8601 10.7421 8.92098 10.5946 9.02461 10.4792V10.4782Z" fill="#F15C20"/>
<path d="M9.14323 13.6397C8.84934 13.7359 8.59936 13.9337 8.43816 14.1976C8.27697 14.4615 8.21512 14.7742 8.26372 15.0796C8.31232 15.385 8.46819 15.663 8.70334 15.8639C8.93849 16.0647 9.23752 16.1751 9.54675 16.1753C9.68305 16.1751 9.81848 16.1537 9.9482 16.1118C10.2724 16.0022 10.5403 15.7692 10.6938 15.4632C10.8472 15.1573 10.8739 14.8033 10.7679 14.4778C10.6619 14.1524 10.4319 13.8819 10.1278 13.725C9.82359 13.5681 9.46983 13.5375 9.14323 13.6397ZM9.75476 15.518C9.66939 15.5492 9.57861 15.5628 9.48786 15.5581C9.39711 15.5533 9.30824 15.5304 9.22657 15.4905C9.1449 15.4507 9.0721 15.3947 9.01252 15.3261C8.95295 15.2575 8.90782 15.1776 8.87984 15.0911C8.85186 15.0046 8.8416 14.9134 8.84967 14.8229C8.85774 14.7324 8.88398 14.6444 8.92682 14.5643C8.96966 14.4841 9.02822 14.4135 9.099 14.3565C9.16977 14.2995 9.25132 14.2573 9.33875 14.2325C9.40586 14.2104 9.47609 14.1992 9.54675 14.1993C9.70753 14.1996 9.86292 14.2573 9.98503 14.3619C10.1071 14.4664 10.188 14.6111 10.213 14.7699C10.2381 14.9288 10.2057 15.0913 10.1217 15.2284C10.0377 15.3655 9.90762 15.4682 9.75476 15.518Z" fill="#F15C20"/>
<path d="M12.6657 10.2128C12.7554 10.2314 12.8466 10.2408 12.9382 10.2409C13.2711 10.2399 13.591 10.1113 13.8318 9.8815C14.0727 9.6517 14.2163 9.33824 14.2329 9.00575C14.2495 8.67325 14.1379 8.34705 13.9211 8.09439C13.7043 7.84172 13.3989 7.68185 13.0677 7.64772C12.7366 7.61359 12.4049 7.70781 12.1412 7.91096C11.8775 8.1141 11.7017 8.41069 11.6501 8.73959C11.5986 9.06849 11.6752 9.40463 11.8641 9.67872C12.0531 9.95282 12.34 10.144 12.6657 10.2128ZM12.2736 8.80048C12.306 8.64717 12.3905 8.50984 12.5128 8.41188C12.6351 8.31392 12.7875 8.26141 12.9442 8.26329C13.1009 8.26517 13.252 8.32133 13.3719 8.42219C13.4918 8.52306 13.573 8.66238 13.6017 8.81642C13.6304 8.97045 13.6047 9.12966 13.5291 9.2669C13.4535 9.40415 13.3327 9.51093 13.1872 9.56904C13.0417 9.62715 12.8805 9.633 12.7312 9.58559C12.5819 9.53818 12.4536 9.44044 12.3683 9.30904C12.3196 9.23475 12.2862 9.15155 12.27 9.06425C12.2537 8.97695 12.255 8.88729 12.2736 8.80048Z" fill="#F15C20"/>
<path d="M2.56202 12.5749C2.48581 12.2667 2.29938 11.9969 2.03793 11.8167C1.77648 11.6364 1.4581 11.5581 1.14286 11.5965C0.827616 11.6349 0.537332 11.7873 0.326787 12.0251C0.116242 12.2628 0 12.5694 0 12.887C0 13.2045 0.116242 13.5111 0.326787 13.7488C0.537332 13.9866 0.827616 14.139 1.14286 14.1774C1.4581 14.2158 1.77648 14.1375 2.03793 13.9572C2.29938 13.777 2.48581 13.5072 2.56202 13.199H4.96028C4.99502 14.1298 5.19358 15.0473 5.54685 15.9092L3.36283 16.9003C3.16593 16.6522 2.88504 16.4848 2.57316 16.4296C2.26127 16.3743 1.93996 16.4351 1.66983 16.6005C1.3997 16.7659 1.19943 17.0244 1.10681 17.3273C1.01418 17.6302 1.0356 17.9565 1.16702 18.2447C1.29845 18.5329 1.53079 18.763 1.82022 18.8917C2.10965 19.0203 2.43615 19.0386 2.73814 18.9431C3.04013 18.8475 3.29672 18.6448 3.4595 18.3731C3.62229 18.1014 3.68001 17.7795 3.62179 17.4682L5.80581 16.476C6.15205 17.1629 6.5951 17.7965 7.12142 18.3574L5.43557 20.0661C5.23259 19.944 4.99955 19.8809 4.76268 19.8841C4.4179 19.8854 4.08773 20.0235 3.84481 20.2682C3.60188 20.5129 3.46611 20.844 3.46735 21.1888C3.46859 21.5336 3.60675 21.8638 3.85142 22.1067C4.0961 22.3496 4.42726 22.4854 4.77204 22.4841H4.7814C5.01139 22.4826 5.23685 22.4201 5.4347 22.3028C5.63256 22.1855 5.7957 22.0178 5.90743 21.8168C6.01916 21.6157 6.07547 21.3886 6.07059 21.1587C6.0657 20.9287 5.99981 20.7042 5.87965 20.5081L7.5603 18.7963C8.12971 19.3153 8.77065 19.7499 9.46352 20.0869L8.50359 22.2824C8.21732 22.2327 7.92266 22.2805 7.66678 22.4182C7.41091 22.5558 7.20862 22.7753 7.0923 23.0416C6.99378 23.2652 6.96018 23.5121 6.99534 23.7539C7.0305 23.9957 7.13301 24.2228 7.29113 24.4091C7.44925 24.5954 7.65662 24.7334 7.88951 24.8075C8.1224 24.8815 8.37141 24.8885 8.60809 24.8276C8.84476 24.7668 9.05953 24.6405 9.22785 24.4634C9.39617 24.2862 9.51124 24.0653 9.5599 23.8258C9.60856 23.5863 9.58885 23.338 9.50302 23.1092C9.41719 22.8804 9.26871 22.6804 9.07455 22.532L10.0355 20.3355C10.7517 20.6162 11.5049 20.7914 12.2715 20.8555L12.1613 23.2475C11.8762 23.3032 11.6181 23.4532 11.4285 23.6733C11.2389 23.8935 11.1289 24.171 11.1161 24.4612C11.1003 24.8054 11.2217 25.1418 11.4538 25.3965C11.6859 25.6511 12.0095 25.8033 12.3537 25.8194H12.4161C12.7255 25.8156 13.0234 25.7014 13.2561 25.4975C13.4889 25.2935 13.6411 25.0132 13.6855 24.7069C13.7299 24.4007 13.6635 24.0886 13.4983 23.827C13.3331 23.5654 13.0799 23.3713 12.7843 23.2797L12.8955 20.8877H12.9538C13.0713 20.8877 13.1878 20.8877 13.3032 20.8794C13.9855 23.7155 15.1576 25.8007 16.1986 27.2058C18.2204 29.9368 20.5011 31.1578 21.8635 31.1578C23.2259 31.1578 25.5036 29.9358 27.5274 27.2058C29.1124 25.0675 31 21.3547 31 15.8146C31 14.2837 30.9303 12.5209 30.4114 11.0409C30.3919 10.985 30.357 10.9357 30.3106 10.8988C30.2641 10.862 30.2082 10.8391 30.1493 10.8329C28.4012 10.6561 26.6995 10.165 25.126 9.38316C25.1 9.36444 25.074 9.34468 25.046 9.327C24.9492 9.26403 24.8442 9.21469 24.734 9.18036C24.0119 8.78809 23.329 8.3277 22.6945 7.80547H22.7101C22.9861 7.80566 23.2551 7.71806 23.478 7.55532C23.701 7.39259 23.8664 7.16316 23.9504 6.90021C24.0343 6.63726 24.0325 6.35442 23.9451 6.09258C23.8578 5.83074 23.6894 5.60348 23.4643 5.44365C23.2393 5.28383 22.9692 5.19972 22.6932 5.20349C22.4172 5.20727 22.1495 5.29873 21.9289 5.46465C21.7083 5.63057 21.5462 5.86235 21.466 6.12647C21.3859 6.3906 21.3918 6.67339 21.4829 6.93394L19.4705 8.25163C19.0244 7.62402 18.4907 7.06365 17.8855 6.58762L19.2905 4.64281C19.5855 4.76271 19.9141 4.77049 20.2144 4.6647C20.5146 4.5589 20.7658 4.34684 20.9204 4.06855C21.0751 3.79026 21.1225 3.46499 21.0537 3.15414C20.9849 2.84329 20.8047 2.56836 20.5471 2.38127C20.2896 2.19417 19.9724 2.10785 19.6555 2.13858C19.3386 2.16932 19.044 2.315 18.8271 2.54812C18.6103 2.78123 18.4863 3.08566 18.4786 3.40393C18.4708 3.7222 18.5799 4.0323 18.7851 4.27568L17.3811 6.22362C16.741 5.7965 16.0425 5.46408 15.3073 5.23665L15.9209 2.92263H15.9448C16.2629 2.9237 16.5704 2.8086 16.8095 2.59896C17.0487 2.38932 17.2031 2.09957 17.2437 1.78413C17.2843 1.4687 17.2084 1.14929 17.0301 0.885894C16.8519 0.622503 16.5836 0.433258 16.2757 0.353709C15.9677 0.27416 15.6413 0.309781 15.3578 0.453881C15.0743 0.597981 14.8532 0.840643 14.7359 1.13628C14.6187 1.43193 14.6134 1.7602 14.7211 2.05945C14.8288 2.3587 15.0421 2.60832 15.3208 2.76143L14.7031 5.07961C14.129 4.9499 13.5423 4.88433 12.9538 4.88409C12.7718 4.88409 12.5919 4.89241 12.413 4.90489L12.1582 2.52119C12.4563 2.41234 12.7044 2.19817 12.8555 1.91905C13.0067 1.63994 13.0505 1.31517 12.9787 1.00598C12.9069 0.696797 12.7245 0.424558 12.4658 0.240598C12.2071 0.0566385 11.8901 -0.0263303 11.5745 0.00733595C11.2589 0.0410022 10.9665 0.188977 10.7524 0.423359C10.5384 0.657742 10.4175 0.962335 10.4125 1.27971C10.4076 1.59708 10.5189 1.9053 10.7255 2.14626C10.9321 2.38721 11.2198 2.54424 11.5342 2.58775L11.789 4.96937C11.0274 5.0805 10.2861 5.30192 9.58832 5.62666L8.49631 3.49256C8.71751 3.30368 8.86861 3.04577 8.92522 2.76046C8.98183 2.47515 8.94064 2.17909 8.80831 1.92007C8.69758 1.7019 8.52767 1.51931 8.31801 1.39319C8.10836 1.26708 7.86744 1.20253 7.62282 1.20694C7.3782 1.21134 7.13976 1.28452 6.93478 1.41811C6.72981 1.55169 6.56658 1.74028 6.46378 1.9623C6.36097 2.18431 6.32275 2.43078 6.35347 2.67351C6.3842 2.91623 6.48264 3.1454 6.63752 3.3348C6.7924 3.52419 6.99747 3.66616 7.22927 3.74446C7.46107 3.82275 7.71022 3.83421 7.94823 3.77752L9.03711 5.91162C8.36722 6.2896 7.75501 6.76172 7.21918 7.31355L5.43349 5.70882C5.56654 5.45809 5.61373 5.17066 5.56783 4.89055C5.52194 4.61045 5.38549 4.35311 5.17939 4.15795C4.97328 3.96279 4.70889 3.84058 4.42669 3.81002C4.1445 3.77947 3.86007 3.84227 3.61698 3.98879C3.37388 4.13531 3.18551 4.35748 3.08073 4.62127C2.97595 4.88507 2.96053 5.17594 3.03683 5.44933C3.11313 5.72272 3.27695 5.96356 3.5032 6.13497C3.72944 6.30637 4.00564 6.39889 4.28948 6.39834H4.3602C4.59668 6.38581 4.82515 6.30845 5.0206 6.17474L6.80526 7.77843C6.3129 8.36976 5.90833 9.02897 5.60405 9.73573L3.36283 8.87564C3.39277 8.63375 3.35411 8.38832 3.25126 8.16736C3.1484 7.94639 2.98551 7.75879 2.78115 7.62596C2.5768 7.49313 2.33922 7.42042 2.09552 7.41614C1.85183 7.41185 1.61184 7.47616 1.40294 7.60172C1.19404 7.72729 1.02465 7.90905 0.914092 8.12626C0.803535 8.34347 0.756268 8.58739 0.777684 8.83018C0.7991 9.07297 0.888338 9.30484 1.03521 9.49935C1.18209 9.69385 1.38068 9.84315 1.60834 9.93021C1.75711 9.98705 1.915 10.0163 2.07426 10.0165C2.2835 10.016 2.48954 9.96509 2.67492 9.86805C2.8603 9.77102 3.01957 9.63073 3.13923 9.45908L5.37629 10.3161C5.12869 11.0448 4.98855 11.8058 4.96028 12.5749H2.56202ZM1.30153 13.563C1.16783 13.563 1.03713 13.5233 0.925966 13.449C0.814798 13.3747 0.728152 13.2692 0.676987 13.1456C0.625822 13.0221 0.612435 12.8862 0.638519 12.7551C0.664603 12.6239 0.728986 12.5035 0.823527 12.4089C0.918068 12.3144 1.03852 12.25 1.16965 12.2239C1.30078 12.1979 1.43671 12.2112 1.56023 12.2624C1.68375 12.3136 1.78933 12.4002 1.86361 12.5114C1.93789 12.6225 1.97754 12.7532 1.97754 12.887C1.97726 13.0662 1.90595 13.2379 1.77924 13.3647C1.65252 13.4914 1.48074 13.5627 1.30153 13.563ZM2.97699 17.9424C2.9304 18.0679 2.84756 18.1767 2.739 18.255C2.63043 18.3333 2.50104 18.3775 2.36727 18.3821C2.23351 18.3866 2.1014 18.3513 1.98775 18.2806C1.87409 18.21 1.78402 18.1071 1.72898 17.9851C1.68287 17.8839 1.66243 17.7729 1.66949 17.6619C1.67655 17.5509 1.71088 17.4434 1.76944 17.3488C1.828 17.2543 1.90897 17.1756 2.00519 17.1199C2.10142 17.0641 2.20991 17.033 2.32105 17.0292C2.43219 17.0254 2.54256 17.049 2.64236 17.0981C2.74216 17.1472 2.82832 17.2201 2.8932 17.3104C2.95807 17.4007 2.99966 17.5057 3.01428 17.6159C3.02889 17.7262 3.01608 17.8383 2.97699 17.9424ZM5.25356 21.6584C5.19132 21.7216 5.11719 21.7719 5.03544 21.8063C4.9537 21.8407 4.86595 21.8587 4.77724 21.8591C4.68929 21.8595 4.60212 21.8425 4.52075 21.8091C4.43937 21.7757 4.36537 21.7266 4.303 21.6646C4.23983 21.6023 4.18955 21.5282 4.15502 21.4465C4.1205 21.3648 4.10241 21.2771 4.10178 21.1884C4.10115 21.0997 4.118 21.0117 4.15137 20.9295C4.18473 20.8473 4.23396 20.7725 4.29624 20.7094C4.35852 20.6462 4.43263 20.5959 4.51434 20.5614C4.59605 20.5269 4.68376 20.5088 4.77246 20.5082C4.86116 20.5075 4.94912 20.5244 5.03131 20.5577C5.1135 20.5911 5.18832 20.6403 5.25148 20.7026C5.31482 20.7648 5.36527 20.8389 5.39992 20.9207C5.43457 21.0024 5.45276 21.0902 5.45344 21.179C5.45411 21.2678 5.43727 21.3558 5.40386 21.4381C5.37046 21.5203 5.32115 21.5952 5.25876 21.6584H5.25356ZM8.90295 23.833C8.8493 23.9553 8.76065 24.0589 8.64818 24.1309C8.53571 24.2028 8.40446 24.2398 8.27097 24.2373C8.13748 24.2347 8.00774 24.1927 7.89811 24.1165C7.78848 24.0403 7.70387 23.9333 7.65494 23.8091C7.61766 23.7256 7.59769 23.6355 7.59625 23.5441C7.59481 23.4527 7.61192 23.3619 7.64655 23.2773C7.68118 23.1927 7.73261 23.116 7.79774 23.0519C7.86286 22.9877 7.94031 22.9374 8.02542 22.904C8.11053 22.8707 8.20153 22.8549 8.2929 22.8577C8.38427 22.8605 8.47413 22.8818 8.55703 22.9204C8.63994 22.9589 8.71417 23.0138 8.77523 23.0818C8.8363 23.1499 8.88293 23.2296 8.91231 23.3161C8.94507 23.3986 8.96112 23.4868 8.95951 23.5755C8.9579 23.6643 8.93868 23.7518 8.90295 23.833ZM19.2281 3.04536C19.3064 2.93691 19.4151 2.85413 19.5404 2.80746C19.6658 2.7608 19.8021 2.75236 19.9322 2.78321C20.0624 2.81407 20.1804 2.88282 20.2715 2.98079C20.3625 3.07875 20.4225 3.20152 20.4437 3.33355C20.465 3.46559 20.4466 3.60096 20.3909 3.72255C20.3352 3.84413 20.2447 3.94646 20.1308 4.01659C20.0169 4.08672 19.8848 4.1215 19.7511 4.11652C19.6175 4.11155 19.4883 4.06704 19.38 3.98864C19.3079 3.93682 19.2468 3.87126 19.2001 3.79574C19.1534 3.72021 19.1221 3.63621 19.108 3.54856C19.0939 3.4609 19.0973 3.37133 19.1179 3.28497C19.1385 3.19862 19.176 3.11718 19.2281 3.04536ZM15.2896 1.45102C15.3286 1.29936 15.419 1.16593 15.5454 1.0735C15.6718 0.981077 15.8263 0.935392 15.9826 0.94425C16.139 0.953108 16.2874 1.01596 16.4025 1.12207C16.5177 1.22818 16.5924 1.37098 16.614 1.52606C16.6355 1.68115 16.6026 1.83892 16.5208 1.97242C16.4389 2.10592 16.3133 2.20688 16.1653 2.25805C16.0174 2.30923 15.8562 2.30745 15.7094 2.25301C15.5626 2.19858 15.4392 2.09487 15.3604 1.95959C15.2704 1.80612 15.245 1.62322 15.2896 1.45102ZM8.28831 2.71983C8.26107 2.80444 8.21737 2.88282 8.15972 2.95047C8.10207 3.01812 8.0316 3.07369 7.95238 3.114C7.8131 3.18508 7.65348 3.20568 7.50072 3.17229C7.34795 3.13889 7.21148 3.05356 7.11457 2.93085C7.01765 2.80813 6.96628 2.6556 6.9692 2.49925C6.97212 2.34291 7.02915 2.19241 7.13058 2.07339C7.23201 1.95438 7.37156 1.87421 7.52547 1.84654C7.67938 1.81887 7.83812 1.84541 7.97465 1.92165C8.11118 1.99788 8.21706 2.11909 8.27425 2.26463C8.33144 2.41018 8.33641 2.57104 8.28831 2.71983ZM4.78972 5.54969C4.71547 5.63252 4.62193 5.69574 4.5174 5.73375C4.41286 5.77176 4.30056 5.78339 4.19046 5.76761C4.08035 5.75183 3.97584 5.70912 3.88619 5.64327C3.79655 5.57743 3.72453 5.49048 3.67654 5.39013C3.62854 5.28979 3.60605 5.17915 3.61105 5.06803C3.61606 4.95691 3.64841 4.84875 3.70523 4.75312C3.76205 4.6575 3.84158 4.57737 3.93679 4.51985C4.03199 4.46233 4.13992 4.42919 4.251 4.42337H4.2874C4.41809 4.42309 4.54606 4.46077 4.65575 4.53182C4.76545 4.60287 4.85215 4.70424 4.90535 4.82362C4.95854 4.943 4.97593 5.07526 4.9554 5.20433C4.93488 5.3334 4.87732 5.45374 4.78972 5.55073V5.54969ZM13.09 24.5579C13.0841 24.6904 13.0394 24.8183 12.9615 24.9256C12.8835 25.0329 12.7758 25.115 12.6516 25.1616C12.5274 25.2082 12.3923 25.2173 12.263 25.1878C12.1337 25.1583 12.0159 25.0915 11.9242 24.9956C11.8326 24.8997 11.7711 24.779 11.7475 24.6485C11.7238 24.518 11.739 24.3834 11.7912 24.2615C11.8433 24.1395 11.9302 24.0356 12.0409 23.9626C12.1516 23.8895 12.2814 23.8506 12.414 23.8507H12.4452C12.6243 23.8596 12.7926 23.939 12.9134 24.0714C13.0342 24.2039 13.0977 24.3788 13.09 24.5579ZM22.3357 5.94178C22.4477 5.86875 22.5788 5.83055 22.7124 5.83201C22.8461 5.83348 22.9763 5.87454 23.0867 5.95001C23.197 6.02548 23.2825 6.13197 23.3323 6.25601C23.3821 6.38005 23.3941 6.51609 23.3666 6.64691C23.3391 6.77773 23.2735 6.89747 23.178 6.99099C23.0824 7.08452 22.9613 7.14762 22.83 7.17233C22.6986 7.19704 22.5629 7.18225 22.4399 7.12982C22.3169 7.07739 22.2123 6.98969 22.1391 6.87778C22.0416 6.72762 22.0075 6.54494 22.0444 6.36972C22.0812 6.19449 22.186 6.041 22.3357 5.94282V5.94178ZM21.8635 7.91779C23.9872 9.83245 26.8171 11.0732 29.8841 11.4299C30.3157 12.7819 30.376 14.3991 30.376 15.8125C30.376 21.1821 28.5549 24.769 27.0261 26.8366C25.1437 29.3794 23.0304 30.5369 21.8635 30.5369C20.6966 30.5369 18.5844 29.3784 16.6999 26.8355C15.1711 24.7722 13.35 21.1852 13.35 15.8115C13.35 14.3981 13.4103 12.784 13.8419 11.4289C16.9089 11.0763 19.7388 9.83557 21.8635 7.92091V7.91779ZM15.896 10.4055C15.9688 10.3359 16.0562 10.2834 16.1518 10.2516C16.2191 10.2301 16.2892 10.2189 16.3598 10.2183C16.4032 10.2189 16.4464 10.2238 16.4888 10.2329C16.2912 10.2959 16.0936 10.3545 15.896 10.4086V10.4055ZM11.7859 1.97311C11.6075 1.99214 11.429 1.93955 11.2894 1.82692C11.1499 1.71428 11.0608 1.55083 11.0417 1.3725C11.0227 1.19418 11.0753 1.0156 11.1879 0.876051C11.3006 0.7365 11.464 0.64741 11.6423 0.628377C11.6663 0.628377 11.6902 0.628377 11.7141 0.628377C11.8934 0.618861 12.0691 0.680957 12.2026 0.801004C12.3361 0.92105 12.4165 1.08921 12.426 1.2685C12.4355 1.44779 12.3734 1.62351 12.2534 1.75702C12.1333 1.89052 11.9651 1.97087 11.7859 1.98039V1.97311ZM6.52029 12.5749H5.58429C5.61287 11.8821 5.73962 11.1969 5.96077 10.5397L6.83438 10.8745C6.86982 10.8885 6.90758 10.8955 6.94566 10.8953C7.01855 10.8954 7.08917 10.87 7.14525 10.8234C7.20134 10.7768 7.23935 10.7121 7.2527 10.6404C7.26604 10.5688 7.25387 10.4947 7.2183 10.4311C7.18273 10.3675 7.12601 10.3183 7.05798 10.2921L6.18437 9.95725C6.45986 9.31992 6.82399 8.7247 7.26598 8.18923L7.95966 8.81324C8.01677 8.86463 8.09084 8.89315 8.16767 8.89332C8.23071 8.89318 8.29224 8.87394 8.34414 8.83814C8.39603 8.80233 8.43586 8.75165 8.45838 8.69276C8.4809 8.63387 8.48505 8.56954 8.47029 8.50825C8.45552 8.44695 8.42253 8.39157 8.37567 8.3494L7.68302 7.72539C8.1672 7.22989 8.71859 6.80488 9.32103 6.46282L9.7464 7.29483C9.77247 7.34609 9.8122 7.38914 9.8612 7.41924C9.9102 7.44934 9.96657 7.46531 10.0241 7.46539C10.0736 7.46515 10.1224 7.4534 10.1666 7.43107C10.2391 7.3933 10.294 7.32854 10.3193 7.25073C10.3446 7.17292 10.3383 7.08828 10.3018 7.01507L9.8764 6.18306C10.5057 5.89236 11.1731 5.69275 11.8587 5.59026L11.9627 6.52626C11.9709 6.60312 12.0074 6.67417 12.065 6.72567C12.1227 6.77716 12.1974 6.80542 12.2747 6.80498H12.309C12.3911 6.79608 12.4664 6.75494 12.5183 6.6906C12.5701 6.62626 12.5944 6.54396 12.5856 6.46178L12.4816 5.52577C12.6387 5.51641 12.7936 5.50913 12.9559 5.50913C13.4904 5.50933 14.0232 5.56792 14.545 5.68386L14.3048 6.58866C14.2942 6.62827 14.2916 6.66956 14.297 6.71018C14.3025 6.7508 14.3159 6.78995 14.3364 6.82539C14.357 6.86084 14.3844 6.89188 14.4169 6.91675C14.4495 6.94162 14.4867 6.95983 14.5263 6.97035C14.5528 6.97687 14.58 6.98036 14.6074 6.98074C14.6764 6.97977 14.7431 6.95597 14.7971 6.91307C14.8511 6.87017 14.8893 6.81058 14.9059 6.74362L15.1524 5.8409C15.8153 6.04772 16.4456 6.34745 17.0244 6.73114L16.4784 7.48723C16.4543 7.52041 16.4371 7.55801 16.4275 7.59787C16.418 7.63773 16.4165 7.67908 16.4229 7.71954C16.4294 7.76001 16.4438 7.79881 16.4653 7.83371C16.4867 7.86862 16.5149 7.89896 16.548 7.92299C16.601 7.96133 16.6647 7.98207 16.7301 7.98227C16.7795 7.98245 16.8284 7.97084 16.8725 7.94842C16.9166 7.92599 16.9548 7.89339 16.9838 7.85331L17.5288 7.09723C18.0724 7.52673 18.5534 8.03011 18.9577 8.59276L18.1777 9.1034C18.1369 9.13025 18.103 9.1663 18.0787 9.20864C18.0544 9.25099 18.0403 9.29846 18.0377 9.34722C18.0351 9.39598 18.0439 9.44468 18.0636 9.4894C18.0832 9.53412 18.113 9.57361 18.1507 9.60468C17.865 9.73503 17.5738 9.85567 17.2771 9.96661C17.1071 9.80171 16.8954 9.68622 16.6647 9.63253C16.434 9.57885 16.1931 9.58899 15.9677 9.66189C15.8054 9.71443 15.655 9.79867 15.5254 9.9097C15.3958 10.0207 15.2895 10.1564 15.2127 10.3088C15.1666 10.3999 15.1317 10.4963 15.1087 10.5958C14.6058 10.7011 14.098 10.7809 13.5871 10.835C13.5282 10.8412 13.4723 10.8641 13.4259 10.9009C13.3795 10.9377 13.3445 10.987 13.3251 11.043C13.2606 11.225 13.2044 11.4122 13.1524 11.6025C12.9816 11.5732 12.8067 11.5784 12.6379 11.6178C12.4691 11.6571 12.3099 11.7298 12.1697 11.8316C12.0295 11.9334 11.911 12.0623 11.8213 12.2105C11.7316 12.3588 11.6725 12.5236 11.6475 12.695C11.6224 12.8665 11.6319 13.0413 11.6755 13.209C11.719 13.3767 11.7956 13.5341 11.9009 13.6718C12.0061 13.8094 12.1379 13.9246 12.2883 14.0106C12.4388 14.0966 12.6049 14.1516 12.777 14.1724C12.7499 14.6425 12.7395 15.1084 12.7375 15.5567C12.4424 15.613 12.176 15.7698 11.9835 16.0003C11.7909 16.2309 11.6842 16.521 11.6814 16.8214C11.6786 17.1217 11.7798 17.4138 11.968 17.6479C12.1562 17.8821 12.4196 18.0438 12.7135 18.1057C12.7589 18.1152 12.8047 18.1221 12.8508 18.1265C12.9192 18.8438 13.0244 19.5572 13.1659 20.2637C13.0952 20.2637 13.0245 20.2637 12.9579 20.2637H12.9278L12.9715 19.3277C12.9752 19.245 12.9459 19.1641 12.89 19.103C12.8341 19.0418 12.7562 19.0054 12.6735 19.0017C12.5908 18.998 12.5099 19.0273 12.4488 19.0831C12.3876 19.139 12.3512 19.2169 12.3475 19.2996L12.3038 20.2356C11.6135 20.1747 10.9352 20.0165 10.2893 19.7656L10.6637 18.9086C10.6969 18.8327 10.6987 18.7468 10.6685 18.6697C10.6384 18.5925 10.5789 18.5305 10.503 18.4973C10.4272 18.464 10.3412 18.4623 10.2641 18.4924C10.1869 18.5226 10.1249 18.5821 10.0917 18.658L9.71728 19.5149C9.09519 19.2096 8.51896 18.8185 8.00542 18.3532L8.66063 17.6887C8.71539 17.6291 8.7449 17.5507 8.74293 17.4698C8.74096 17.389 8.70767 17.312 8.65007 17.2552C8.59248 17.1985 8.51508 17.1663 8.4342 17.1654C8.35333 17.1646 8.27529 17.1952 8.21655 17.2508L7.5603 17.9133C7.08733 17.4068 6.68819 16.8361 6.37469 16.2181L7.22438 15.8323C7.29982 15.798 7.35858 15.7353 7.38774 15.6578C7.4169 15.5802 7.41406 15.4943 7.37986 15.4188C7.34566 15.3434 7.28289 15.2846 7.20536 15.2555C7.12783 15.2263 7.0419 15.2292 6.96646 15.2634L6.11573 15.6503C5.79882 14.8698 5.61903 14.0405 5.58429 13.199H6.52029C6.60304 13.199 6.6824 13.1661 6.74091 13.1076C6.79942 13.0491 6.8323 12.9697 6.8323 12.887C6.8323 12.8042 6.79942 12.7248 6.74091 12.6663C6.6824 12.6078 6.60304 12.5749 6.52029 12.5749ZM13.0027 12.2151C12.917 12.6556 12.8545 13.1003 12.8155 13.5474C12.651 13.514 12.5048 13.4205 12.4055 13.2851C12.3062 13.1498 12.2609 12.9823 12.2785 12.8154C12.296 12.6484 12.3751 12.494 12.5004 12.3823C12.6256 12.2705 12.788 12.2094 12.9559 12.2109C12.9683 12.2109 12.985 12.2141 13.0006 12.2151H13.0027ZM12.7874 17.4817C12.6232 17.4344 12.483 17.3267 12.3951 17.1803C12.3071 17.0338 12.2778 16.8595 12.3131 16.6923C12.3312 16.6054 12.3663 16.523 12.4165 16.4498C12.4666 16.3766 12.5308 16.3141 12.6054 16.2659C12.6454 16.2408 12.6879 16.2199 12.7323 16.2035C12.7364 16.6414 12.7603 17.0667 12.7853 17.4817H12.7874ZM2.70659 8.95364C2.6623 9.06822 2.58758 9.16853 2.49048 9.24378C2.39339 9.31903 2.2776 9.36635 2.1556 9.38065C2.0336 9.39495 1.91001 9.37569 1.79814 9.32493C1.68628 9.27418 1.59039 9.19386 1.5208 9.09264C1.45122 8.99141 1.41057 8.87311 1.40325 8.75049C1.39594 8.62787 1.42222 8.50558 1.47927 8.39679C1.53632 8.28801 1.62198 8.19685 1.72701 8.13315C1.83204 8.06946 1.95246 8.03563 2.0753 8.03531C2.15819 8.0357 2.2403 8.0512 2.31762 8.08107C2.4005 8.11277 2.47632 8.16049 2.54073 8.22151C2.60515 8.28254 2.6569 8.35566 2.69303 8.4367C2.72916 8.51775 2.74895 8.60512 2.75128 8.69382C2.7536 8.78252 2.73842 8.87081 2.70659 8.95364Z" fill="#F15C20"/>
<path d="M20.7788 21.8402C20.7788 21.8816 20.7952 21.9213 20.8245 21.9505C20.8538 21.9798 20.8934 21.9962 20.9348 21.9962H22.7912C22.8326 21.9962 22.8723 21.9798 22.9015 21.9505C22.9308 21.9213 22.9472 21.8816 22.9472 21.8402V19.8642H24.9232C24.9646 19.8642 25.0043 19.8478 25.0335 19.8185C25.0628 19.7893 25.0792 19.7496 25.0792 19.7082V17.8508C25.0792 17.8094 25.0628 17.7697 25.0335 17.7405C25.0043 17.7112 24.9646 17.6948 24.9232 17.6948H22.9524V15.7187C22.9524 15.6774 22.936 15.6377 22.9067 15.6084C22.8775 15.5792 22.8378 15.5627 22.7964 15.5627H20.9348C20.8934 15.5627 20.8538 15.5792 20.8245 15.6084C20.7952 15.6377 20.7788 15.6774 20.7788 15.7187V17.6948H18.8028C18.7614 17.6948 18.7217 17.7112 18.6925 17.7405C18.6632 17.7697 18.6468 17.8094 18.6468 17.8508V19.7072C18.6468 19.7485 18.6632 19.7882 18.6925 19.8175C18.7217 19.8467 18.7614 19.8632 18.8028 19.8632H20.7788V21.8402ZM18.9588 19.5522V18.0068H20.9348C20.9762 18.0068 21.0159 17.9903 21.0451 17.9611C21.0744 17.9318 21.0908 17.8921 21.0908 17.8508V15.8747H22.6404V17.8508C22.6404 17.8921 22.6569 17.9318 22.6861 17.9611C22.7154 17.9903 22.755 18.0068 22.7964 18.0068H24.7724V19.5512H22.7964C22.755 19.5512 22.7154 19.5676 22.6861 19.5969C22.6569 19.6261 22.6404 19.6658 22.6404 19.7072V21.6832H21.0908V19.7072C21.0908 19.6658 21.0744 19.6261 21.0451 19.5969C21.0159 19.5676 20.9762 19.5512 20.9348 19.5512L18.9588 19.5522Z" fill="#F15C20"/>
<path d="M21.8635 27.4729C23.7511 27.4729 28.1753 23.8526 28.1753 16.8305C28.1753 15.7676 28.1275 14.5425 27.7687 13.5202C27.7589 13.4922 27.7413 13.4677 27.7182 13.4493C27.695 13.4309 27.6671 13.4194 27.6376 13.4162C25.4536 13.1894 23.4391 12.3002 21.9706 10.9129C21.9418 10.8853 21.9034 10.8699 21.8635 10.8699C21.8236 10.8699 21.7852 10.8853 21.7564 10.9129C20.2869 12.3013 18.2724 13.1915 16.0883 13.4172C16.0589 13.4204 16.031 13.4319 16.0078 13.4503C15.9846 13.4687 15.9671 13.4933 15.9573 13.5212C15.5985 14.5446 15.5507 15.7687 15.5507 16.8315C15.5507 23.8526 19.9749 27.4729 21.8635 27.4729ZM15.8627 16.8315C15.8627 15.8279 15.9063 14.6787 16.2204 13.7178C18.3826 13.4734 20.3805 12.5977 21.8635 11.2405C23.3486 12.5977 25.3434 13.4734 27.5055 13.7178C27.8176 14.6787 27.8633 15.8279 27.8633 16.8315C27.8633 20.5943 26.5862 23.109 25.515 24.5557C24.1879 26.3466 22.6924 27.1619 21.8635 27.1619C21.0346 27.1619 19.538 26.3466 18.211 24.5557C17.1398 23.108 15.8627 20.5933 15.8627 16.8315Z" fill="#F15C20"/>
</svg>
