<svg width="62" height="62" viewBox="0 0 62 62" fill="none" xmlns="http://www.w3.org/2000/svg">
<circle cx="30.6936" cy="31.3777" r="20.3977" stroke="#E5E9EC" stroke-width="3"/>
<mask id="path-2-inside-1" fill="white">
<path d="M29.5498 10.6611C29.4904 9.77148 30.1641 8.99593 31.0557 9.00229C34.8288 9.02919 38.541 10.031 41.8267 11.923C45.5798 14.0842 48.6079 17.3099 50.5278 21.192C52.4478 25.0741 53.1734 29.4384 52.613 33.733C52.0526 38.0275 50.2313 42.0594 47.3794 45.3189C44.5275 48.5783 40.7731 50.9189 36.591 52.0446C32.4089 53.1703 27.9869 53.0306 23.8842 51.6431C19.7815 50.2556 16.1824 47.6827 13.542 44.2497C11.2304 41.2444 9.74455 37.6981 9.21687 33.962C9.09218 33.0791 9.77141 32.3084 10.6611 32.2491C11.5507 32.1898 12.3129 32.8647 12.4488 33.746C12.9268 36.8446 14.1793 39.7823 16.1014 42.2812C18.3525 45.208 21.4209 47.4015 24.9186 48.5844C28.4164 49.7673 32.1863 49.8864 35.7518 48.9267C39.3172 47.967 42.518 45.9715 44.9494 43.1927C47.3808 40.4139 48.9335 36.9765 49.4113 33.3152C49.8891 29.6539 49.2704 25.9331 47.6336 22.6234C45.9967 19.3137 43.4152 16.5637 40.2154 14.7211C37.4834 13.148 34.4054 12.2966 31.2707 12.2343C30.3793 12.2166 29.6091 11.5508 29.5498 10.6611Z"/>
</mask>
<path d="M29.5498 10.6611C29.4904 9.77148 30.1641 8.99593 31.0557 9.00229C34.8288 9.02919 38.541 10.031 41.8267 11.923C45.5798 14.0842 48.6079 17.3099 50.5278 21.192C52.4478 25.0741 53.1734 29.4384 52.613 33.733C52.0526 38.0275 50.2313 42.0594 47.3794 45.3189C44.5275 48.5783 40.7731 50.9189 36.591 52.0446C32.4089 53.1703 27.9869 53.0306 23.8842 51.6431C19.7815 50.2556 16.1824 47.6827 13.542 44.2497C11.2304 41.2444 9.74455 37.6981 9.21687 33.962C9.09218 33.0791 9.77141 32.3084 10.6611 32.2491C11.5507 32.1898 12.3129 32.8647 12.4488 33.746C12.9268 36.8446 14.1793 39.7823 16.1014 42.2812C18.3525 45.208 21.4209 47.4015 24.9186 48.5844C28.4164 49.7673 32.1863 49.8864 35.7518 48.9267C39.3172 47.967 42.518 45.9715 44.9494 43.1927C47.3808 40.4139 48.9335 36.9765 49.4113 33.3152C49.8891 29.6539 49.2704 25.9331 47.6336 22.6234C45.9967 19.3137 43.4152 16.5637 40.2154 14.7211C37.4834 13.148 34.4054 12.2966 31.2707 12.2343C30.3793 12.2166 29.6091 11.5508 29.5498 10.6611Z" stroke="#777CEA" stroke-width="6" mask="url(#path-2-inside-1)"/>
<path d="M25.55 27.1346L21.7106 36.244H19.9587L23.8565 27.3243H18.7471V25.8791H25.55V27.1346Z" fill="#777CEA"/>
<path d="M32.949 27.1346L29.1096 36.244H27.3578L31.2556 27.3243H26.1461V25.8791H32.949V27.1346Z" fill="#777CEA"/>
<path d="M35.9977 25.7915C36.6498 25.7915 37.1802 25.9959 37.5889 26.4046C37.9977 26.8037 38.2021 27.3487 38.2021 28.0397C38.2021 28.7307 37.9977 29.2757 37.5889 29.6747C37.1802 30.0737 36.6498 30.2732 35.9977 30.2732C35.3456 30.2732 34.8103 30.0737 34.3919 29.6747C33.9831 29.2757 33.7787 28.7307 33.7787 28.0397C33.7787 27.3487 33.9831 26.8037 34.3919 26.4046C34.8103 25.9959 35.3456 25.7915 35.9977 25.7915ZM42.1728 25.9229L36.3481 36.244H34.713L40.5524 25.9229H42.1728ZM34.9174 28.0397C34.9174 28.4095 35.0147 28.7063 35.2094 28.9302C35.404 29.1443 35.6619 29.2513 35.9831 29.2513C36.3043 29.2513 36.5622 29.1394 36.7568 28.9156C36.9612 28.6917 37.0634 28.3998 37.0634 28.0397C37.0634 27.6698 36.9612 27.373 36.7568 27.1492C36.5622 26.9253 36.3043 26.8134 35.9831 26.8134C35.6619 26.8134 35.404 26.9253 35.2094 27.1492C35.0147 27.373 34.9174 27.6698 34.9174 28.0397ZM40.9028 31.8937C41.5548 31.8937 42.0853 32.0932 42.494 32.4922C42.9125 32.8912 43.1217 33.4362 43.1217 34.1272C43.1217 34.8182 42.9125 35.3681 42.494 35.7769C42.0853 36.1759 41.5548 36.3754 40.9028 36.3754C40.2604 36.3754 39.73 36.1759 39.3115 35.7769C38.9028 35.3681 38.6984 34.8182 38.6984 34.1272C38.6984 33.446 38.9028 32.9058 39.3115 32.5068C39.73 32.098 40.2604 31.8937 40.9028 31.8937ZM39.8371 34.1272C39.8371 34.4971 39.9344 34.7939 40.1291 35.0177C40.3237 35.2416 40.5816 35.3535 40.9028 35.3535C41.2239 35.3535 41.4819 35.2416 41.6765 35.0177C41.8809 34.7939 41.9831 34.4971 41.9831 34.1272C41.9831 33.7671 41.8809 33.4752 41.6765 33.2513C41.4819 33.0275 41.2239 32.9156 40.9028 32.9156C40.5816 32.9156 40.3237 33.0275 40.1291 33.2513C39.9344 33.4752 39.8371 33.7671 39.8371 34.1272Z" fill="#777CEA"/>
</svg>
