<svg width="21" height="21" viewBox="0 0 21 21" fill="none" xmlns="http://www.w3.org/2000/svg">
<path fill-rule="evenodd" clip-rule="evenodd" d="M13.7049 13.7055C13.8268 13.5835 13.9716 13.4867 14.1309 13.4206C14.2902 13.3546 14.461 13.3206 14.6335 13.3206C14.806 13.3206 14.9768 13.3546 15.1361 13.4206C15.2954 13.4867 15.4402 13.5835 15.5621 13.7055L20.6151 18.7587C20.8614 19.0048 20.9998 19.3387 20.9999 19.6869C21.0001 20.035 20.8619 20.369 20.6158 20.6153C20.3697 20.8616 20.0358 21 19.6877 21.0001C19.3395 21.0002 19.0055 20.862 18.7593 20.6159L13.7062 15.5627C13.5842 15.4408 13.4874 15.2961 13.4213 15.1367C13.3553 14.9774 13.3213 14.8066 13.3213 14.6341C13.3213 14.4616 13.3553 14.2908 13.4213 14.1315C13.4874 13.9722 13.5842 13.8274 13.7062 13.7055H13.7049Z" fill="#FAFAFA"/>
<path fill-rule="evenodd" clip-rule="evenodd" d="M8.53113 15.7503C9.47909 15.7503 10.4178 15.5636 11.2936 15.2008C12.1694 14.838 12.9652 14.3063 13.6355 13.6359C14.3058 12.9656 14.8375 12.1698 15.2003 11.294C15.5631 10.4181 15.7498 9.4794 15.7498 8.53141C15.7498 7.58341 15.5631 6.6447 15.2003 5.76886C14.8375 4.89302 14.3058 4.09722 13.6355 3.42689C12.9652 2.75655 12.1694 2.22481 11.2936 1.86203C10.4178 1.49925 9.47909 1.31252 8.53113 1.31252C6.61662 1.31252 4.78053 2.07308 3.42677 3.42689C2.07302 4.78069 1.31248 6.61684 1.31248 8.53141C1.31248 10.446 2.07302 12.2821 3.42677 13.6359C4.78053 14.9897 6.61662 15.7503 8.53113 15.7503ZM17.0623 8.53141C17.0623 10.7941 16.1634 12.9641 14.5635 14.564C12.9636 16.164 10.7937 17.0628 8.53113 17.0628C6.26853 17.0628 4.09861 16.164 2.49871 14.564C0.898813 12.9641 0 10.7941 0 8.53141C0 6.26874 0.898813 4.09874 2.49871 2.49879C4.09861 0.898842 6.26853 0 8.53113 0C10.7937 0 12.9636 0.898842 14.5635 2.49879C16.1634 4.09874 17.0623 6.26874 17.0623 8.53141Z" fill="#FAFAFA"/>
</svg>
