<svg width="18" height="18" viewBox="0 0 18 18" fill="none" xmlns="http://www.w3.org/2000/svg">
<path d="M17.8456 0.154483C17.6964 0.00527972 17.4726 -0.0405991 17.2768 0.0377289L0.331506 6.81577C0.13762 6.89333 0.00778774 7.07797 0.000334629 7.28669C-0.00708333 7.49538 0.109354 7.68877 0.297229 7.7799L6.9793 11.0206L10.2201 17.7027C10.3084 17.885 10.493 17.9999 10.6944 17.9999C10.7007 17.9999 10.707 17.9998 10.7133 17.9996C10.9219 17.9922 11.1066 17.8623 11.1842 17.6685L17.9623 0.72324C18.0406 0.527349 17.9947 0.30365 17.8456 0.154483ZM1.83141 7.35177L15.2831 1.97114L7.26645 9.98771L1.83141 7.35177ZM10.6482 16.1686L8.01222 10.7334L16.0289 2.71688L10.6482 16.1686Z" fill="#828282"/>
</svg>
