<svg width="22" height="22" viewBox="0 0 22 22" fill="none" xmlns="http://www.w3.org/2000/svg">
<g clip-path="url(#clip0)">
<path d="M6.85352 11.0001L14.2997 6.76929" stroke="#494949" stroke-miterlimit="10"/>
<path d="M6.85352 13.5386L14.2997 17.7693" stroke="#494949" stroke-miterlimit="10"/>
<path d="M4.6537 14.8079C6.05565 14.8079 7.19216 13.6714 7.19216 12.2694C7.19216 10.8675 6.05565 9.73096 4.6537 9.73096C3.25174 9.73096 2.11523 10.8675 2.11523 12.2694C2.11523 13.6714 3.25174 14.8079 4.6537 14.8079Z" stroke="#494949" stroke-miterlimit="10" stroke-linecap="square"/>
<path d="M16.4999 8.03859C17.9018 8.03859 19.0384 6.90209 19.0384 5.50013C19.0384 4.09818 17.9018 2.96167 16.4999 2.96167C15.0979 2.96167 13.9614 4.09818 13.9614 5.50013C13.9614 6.90209 15.0979 8.03859 16.4999 8.03859Z" stroke="#494949" stroke-miterlimit="10" stroke-linecap="square"/>
<path d="M16.4999 21.5772C17.9018 21.5772 19.0384 20.4407 19.0384 19.0387C19.0384 17.6368 17.9018 16.5002 16.4999 16.5002C15.0979 16.5002 13.9614 17.6368 13.9614 19.0387C13.9614 20.4407 15.0979 21.5772 16.4999 21.5772Z" stroke="#494949" stroke-miterlimit="10" stroke-linecap="square"/>
</g>
<defs>
<clipPath id="clip0">
<rect width="20.3077" height="20.3077" fill="white" transform="translate(0 1.69238)"/>
</clipPath>
</defs>
</svg>
