<svg width="28" height="28" viewBox="0 0 28 28" fill="none" xmlns="http://www.w3.org/2000/svg">
<g clip-path="url(#clip0)">
<path d="M26.5956 15.8084V25.6644C26.5956 26.9507 25.5491 27.9971 24.2628 27.9971H3.73442C2.44813 27.9971 1.40164 26.9507 1.40164 25.6644V15.8084C1.40164 15.5507 1.61054 15.3418 1.8682 15.3418C2.12585 15.3418 2.33475 15.5507 2.33475 15.8084V25.6644C2.33475 26.4361 2.96268 27.064 3.73442 27.064H24.2628C25.0346 27.064 25.6625 26.4361 25.6625 25.6644V15.8084C25.6625 15.5507 25.8714 15.3418 26.1291 15.3418C26.3867 15.3418 26.5956 15.5507 26.5956 15.8084ZM3.03459 7.46873C3.03459 7.72638 3.24349 7.93528 3.50114 7.93528C29.0779 7.93528 27.6288 7.98048 27.8137 7.83754C27.9079 7.76452 27.9726 7.65832 27.9903 7.53317C28.0162 7.34573 28.1884 7.81777 24.9242 0.284947C24.8502 0.114305 24.6821 0.00390625 24.4961 0.00390625H3.50114C3.31522 0.00390625 3.14703 0.114363 3.07302 0.284947L0.0404125 7.28327C-0.013183 7.40702 0.00198003 7.21061 0.00198003 10.3633C0.00530423 12.4853 1.73197 14.2116 3.85106 14.2116C5.30782 14.2116 6.57912 13.3957 7.23259 12.1963C8.69203 14.8784 12.5364 14.8815 13.9986 12.1981C15.4595 14.8791 19.3022 14.88 20.7637 12.1981C21.4167 13.3965 22.6881 14.2116 24.1462 14.2116C26.2686 14.2116 27.9953 12.4849 27.9953 10.3625C27.9953 10.1048 27.7864 9.89592 27.5287 9.89592C27.2711 9.89592 27.0622 10.1048 27.0622 10.3625C27.0622 11.9703 25.7541 13.2784 24.1462 13.2784C22.5383 13.2784 21.2302 11.9703 21.2302 10.3625C21.2302 10.1048 21.0213 9.89592 20.7637 9.89592C20.506 9.89592 20.2971 10.1048 20.2971 10.3625C20.2971 11.9703 18.989 13.2784 17.3811 13.2784C15.7733 13.2784 14.4652 11.9703 14.4652 10.3625C14.4652 10.1048 14.2563 9.89592 13.9986 9.89592C13.741 9.89592 13.5321 10.1048 13.5321 10.3625C13.5321 11.9703 12.224 13.2784 10.6161 13.2784C9.04393 13.2784 7.70014 12.015 7.70014 10.3391C7.70014 10.0815 7.49124 9.87259 7.23358 9.87259C6.97593 9.87259 6.76703 10.0815 6.76703 10.3391C6.76703 12.0009 5.43157 13.2784 3.85106 13.2784C2.2457 13.2784 0.937598 11.97 0.93509 10.3625V7.56542L3.80744 0.936958H24.1898L26.818 7.00217H3.50114C3.24349 7.00217 3.03459 7.21107 3.03459 7.46873ZM4.90081 19.016C4.90081 17.8069 5.88448 16.8232 7.09361 16.8232C8.30275 16.8232 9.28648 17.8068 9.28648 19.016C9.28648 20.2251 8.30281 21.2088 7.09361 21.2088C5.88448 21.2088 4.90081 20.2251 4.90081 19.016ZM5.83392 19.016C5.83392 19.7105 6.39897 20.2757 7.09361 20.2757C7.78826 20.2757 8.35337 19.7106 8.35337 19.016C8.35337 18.3213 7.78826 17.7563 7.09361 17.7563C6.39897 17.7563 5.83392 18.3214 5.83392 19.016ZM11.1216 21.2088C10.8639 21.2088 10.655 20.9999 10.655 20.7422V17.2898C10.655 17.0321 10.8639 16.8232 11.1216 16.8232H12.2724C13.1642 16.8232 13.8897 17.5488 13.8897 18.4406C13.8897 19.3324 13.1642 20.0579 12.2724 20.0579H11.5881V20.7422C11.5881 20.9999 11.3792 21.2088 11.1216 21.2088ZM11.5881 19.1248H12.2724C12.6497 19.1248 12.9566 18.8179 12.9566 18.4406C12.9566 18.0634 12.6496 17.7564 12.2724 17.7564H11.5881V19.1248ZM18.0265 17.7563C18.2842 17.7563 18.4931 17.5474 18.4931 17.2898C18.4931 17.0321 18.2842 16.8232 18.0265 16.8232H15.7248C15.4672 16.8232 15.2583 17.0321 15.2583 17.2898V20.7422C15.2583 20.9999 15.4672 21.2088 15.7248 21.2088H18.0265C18.2842 21.2088 18.4931 20.9999 18.4931 20.7422C18.4931 20.4846 18.2842 20.2757 18.0265 20.2757H16.1914V19.4825H17.3228C17.5804 19.4825 17.7893 19.2736 17.7893 19.016C17.7893 18.7583 17.5804 18.5494 17.3228 18.5494H16.1914V17.7563H18.0265V17.7563ZM20.7948 20.7422V18.8307L22.2417 21.001C22.4969 21.3839 23.0964 21.2024 23.0964 20.7422V17.2898C23.0964 17.0321 22.8875 16.8232 22.6299 16.8232C22.3722 16.8232 22.1633 17.0321 22.1633 17.2898V19.2013L20.7164 17.0309C20.4612 16.6481 19.8616 16.8296 19.8616 17.2898V20.7422C19.8616 20.9999 20.0705 21.2088 20.3282 21.2088C20.5859 21.2088 20.7948 20.9999 20.7948 20.7422ZM5.36736 24.3813H22.6299C22.8875 24.3813 23.0964 24.1724 23.0964 23.9148C23.0964 23.6571 22.8875 23.4482 22.6299 23.4482H5.36736C5.10971 23.4482 4.90081 23.6571 4.90081 23.9148C4.90081 24.1724 5.10971 24.3813 5.36736 24.3813Z" fill="#F15C20"/>
</g>
<defs>
<clipPath id="clip0">
<rect width="28" height="28" fill="white"/>
</clipPath>
</defs>
</svg>
