<svg width="20" height="20" viewBox="0 0 20 20" fill="none" xmlns="http://www.w3.org/2000/svg">
<path d="M10.1666 19.4558C13.4166 17.8619 15.1666 14.3385 15.1666 10.2279C15.1666 6.11729 13.4166 2.59391 10.1666 1" stroke="#777CEA" stroke-miterlimit="10"/>
<path d="M10.1666 19.4558C6.91663 17.8619 5.16663 14.3385 5.16663 10.2279C5.16663 6.11729 6.91663 2.59391 10.1666 1" stroke="#777CEA" stroke-miterlimit="10"/>
<path d="M10.1666 19.4558V18.6169V1.8389V1" stroke="#777CEA" stroke-miterlimit="10"/>
<path d="M1 10.2275H19.3333" stroke="#777CEA" stroke-miterlimit="10"/>
<path d="M10.1667 19.4558C15.2293 19.4558 19.3334 15.3243 19.3334 10.2279C19.3334 5.13147 15.2293 1 10.1667 1C5.10407 1 1 5.13147 1 10.2279C1 15.3243 5.10407 19.4558 10.1667 19.4558Z" stroke="#777CEA" stroke-miterlimit="10" stroke-linecap="square"/>
</svg>
