<svg width="20" height="24" viewBox="0 0 20 24" fill="none" xmlns="http://www.w3.org/2000/svg">
<path d="M19.2 1.83893L10.2 0.0389274C10.0706 0.0130659 9.93739 0.0130659 9.808 0.0389274L0.808 1.83893C0.580485 1.88344 0.375503 2.00562 0.228115 2.18456C0.0807274 2.3635 9.15585e-05 2.5881 0 2.81993V12.9999C0 20.9999 10 23.9999 10 23.9999C10 23.9999 20 20.9999 20 12.9999V2.81993C20.0003 2.58923 19.9208 2.36552 19.775 2.18673C19.6292 2.00794 19.426 1.88507 19.2 1.83893ZM9.057 16.4709L4.586 11.9999L6 10.5859L8.943 13.5289L14.892 6.58993L16.41 7.88993L9.057 16.4709Z" fill="#008000"/>
</svg>
