<svg width="61" height="61" viewBox="0 0 61 61" fill="none" xmlns="http://www.w3.org/2000/svg">
<path d="M59.9833 54.9H53.8833V33.4341C54.2173 33.5077 54.558 33.5466 54.9 33.55C57.706 33.5467 59.98 31.2727 59.9833 28.4667C59.9833 28.3925 59.9752 28.3185 59.9589 28.246L57.9256 19.0961C57.8222 18.6309 57.4098 18.3001 56.9333 18.3H53.8833V15.25C53.8833 14.6885 53.4281 14.2333 52.8667 14.2333H44.7333V12.2H46.7667C47.3281 12.2 47.7833 11.7448 47.7833 11.1833V1.01667C47.7833 0.455212 47.3281 0 46.7667 0H14.2333C13.6719 0 13.2167 0.455212 13.2167 1.01667V11.1833C13.2167 11.7448 13.6719 12.2 14.2333 12.2H16.2667V14.2333H8.13333C7.57188 14.2333 7.11667 14.6885 7.11667 15.25V18.3H4.06667C3.59023 18.3001 3.17772 18.6309 3.0744 19.0961L1.04107 28.246C1.0248 28.3185 1.01667 28.3925 1.01667 28.4667C1.01997 31.2727 3.294 33.5467 6.1 33.55C6.44198 33.5466 6.78269 33.5077 7.11667 33.4341V54.9H1.01667C0.455212 54.9 0 55.3552 0 55.9167V59.9833C0 60.5448 0.455212 61 1.01667 61H59.9833C60.5448 61 61 60.5448 61 59.9833V55.9167C61 55.3552 60.5448 54.9 59.9833 54.9ZM56.12 20.3333L57.95 28.5683C57.8951 30.2129 56.5456 31.5176 54.9 31.5167C54.364 31.5165 53.8376 31.3737 53.375 31.1029C52.6632 30.6888 52.1481 30.0059 51.9456 29.2078C51.8792 28.9665 51.8471 28.717 51.85 28.4667C51.85 28.4293 51.848 28.3919 51.8439 28.3548L50.9523 20.3333H56.12ZM46.7667 38.6333H36.6C36.0385 38.6333 35.5833 39.0885 35.5833 39.65V54.9H9.15V32.4967C9.53443 32.213 9.87666 31.8762 10.1667 31.4963C11.8249 33.7423 14.9897 34.2188 17.2357 32.5607C17.6416 32.261 18.0003 31.9022 18.3 31.4963C19.9582 33.7423 23.1231 34.2188 25.369 32.5607C25.7749 32.261 26.1337 31.9022 26.4333 31.4963C28.0915 33.7423 31.2564 34.2188 33.5023 32.5607C33.9082 32.261 34.267 31.9022 34.5667 31.4963C36.2248 33.7423 39.3897 34.2188 41.6357 32.5607C42.0416 32.261 42.4003 31.9022 42.7 31.4963C44.3591 33.7423 47.5247 34.2181 49.7707 32.559C50.1758 32.2597 50.534 31.9015 50.8333 31.4963C51.1232 31.8753 51.4656 32.2112 51.85 32.4937V54.9H47.7833V39.65C47.7833 39.0885 47.3281 38.6333 46.7667 38.6333ZM45.75 40.6667V54.9H37.6167V40.6667H45.75ZM11.1833 28.5195L12.0983 20.3333H18.1861L17.2945 28.3548C17.2887 28.3919 17.285 28.4292 17.2833 28.4667C17.2857 28.7254 17.2514 28.9831 17.1817 29.2322C16.7523 30.861 15.0838 31.8334 13.4549 31.4039C12.384 31.1217 11.5504 30.281 11.2769 29.2078C11.2155 28.9835 11.1841 28.7521 11.1833 28.5195ZM19.3167 28.5195L20.2317 20.3333H25.4167V28.4667C25.4191 28.7254 25.3848 28.9831 25.315 29.2322C24.8856 30.861 23.2171 31.8334 21.5883 31.4039C20.5173 31.1217 19.6837 30.281 19.4102 29.2078C19.3488 28.9835 19.3174 28.7521 19.3167 28.5195ZM27.45 28.4667V20.3333H33.55V28.4667C33.5524 28.7254 33.5181 28.9831 33.4483 29.2322C33.0189 30.861 31.3504 31.8334 29.7216 31.4039C28.6507 31.1217 27.817 30.281 27.5435 29.2078C27.4778 28.9664 27.4464 28.7169 27.45 28.4667ZM35.5833 28.4667V20.3333H40.7683L41.6833 28.5195C41.6807 28.7602 41.6465 28.9994 41.5817 29.2312C41.1523 30.86 39.4838 31.8323 37.8549 31.4029C36.784 31.1207 35.9503 30.28 35.6769 29.2068C35.6113 28.9657 35.5798 28.7165 35.5833 28.4667ZM42.819 20.3333H48.9067L49.8218 28.5195C49.8191 28.7602 49.7849 28.9994 49.7201 29.2312C49.2907 30.86 47.6222 31.8323 45.9934 31.4029C44.9224 31.1207 44.0888 30.28 43.8153 29.2068C43.7481 28.9659 43.7148 28.7168 43.7167 28.4667C43.7167 28.4293 43.7146 28.3919 43.7106 28.3548L42.819 20.3333ZM15.25 10.1667V2.03333H45.75V10.1667H15.25ZM42.7 12.2V14.2333H18.3V12.2H42.7ZM9.15 16.2667H51.85V18.3H9.15V16.2667ZM6.1 31.5167C4.4544 31.5176 3.1049 30.2129 3.05 28.5683L4.88 20.3333H10.0457L9.15407 28.3548C9.15063 28.3921 9.14936 28.4293 9.15 28.4667C9.15203 28.7246 9.11772 28.9817 9.04833 29.2302C8.84335 30.0196 8.33069 30.6941 7.625 31.1029C7.16242 31.3737 6.63604 31.5165 6.1 31.5167ZM58.9667 58.9667H2.03333V56.9333H58.9667V58.9667Z" fill="#777CEA"/>
</svg>
