<svg width="30" height="18" viewBox="0 0 30 18" fill="none" xmlns="http://www.w3.org/2000/svg">
<path fill-rule="evenodd" clip-rule="evenodd" d="M20.2878 17.0715C20.173 16.9569 20.0819 16.8208 20.0197 16.6709C19.9575 16.5211 19.9255 16.3604 19.9255 16.1982C19.9255 16.0359 19.9575 15.8753 20.0197 15.7254C20.0819 15.5756 20.173 15.4395 20.2878 15.3249L26.816 8.79745L20.2878 2.27001C20.1732 2.15533 20.0822 2.01918 20.0202 1.86934C19.9581 1.71951 19.9262 1.55891 19.9262 1.39673C19.9262 1.23454 19.9581 1.07394 20.0202 0.924106C20.0822 0.774266 20.1732 0.63812 20.2878 0.523438C20.4025 0.408757 20.5386 0.317786 20.6884 0.255721C20.8382 0.193656 20.9987 0.161713 21.1609 0.161713C21.323 0.161713 21.4836 0.193656 21.6334 0.255721C21.7832 0.317786 21.9193 0.408757 22.0339 0.523438L29.4326 7.92417C29.5475 8.03874 29.6386 8.17486 29.7008 8.32471C29.7629 8.47456 29.7949 8.63521 29.7949 8.79745C29.7949 8.95969 29.7629 9.12034 29.7008 9.27019C29.6386 9.42005 29.5475 9.55616 29.4326 9.67074L22.0339 17.0715C21.9194 17.1863 21.7833 17.2775 21.6335 17.3396C21.4837 17.4018 21.3231 17.4338 21.1609 17.4338C20.9987 17.4338 20.8381 17.4018 20.6882 17.3397C20.5384 17.2775 20.4024 17.1863 20.2878 17.0715Z" fill="#494949"/>
<path fill-rule="evenodd" clip-rule="evenodd" d="M28.5596 8.79732C28.5596 9.12445 28.4297 9.43818 28.1984 9.66949C27.9671 9.90081 27.6535 10.0308 27.3265 10.0308L1.43097 10.0308C1.10392 10.0308 0.790272 9.90081 0.559017 9.6695C0.327763 9.43818 0.197847 9.12445 0.197847 8.79732C0.197847 8.47019 0.327762 8.15646 0.559017 7.92514C0.790272 7.69383 1.10392 7.56388 1.43097 7.56388L27.3265 7.56388C27.6535 7.56388 27.9671 7.69383 28.1984 7.92514C28.4297 8.15646 28.5596 8.47019 28.5596 8.79732Z" fill="#494949"/>
</svg>
