<svg width="13" height="12" viewBox="0 0 13 12" fill="none" xmlns="http://www.w3.org/2000/svg">
<path d="M2.97791 11.2941H2.27203L2.69556 10.7294C2.97791 10.3412 3.15438 9.84706 3.26027 9.24706C1.49556 8.43529 0.507324 6.91765 0.507324 4.94118C0.507324 1.90588 2.80144 0 6.50732 0C10.2132 0 12.5073 1.90588 12.5073 4.94118C12.5073 8.04706 10.2485 9.88235 6.50732 9.88235H6.26027C5.69556 10.5529 4.70732 11.2941 2.97791 11.2941ZM6.50732 0.705882C3.18968 0.705882 1.21321 2.29412 1.21321 4.94118C1.21321 7.2 2.58968 8.25882 3.75438 8.71765L4.00144 8.82353L3.96615 9.10588C3.89556 9.67059 3.78968 10.1647 3.57791 10.5882C4.74262 10.4471 5.41321 9.84706 5.80144 9.35294L5.90732 9.21176H6.50732C11.272 9.21176 11.8014 6.24706 11.8014 4.97647C11.8014 2.29412 9.82497 0.705882 6.50732 0.705882Z" fill="#828282"/>
</svg>
