<svg width="20" height="20" viewBox="0 0 20 20" fill="none" xmlns="http://www.w3.org/2000/svg">
<g clip-path="url(#clip0)">
<path d="M1.25 11.25V16.25C1.25 16.692 1.42559 17.1159 1.73816 17.4285C2.05072 17.7411 2.47464 17.9167 2.91667 17.9167H17.9167C18.3587 17.9167 18.7826 17.7411 19.0952 17.4285C19.4077 17.1159 19.5833 16.692 19.5833 16.25V11.25" stroke="#777CEA" stroke-miterlimit="10" stroke-linecap="square"/>
<path d="M19.5833 7.08317V4.58317C19.5833 4.14114 19.4077 3.71722 19.0952 3.40466C18.7826 3.0921 18.3587 2.9165 17.9167 2.9165H2.91667C2.47464 2.9165 2.05072 3.0921 1.73816 3.40466C1.42559 3.71722 1.25 4.14114 1.25 4.58317V7.08317L10.4167 12.0832L19.5833 7.08317Z" stroke="#777CEA" stroke-miterlimit="10" stroke-linecap="square"/>
</g>
<defs>
<clipPath id="clip0">
<rect width="20" height="20" fill="white"/>
</clipPath>
</defs>
</svg>
