<svg width="18" height="18" viewBox="0 0 18 18" fill="none" xmlns="http://www.w3.org/2000/svg">
<path d="M9 6C7.3425 6 6 7.3425 6 9C6 10.6575 7.3425 12 9 12C10.6575 12 12 10.6575 12 9C12 7.3425 10.6575 6 9 6ZM15.705 8.25C15.5351 6.72909 14.8531 5.31115 13.771 4.22902C12.6888 3.14689 11.2709 2.46488 9.75 2.295V0.75H8.25V2.295C6.72909 2.46488 5.31115 3.14689 4.22902 4.22902C3.14689 5.31115 2.46488 6.72909 2.295 8.25H0.75V9.75H2.295C2.46488 11.2709 3.14689 12.6888 4.22902 13.771C5.31115 14.8531 6.72909 15.5351 8.25 15.705V17.25H9.75V15.705C11.2709 15.5351 12.6888 14.8531 13.771 13.771C14.8531 12.6888 15.5351 11.2709 15.705 9.75H17.25V8.25H15.705ZM9 14.25C6.0975 14.25 3.75 11.9025 3.75 9C3.75 6.0975 6.0975 3.75 9 3.75C11.9025 3.75 14.25 6.0975 14.25 9C14.25 11.9025 11.9025 14.25 9 14.25Z" fill="#53B2E8"/>
</svg>
