<svg width="265" height="212" viewBox="0 0 265 212" fill="none" xmlns="http://www.w3.org/2000/svg">
<circle cx="174" cy="59" r="59" fill="#53B2E8"/>
<circle cx="88.5" cy="163.5" r="48.5" fill="#777CEA"/>
<circle cx="235" cy="148" r="30" fill="#FFC658"/>
<circle cx="70" cy="72" r="30" fill="#FA627D"/>
<circle cx="171" cy="159" r="19" fill="#777CEA"/>
<circle cx="19" cy="118" r="19" fill="#FFC658"/>
<path d="M149.861 68H146.827V52.042H141.368V49.4395H155.32V52.042H149.861V68ZM166.905 68L166.308 66.0449H166.206C165.529 66.8997 164.848 67.4837 164.162 67.7969C163.477 68.1016 162.597 68.2539 161.522 68.2539C160.142 68.2539 159.063 67.8815 158.284 67.1367C157.514 66.3919 157.129 65.3382 157.129 63.9756C157.129 62.5283 157.667 61.4365 158.741 60.7002C159.816 59.9639 161.454 59.5618 163.655 59.4941L166.079 59.418V58.6689C166.079 57.7718 165.868 57.1032 165.445 56.6631C165.03 56.2145 164.382 55.9902 163.502 55.9902C162.783 55.9902 162.093 56.096 161.433 56.3076C160.773 56.5192 160.138 56.7689 159.529 57.0566L158.564 54.9238C159.325 54.526 160.159 54.2256 161.065 54.0225C161.97 53.8109 162.825 53.7051 163.629 53.7051C165.415 53.7051 166.761 54.0944 167.666 54.873C168.58 55.6517 169.037 56.8747 169.037 58.542V68H166.905ZM162.461 65.9688C163.545 65.9688 164.412 65.6683 165.064 65.0674C165.724 64.458 166.054 63.6074 166.054 62.5156V61.2969L164.251 61.373C162.846 61.4238 161.822 61.6608 161.179 62.084C160.544 62.4987 160.227 63.1377 160.227 64.001C160.227 64.6273 160.413 65.1139 160.785 65.4609C161.158 65.7995 161.716 65.9688 162.461 65.9688ZM185.319 53.959V55.5967L182.919 56.041C183.139 56.3372 183.321 56.7012 183.465 57.1328C183.609 57.5645 183.681 58.0215 183.681 58.5039C183.681 59.9512 183.182 61.0895 182.183 61.9189C181.184 62.7484 179.809 63.1631 178.057 63.1631C177.609 63.1631 177.202 63.1292 176.838 63.0615C176.195 63.4593 175.874 63.9248 175.874 64.458C175.874 64.7796 176.022 65.0208 176.318 65.1816C176.623 65.3424 177.177 65.4229 177.981 65.4229H180.431C181.98 65.4229 183.156 65.7529 183.96 66.4131C184.764 67.0732 185.166 68.0254 185.166 69.2695C185.166 70.8607 184.511 72.0879 183.199 72.9512C181.887 73.8145 179.991 74.2461 177.511 74.2461C175.598 74.2461 174.138 73.9076 173.131 73.2305C172.124 72.5534 171.621 71.5885 171.621 70.3359C171.621 69.4727 171.891 68.7448 172.433 68.1523C172.983 67.5684 173.749 67.1621 174.731 66.9336C174.333 66.7643 174.003 66.4935 173.741 66.1211C173.487 65.7402 173.36 65.3424 173.36 64.9277C173.36 64.403 173.508 63.9587 173.804 63.5947C174.1 63.2308 174.541 62.8711 175.124 62.5156C174.397 62.2025 173.804 61.6947 173.347 60.9922C172.899 60.2812 172.674 59.4518 172.674 58.5039C172.674 56.9805 173.152 55.7998 174.109 54.9619C175.074 54.124 176.445 53.7051 178.222 53.7051C178.62 53.7051 179.035 53.7347 179.466 53.7939C179.906 53.8447 180.236 53.8997 180.457 53.959H185.319ZM174.287 70.1836C174.287 70.8268 174.574 71.3219 175.15 71.6689C175.734 72.016 176.551 72.1895 177.6 72.1895C179.225 72.1895 180.435 71.9567 181.231 71.4912C182.027 71.0257 182.424 70.4079 182.424 69.6377C182.424 69.0283 182.204 68.5924 181.764 68.3301C181.333 68.0762 180.524 67.9492 179.339 67.9492H177.08C176.225 67.9492 175.543 68.1481 175.036 68.5459C174.536 68.9521 174.287 69.498 174.287 70.1836ZM175.569 58.5039C175.569 59.3841 175.793 60.0612 176.242 60.5352C176.699 61.0091 177.35 61.2461 178.197 61.2461C179.923 61.2461 180.787 60.3236 180.787 58.4785C180.787 57.5645 180.571 56.862 180.139 56.3711C179.716 55.8717 179.069 55.6221 178.197 55.6221C177.333 55.6221 176.678 55.8675 176.229 56.3584C175.789 56.8493 175.569 57.5645 175.569 58.5039ZM202.978 68H199.994V56.0156C199.994 54.5853 200.028 53.4512 200.096 52.6133C199.901 52.8164 199.66 53.0407 199.372 53.2861C199.093 53.5316 198.145 54.3102 196.528 55.6221L195.03 53.7305L200.489 49.4395H202.978V68Z" fill="#F9FAFA"/>
<path d="M74.1123 169H72.3618V159.793H69.2124V158.292H77.2617V159.793H74.1123V169ZM83.9449 169L83.6007 167.872H83.5421C83.1515 168.365 82.7584 168.702 82.3629 168.883C81.9674 169.059 81.4596 169.146 80.8395 169.146C80.0436 169.146 79.421 168.932 78.9718 168.502C78.5274 168.072 78.3053 167.464 78.3053 166.678C78.3053 165.843 78.6153 165.213 79.2354 164.789C79.8556 164.364 80.8004 164.132 82.0699 164.093L83.4688 164.049V163.617C83.4688 163.099 83.3468 162.713 83.1026 162.459C82.8634 162.201 82.4898 162.071 81.982 162.071C81.567 162.071 81.169 162.132 80.7882 162.254C80.4073 162.376 80.0411 162.521 79.6896 162.687L79.1329 161.456C79.5724 161.227 80.0533 161.053 80.5758 160.936C81.0982 160.814 81.5914 160.753 82.0553 160.753C83.0855 160.753 83.8619 160.978 84.3844 161.427C84.9117 161.876 85.1754 162.582 85.1754 163.543V169H83.9449ZM81.3814 167.828C82.0064 167.828 82.5069 167.655 82.8829 167.308C83.2638 166.957 83.4542 166.466 83.4542 165.836V165.133L82.4142 165.177C81.6036 165.206 81.0128 165.343 80.6417 165.587C80.2755 165.826 80.0924 166.195 80.0924 166.693C80.0924 167.054 80.1998 167.335 80.4146 167.535C80.6295 167.73 80.9518 167.828 81.3814 167.828ZM94.5686 160.899V161.844L93.1843 162.101C93.3112 162.271 93.4162 162.481 93.4992 162.73C93.5822 162.979 93.6237 163.243 93.6237 163.521C93.6237 164.356 93.3356 165.013 92.7595 165.492C92.1833 165.97 91.3898 166.209 90.3791 166.209C90.1203 166.209 89.8859 166.19 89.676 166.151C89.3049 166.38 89.1193 166.649 89.1193 166.957C89.1193 167.142 89.2048 167.281 89.3757 167.374C89.5515 167.467 89.8713 167.513 90.3352 167.513H91.7487C92.6423 167.513 93.321 167.704 93.7849 168.084C94.2487 168.465 94.4807 169.015 94.4807 169.732C94.4807 170.65 94.1022 171.358 93.3454 171.856C92.5886 172.354 91.4948 172.604 90.0642 172.604C88.9606 172.604 88.1184 172.408 87.5373 172.018C86.9562 171.627 86.6657 171.07 86.6657 170.348C86.6657 169.85 86.822 169.43 87.1345 169.088C87.4519 168.751 87.8937 168.517 88.4602 168.385C88.2307 168.287 88.0402 168.131 87.8889 167.916C87.7424 167.696 87.6691 167.467 87.6691 167.228C87.6691 166.925 87.7546 166.668 87.9255 166.458C88.0964 166.249 88.3503 166.041 88.6872 165.836C88.2673 165.655 87.9255 165.362 87.6618 164.957C87.403 164.547 87.2736 164.068 87.2736 163.521C87.2736 162.643 87.5495 161.961 88.1013 161.478C88.6579 160.995 89.4489 160.753 90.4743 160.753C90.7038 160.753 90.9431 160.77 91.1921 160.804C91.446 160.833 91.6364 160.865 91.7634 160.899H94.5686ZM88.2038 170.26C88.2038 170.631 88.3698 170.917 88.7019 171.117C89.0388 171.317 89.51 171.417 90.1154 171.417C91.0529 171.417 91.7512 171.283 92.2102 171.014C92.6691 170.746 92.8986 170.389 92.8986 169.945C92.8986 169.593 92.7717 169.342 92.5178 169.19C92.2687 169.044 91.8024 168.971 91.1188 168.971H89.8151C89.322 168.971 88.9289 169.085 88.6359 169.315C88.3479 169.549 88.2038 169.864 88.2038 170.26ZM88.9436 163.521C88.9436 164.029 89.0729 164.42 89.3317 164.693C89.5954 164.967 89.9714 165.104 90.4597 165.104C91.4558 165.104 91.9538 164.571 91.9538 163.507C91.9538 162.979 91.8293 162.574 91.5803 162.291C91.3361 162.003 90.9626 161.859 90.4597 161.859C89.9616 161.859 89.5832 162 89.3244 162.284C89.0705 162.567 88.9436 162.979 88.9436 163.521ZM106.961 169H99.7025V167.696L102.464 164.92C103.279 164.085 103.819 163.495 104.082 163.148C104.351 162.796 104.546 162.467 104.668 162.159C104.79 161.852 104.851 161.522 104.851 161.17C104.851 160.687 104.705 160.306 104.412 160.028C104.124 159.75 103.724 159.61 103.211 159.61C102.801 159.61 102.403 159.686 102.017 159.837C101.636 159.989 101.194 160.262 100.691 160.658L99.7611 159.522C100.357 159.02 100.935 158.663 101.497 158.453C102.058 158.243 102.657 158.138 103.291 158.138C104.288 158.138 105.086 158.399 105.686 158.922C106.287 159.439 106.587 160.138 106.587 161.017C106.587 161.5 106.499 161.959 106.324 162.394C106.153 162.828 105.887 163.277 105.525 163.741C105.169 164.2 104.573 164.823 103.738 165.609L101.878 167.411V167.484H106.961V169Z" fill="#F9FAFA"/>
<path d="M221.112 153H219.362V143.793H216.212V142.292H224.262V143.793H221.112V153ZM230.945 153L230.601 151.872H230.542C230.151 152.365 229.758 152.702 229.363 152.883C228.967 153.059 228.46 153.146 227.839 153.146C227.044 153.146 226.421 152.932 225.972 152.502C225.527 152.072 225.305 151.464 225.305 150.678C225.305 149.843 225.615 149.213 226.235 148.789C226.856 148.364 227.8 148.132 229.07 148.093L230.469 148.049V147.617C230.469 147.099 230.347 146.713 230.103 146.459C229.863 146.201 229.49 146.071 228.982 146.071C228.567 146.071 228.169 146.132 227.788 146.254C227.407 146.376 227.041 146.521 226.69 146.687L226.133 145.456C226.572 145.227 227.053 145.053 227.576 144.936C228.098 144.814 228.591 144.753 229.055 144.753C230.086 144.753 230.862 144.978 231.384 145.427C231.912 145.876 232.175 146.582 232.175 147.543V153H230.945ZM228.381 151.828C229.006 151.828 229.507 151.655 229.883 151.308C230.264 150.957 230.454 150.466 230.454 149.836V149.133L229.414 149.177C228.604 149.206 228.013 149.343 227.642 149.587C227.275 149.826 227.092 150.195 227.092 150.693C227.092 151.054 227.2 151.335 227.415 151.535C227.629 151.73 227.952 151.828 228.381 151.828ZM241.569 144.899V145.844L240.184 146.101C240.311 146.271 240.416 146.481 240.499 146.73C240.582 146.979 240.624 147.243 240.624 147.521C240.624 148.356 240.336 149.013 239.759 149.492C239.183 149.97 238.39 150.209 237.379 150.209C237.12 150.209 236.886 150.19 236.676 150.151C236.305 150.38 236.119 150.649 236.119 150.957C236.119 151.142 236.205 151.281 236.376 151.374C236.551 151.467 236.871 151.513 237.335 151.513H238.749C239.642 151.513 240.321 151.704 240.785 152.084C241.249 152.465 241.481 153.015 241.481 153.732C241.481 154.65 241.102 155.358 240.345 155.856C239.589 156.354 238.495 156.604 237.064 156.604C235.961 156.604 235.118 156.408 234.537 156.018C233.956 155.627 233.666 155.07 233.666 154.348C233.666 153.85 233.822 153.43 234.134 153.088C234.452 152.751 234.894 152.517 235.46 152.385C235.231 152.287 235.04 152.131 234.889 151.916C234.742 151.696 234.669 151.467 234.669 151.228C234.669 150.925 234.755 150.668 234.925 150.458C235.096 150.249 235.35 150.041 235.687 149.836C235.267 149.655 234.925 149.362 234.662 148.957C234.403 148.547 234.274 148.068 234.274 147.521C234.274 146.643 234.55 145.961 235.101 145.478C235.658 144.995 236.449 144.753 237.474 144.753C237.704 144.753 237.943 144.77 238.192 144.804C238.446 144.833 238.636 144.865 238.763 144.899H241.569ZM235.204 154.26C235.204 154.631 235.37 154.917 235.702 155.117C236.039 155.317 236.51 155.417 237.115 155.417C238.053 155.417 238.751 155.283 239.21 155.014C239.669 154.746 239.899 154.389 239.899 153.945C239.899 153.593 239.772 153.342 239.518 153.19C239.269 153.044 238.802 152.971 238.119 152.971H236.815C236.322 152.971 235.929 153.085 235.636 153.315C235.348 153.549 235.204 153.864 235.204 154.26ZM235.944 147.521C235.944 148.029 236.073 148.42 236.332 148.693C236.595 148.967 236.971 149.104 237.46 149.104C238.456 149.104 238.954 148.571 238.954 147.507C238.954 146.979 238.829 146.574 238.58 146.291C238.336 146.003 237.963 145.859 237.46 145.859C236.962 145.859 236.583 146 236.324 146.284C236.071 146.567 235.944 146.979 235.944 147.521ZM253.558 144.753C253.558 145.432 253.36 145.998 252.965 146.452C252.569 146.901 252.013 147.204 251.295 147.36V147.419C252.154 147.526 252.799 147.795 253.228 148.225C253.658 148.649 253.873 149.216 253.873 149.924C253.873 150.954 253.509 151.75 252.782 152.312C252.054 152.868 251.019 153.146 249.676 153.146C248.49 153.146 247.489 152.954 246.673 152.568V151.037C247.127 151.262 247.608 151.435 248.116 151.557C248.624 151.679 249.112 151.74 249.581 151.74C250.411 151.74 251.031 151.586 251.441 151.279C251.851 150.971 252.057 150.495 252.057 149.851C252.057 149.279 251.829 148.859 251.375 148.591C250.921 148.322 250.208 148.188 249.237 148.188H248.307V146.789H249.251C250.96 146.789 251.815 146.198 251.815 145.017C251.815 144.558 251.666 144.204 251.368 143.955C251.07 143.706 250.631 143.581 250.05 143.581C249.644 143.581 249.254 143.64 248.878 143.757C248.502 143.869 248.058 144.091 247.545 144.423L246.703 143.222C247.684 142.5 248.824 142.138 250.123 142.138C251.202 142.138 252.044 142.37 252.65 142.834C253.255 143.298 253.558 143.938 253.558 144.753Z" fill="#F9FAFA"/>
<path d="M55.1123 77H53.3618V67.7935H50.2124V66.292H58.2617V67.7935H55.1123V77ZM64.9449 77L64.6007 75.8721H64.5421C64.1515 76.3652 63.7584 76.7021 63.3629 76.8828C62.9674 77.0586 62.4596 77.1465 61.8395 77.1465C61.0436 77.1465 60.421 76.9316 59.9718 76.502C59.5274 76.0723 59.3053 75.4644 59.3053 74.6782C59.3053 73.8433 59.6153 73.2134 60.2354 72.7886C60.8556 72.3638 61.8004 72.1318 63.0699 72.0928L64.4688 72.0488V71.6167C64.4688 71.0991 64.3468 70.7134 64.1026 70.4595C63.8634 70.2007 63.4898 70.0713 62.982 70.0713C62.567 70.0713 62.169 70.1323 61.7882 70.2544C61.4073 70.3765 61.0411 70.5205 60.6896 70.6865L60.1329 69.4561C60.5724 69.2266 61.0533 69.0532 61.5758 68.936C62.0982 68.814 62.5914 68.7529 63.0553 68.7529C64.0855 68.7529 64.8619 68.9775 65.3844 69.4268C65.9117 69.876 66.1754 70.5815 66.1754 71.5435V77H64.9449ZM62.3814 75.8281C63.0064 75.8281 63.5069 75.6548 63.8829 75.3081C64.2638 74.9565 64.4542 74.4658 64.4542 73.8359V73.1328L63.4142 73.1768C62.6036 73.2061 62.0128 73.3428 61.6417 73.5869C61.2755 73.8262 61.0924 74.1948 61.0924 74.6929C61.0924 75.0542 61.1998 75.335 61.4146 75.5352C61.6295 75.7305 61.9518 75.8281 62.3814 75.8281ZM75.5686 68.8994V69.8442L74.1843 70.1006C74.3112 70.2715 74.4162 70.4814 74.4992 70.7305C74.5822 70.9795 74.6237 71.2432 74.6237 71.5215C74.6237 72.3564 74.3356 73.0132 73.7595 73.4917C73.1833 73.9702 72.3898 74.2095 71.3791 74.2095C71.1203 74.2095 70.8859 74.1899 70.676 74.1509C70.3049 74.3804 70.1193 74.6489 70.1193 74.9565C70.1193 75.1421 70.2048 75.2812 70.3757 75.374C70.5515 75.4668 70.8713 75.5132 71.3352 75.5132H72.7487C73.6423 75.5132 74.321 75.7036 74.7849 76.0845C75.2487 76.4653 75.4807 77.0146 75.4807 77.7324C75.4807 78.6504 75.1022 79.3584 74.3454 79.8564C73.5886 80.3545 72.4948 80.6035 71.0642 80.6035C69.9606 80.6035 69.1184 80.4082 68.5373 80.0176C67.9562 79.627 67.6657 79.0703 67.6657 78.3477C67.6657 77.8496 67.822 77.4297 68.1345 77.0879C68.4519 76.751 68.8937 76.5166 69.4602 76.3848C69.2307 76.2871 69.0402 76.1309 68.8889 75.916C68.7424 75.6963 68.6691 75.4668 68.6691 75.2275C68.6691 74.9248 68.7546 74.6685 68.9255 74.4585C69.0964 74.2485 69.3503 74.041 69.6872 73.8359C69.2673 73.6553 68.9255 73.3623 68.6618 72.957C68.403 72.5469 68.2736 72.0684 68.2736 71.5215C68.2736 70.6426 68.5495 69.9614 69.1013 69.478C69.6579 68.9946 70.4489 68.7529 71.4743 68.7529C71.7038 68.7529 71.9431 68.77 72.1921 68.8042C72.446 68.8335 72.6364 68.8652 72.7634 68.8994H75.5686ZM69.2038 78.2598C69.2038 78.6309 69.3698 78.9165 69.7019 79.1167C70.0388 79.3169 70.51 79.417 71.1154 79.417C72.0529 79.417 72.7512 79.2827 73.2102 79.0142C73.6691 78.7456 73.8986 78.3892 73.8986 77.9448C73.8986 77.5933 73.7717 77.3418 73.5178 77.1904C73.2687 77.0439 72.8024 76.9707 72.1188 76.9707H70.8151C70.322 76.9707 69.9289 77.0854 69.6359 77.3149C69.3479 77.5493 69.2038 77.8643 69.2038 78.2598ZM69.9436 71.5215C69.9436 72.0293 70.0729 72.4199 70.3317 72.6934C70.5954 72.9668 70.9714 73.1035 71.4597 73.1035C72.4558 73.1035 72.9538 72.5713 72.9538 71.5068C72.9538 70.9795 72.8293 70.5742 72.5803 70.291C72.3361 70.0029 71.9626 69.8589 71.4597 69.8589C70.9616 69.8589 70.5832 70.0005 70.3244 70.2837C70.0705 70.5669 69.9436 70.9795 69.9436 71.5215ZM87.558 68.7529C87.558 69.4316 87.3603 69.998 86.9647 70.4521C86.5692 70.9014 86.0126 71.2041 85.2948 71.3604V71.4189C86.1542 71.5264 86.7987 71.7949 87.2284 72.2246C87.6581 72.6494 87.8729 73.2158 87.8729 73.9238C87.8729 74.9541 87.5092 75.75 86.7816 76.3115C86.0541 76.8682 85.0189 77.1465 83.6762 77.1465C82.4896 77.1465 81.4887 76.9536 80.6732 76.5679V75.0371C81.1273 75.2617 81.6083 75.4351 82.1161 75.5571C82.6239 75.6792 83.1122 75.7402 83.581 75.7402C84.411 75.7402 85.0312 75.5864 85.4413 75.2788C85.8515 74.9712 86.0565 74.4951 86.0565 73.8506C86.0565 73.2793 85.8295 72.8594 85.3754 72.5908C84.9213 72.3223 84.2084 72.188 83.2367 72.188H82.3065V70.7891H83.2514C84.9604 70.7891 85.8148 70.1982 85.8148 69.0166C85.8148 68.5576 85.6659 68.2036 85.3681 67.9546C85.0702 67.7056 84.6308 67.5811 84.0497 67.5811C83.6444 67.5811 83.2538 67.6396 82.8778 67.7568C82.5019 67.8691 82.0575 68.0913 81.5448 68.4233L80.7025 67.2222C81.684 66.4995 82.8241 66.1382 84.1229 66.1382C85.2021 66.1382 86.0443 66.3701 86.6498 66.834C87.2553 67.2979 87.558 67.9375 87.558 68.7529Z" fill="#F9FAFA"/>
</svg>
