<svg width="226" height="226" viewBox="0 0 226 226" fill="none" xmlns="http://www.w3.org/2000/svg">
<path d="M225 113C225 99.3759 222.514 85.8664 217.665 73.1348L159.518 95.282C161.673 100.94 162.778 106.945 162.778 113H225Z" fill="#777CEA" stroke="white"/>
<path d="M217.665 73.135C210.677 54.789 198.99 38.602 183.775 26.1964C168.56 13.7907 150.351 5.60223 130.974 2.45169C111.597 -0.698842 91.7318 1.29923 73.3701 8.24565C55.0085 15.1921 38.7953 26.8428 26.3555 42.0301L74.4913 81.4578C80.0201 74.7079 87.226 69.5298 95.3867 66.4425C103.547 63.3552 112.376 62.4672 120.988 63.8674C129.6 65.2677 137.693 68.907 144.456 74.4206C151.218 79.9342 156.412 87.1285 159.518 95.2822L217.665 73.135Z" fill="#53B2E8" stroke="white"/>
<path d="M26.3555 42.0303C10.7793 61.0468 1.89175 84.6595 1.06361 109.227C0.23547 133.794 7.5127 157.952 21.773 177.974L72.4547 141.878C66.1168 132.979 62.8824 122.242 63.2505 111.323C63.6186 100.404 67.5686 89.9098 74.4914 81.458L26.3555 42.0303Z" fill="#777CEA" stroke="white"/>
<path d="M21.7734 177.974C34.1164 195.304 51.1404 208.76 70.8528 216.766C90.5651 224.773 112.15 226.999 133.082 223.185L121.926 161.971C112.623 163.666 103.029 162.677 94.2681 159.118C85.5071 155.56 77.9409 149.579 72.4551 141.877L21.7734 177.974Z" fill="#FA627D" stroke="white"/>
<path d="M133.081 223.185C158.877 218.484 182.206 204.88 199.003 184.746C215.8 164.611 225 139.221 225 113H162.777C162.777 124.654 158.689 135.938 151.223 144.887C143.758 153.836 133.39 159.882 121.925 161.971L133.081 223.185Z" fill="#FFC658" stroke="white"/>
<g filter="url(#filter0_d)">
<path fill-rule="evenodd" clip-rule="evenodd" d="M118 22C116.895 22 116 22.8954 116 24V48.5C116 49.6046 116.895 50.5 118 50.5H139.728L145.213 56.2L150.697 50.5H171C172.105 50.5 173 49.6046 173 48.5V24C173 22.8954 172.105 22 171 22H118Z" fill="white"/>
</g>
<path d="M124.251 29.5176C124.251 30.1885 124.032 30.7026 123.592 31.0601C123.153 31.4175 122.527 31.5962 121.716 31.5962H121.048V34H119.997V27.5752H121.848C122.65 27.5752 123.251 27.7393 123.649 28.0674C124.051 28.3955 124.251 28.8789 124.251 29.5176ZM121.048 30.7129H121.606C122.145 30.7129 122.54 30.6191 122.792 30.4316C123.044 30.2441 123.17 29.9512 123.17 29.5527C123.17 29.1836 123.058 28.9082 122.832 28.7266C122.606 28.5449 122.255 28.4541 121.777 28.4541H121.048V30.7129ZM126.675 30.5635H127.404C127.894 30.5635 128.248 30.4727 128.468 30.291C128.688 30.1094 128.797 29.8398 128.797 29.4824C128.797 29.1191 128.679 28.8584 128.442 28.7002C128.204 28.542 127.847 28.4629 127.369 28.4629H126.675V30.5635ZM126.675 31.4336V34H125.625V27.5752H127.44C128.269 27.5752 128.882 27.7305 129.281 28.041C129.679 28.3516 129.879 28.8203 129.879 29.4473C129.879 30.2471 129.462 30.8169 128.63 31.1567L130.445 34H129.25L127.712 31.4336H126.675ZM137.176 30.7788C137.176 31.8247 136.913 32.6377 136.389 33.2178C135.867 33.7979 135.128 34.0879 134.17 34.0879C133.2 34.0879 132.454 33.8008 131.933 33.2266C131.414 32.6494 131.155 31.8306 131.155 30.77C131.155 29.7095 131.416 28.895 131.937 28.3267C132.462 27.7583 133.209 27.4741 134.178 27.4741C135.134 27.4741 135.872 27.7627 136.393 28.3398C136.915 28.917 137.176 29.73 137.176 30.7788ZM132.271 30.7788C132.271 31.5698 132.431 32.1704 132.75 32.5806C133.07 32.9878 133.543 33.1914 134.17 33.1914C134.794 33.1914 135.264 32.9893 135.58 32.585C135.9 32.1807 136.059 31.5786 136.059 30.7788C136.059 29.9907 135.901 29.3931 135.585 28.9858C135.271 28.5786 134.802 28.375 134.178 28.375C133.549 28.375 133.073 28.5786 132.75 28.9858C132.431 29.3931 132.271 29.9907 132.271 30.7788ZM141.273 30.5151H143.638V33.7407C143.251 33.8667 142.879 33.9561 142.521 34.0088C142.167 34.0615 141.783 34.0879 141.37 34.0879C140.397 34.0879 139.647 33.8008 139.12 33.2266C138.593 32.6494 138.329 31.8364 138.329 30.7876C138.329 29.7534 138.626 28.9448 139.221 28.3618C139.816 27.7759 140.635 27.4829 141.678 27.4829C142.349 27.4829 142.984 27.6118 143.585 27.8696L143.216 28.7441C142.694 28.5039 142.173 28.3838 141.651 28.3838C140.966 28.3838 140.424 28.5991 140.025 29.0298C139.627 29.4604 139.428 30.0493 139.428 30.7964C139.428 31.5815 139.606 32.1792 139.964 32.5894C140.324 32.9966 140.841 33.2002 141.515 33.2002C141.855 33.2002 142.218 33.1577 142.605 33.0728V31.416H141.273V30.5151ZM146.325 30.5635H147.054C147.544 30.5635 147.898 30.4727 148.118 30.291C148.337 30.1094 148.447 29.8398 148.447 29.4824C148.447 29.1191 148.329 28.8584 148.091 28.7002C147.854 28.542 147.497 28.4629 147.019 28.4629H146.325V30.5635ZM146.325 31.4336V34H145.274V27.5752H147.089C147.919 27.5752 148.532 27.7305 148.931 28.041C149.329 28.3516 149.528 28.8203 149.528 29.4473C149.528 30.2471 149.112 30.8169 148.28 31.1567L150.095 34H148.9L147.362 31.4336H146.325ZM155.107 34L154.466 32.2158H152.009L151.381 34H150.273L152.677 27.5488H153.82L156.223 34H155.107ZM154.189 31.3105L153.587 29.5615C153.543 29.4443 153.481 29.2598 153.402 29.0078C153.326 28.7559 153.273 28.5713 153.244 28.4541C153.165 28.8145 153.049 29.2085 152.897 29.6362L152.317 31.3105H154.189ZM159.939 34L158.076 28.6343H158.04C158.09 29.4312 158.115 30.1782 158.115 30.8755V34H157.162V27.5752H158.642L160.427 32.686H160.453L162.29 27.5752H163.775V34H162.765V30.8228C162.765 30.5034 162.772 30.0874 162.787 29.5747C162.804 29.062 162.819 28.7515 162.83 28.6431H162.795L160.866 34H159.939ZM168.137 34H167.104V29.8516C167.104 29.3564 167.116 28.9639 167.139 28.6738C167.072 28.7441 166.988 28.8218 166.889 28.9067C166.792 28.9917 166.464 29.2612 165.904 29.7153L165.386 29.0605L167.275 27.5752H168.137V34Z" fill="#494949"/>
<path d="M144.064 46H139.709V45.2178L141.366 43.5522C141.855 43.0513 142.179 42.6968 142.337 42.4888C142.498 42.2778 142.615 42.0801 142.688 41.8955C142.762 41.7109 142.798 41.5132 142.798 41.3022C142.798 41.0122 142.71 40.7837 142.535 40.6167C142.362 40.4497 142.122 40.3662 141.814 40.3662C141.568 40.3662 141.329 40.4116 141.098 40.5024C140.869 40.5933 140.604 40.7573 140.302 40.9946L139.744 40.3135C140.101 40.0117 140.449 39.7979 140.786 39.6719C141.122 39.5459 141.481 39.4829 141.862 39.4829C142.46 39.4829 142.939 39.6396 143.299 39.9531C143.66 40.2637 143.84 40.6826 143.84 41.21C143.84 41.5 143.787 41.7754 143.682 42.0361C143.579 42.2969 143.419 42.5664 143.203 42.8447C142.989 43.1201 142.631 43.4937 142.13 43.9653L141.014 45.0464V45.0903H144.064V46ZM147.12 41.9878C147.768 41.9878 148.28 42.1592 148.658 42.502C149.036 42.8447 149.225 43.312 149.225 43.9038C149.225 44.5894 149.01 45.1255 148.579 45.5122C148.151 45.896 147.542 46.0879 146.751 46.0879C146.033 46.0879 145.469 45.9722 145.059 45.7407V44.8047C145.296 44.9395 145.569 45.0435 145.877 45.1167C146.184 45.1899 146.47 45.2266 146.733 45.2266C147.199 45.2266 147.554 45.1226 147.797 44.9146C148.04 44.7065 148.162 44.4019 148.162 44.0005C148.162 43.2329 147.672 42.8491 146.694 42.8491C146.556 42.8491 146.386 42.8638 146.184 42.8931C145.982 42.9194 145.805 42.9502 145.652 42.9854L145.191 42.7129L145.437 39.5752H148.777V40.4937H146.347L146.202 42.0845C146.304 42.0669 146.429 42.0464 146.575 42.0229C146.725 41.9995 146.906 41.9878 147.12 41.9878Z" fill="#494949"/>
<defs>
<filter id="filter0_d" x="110" y="18" width="69" height="46.2" filterUnits="userSpaceOnUse" color-interpolation-filters="sRGB">
<feFlood flood-opacity="0" result="BackgroundImageFix"/>
<feColorMatrix in="SourceAlpha" type="matrix" values="0 0 0 0 0 0 0 0 0 0 0 0 0 0 0 0 0 0 127 0"/>
<feOffset dy="2"/>
<feGaussianBlur stdDeviation="3"/>
<feColorMatrix type="matrix" values="0 0 0 0 0 0 0 0 0 0 0 0 0 0 0 0 0 0 0.09 0"/>
<feBlend mode="normal" in2="BackgroundImageFix" result="effect1_dropShadow"/>
<feBlend mode="normal" in="SourceGraphic" in2="effect1_dropShadow" result="shape"/>
</filter>
</defs>
</svg>
