<svg width="16" height="16" viewBox="0 0 16 16" fill="none" xmlns="http://www.w3.org/2000/svg">
<g clip-path="url(#clip0)">
<path d="M5.33333 16C5.1943 16.0004 5.05872 15.9567 4.946 15.8753L0.279333 12.542C0.193021 12.4804 0.122652 12.3991 0.0740706 12.3048C0.0254889 12.2105 9.58507e-05 12.106 0 12L0 0.666667C0 0.489856 0.0702379 0.320286 0.195262 0.195262C0.320286 0.0702379 0.489856 0 0.666667 0C0.925333 0 1.45667 0.416 1.544 0.478667L5.72133 3.46667C5.8078 3.52855 5.87821 3.61021 5.92668 3.70485C5.97516 3.79948 6.0003 3.90434 6 4.01067V15.3333C6.00013 15.4559 5.96647 15.5761 5.90272 15.6808C5.83898 15.7855 5.74761 15.8705 5.63867 15.9267C5.54401 15.9746 5.43944 15.9997 5.33333 16Z" fill="#53B2E8"/>
<path d="M7.33301 8.66699V12.667H9.33301C9.50982 12.667 9.67939 12.5968 9.80441 12.4717C9.92944 12.3467 9.99967 12.1771 9.99967 12.0003V8.66699H7.33301Z" fill="#53B2E8"/>
<path d="M7.33299 4.01067V4.66667H9.99966V0.666667C9.99966 0.489856 9.92942 0.320286 9.8044 0.195262C9.67937 0.0702379 9.5098 0 9.33299 0L3.16699 0L6.50033 2.384C6.75786 2.56998 6.96761 2.81439 7.11235 3.09716C7.2571 3.37993 7.33271 3.693 7.33299 4.01067Z" fill="#53B2E8"/>
<path d="M15.9997 6.66634L11.9997 3.33301V5.99967H7.33301V7.33301H11.9997V9.99967L15.9997 6.66634Z" fill="#53B2E8"/>
</g>
<defs>
<clipPath id="clip0">
<rect width="16" height="16" fill="white"/>
</clipPath>
</defs>
</svg>
