<svg width="23" height="19" viewBox="0 0 23 19" fill="none" xmlns="http://www.w3.org/2000/svg">
<path d="M18.5 18.4999H22.5V14.1769C22.4999 13.9771 22.4399 13.7819 22.3278 13.6165C22.2157 13.4511 22.0566 13.3231 21.871 13.2489L18.129 11.7489C17.9438 11.6749 17.7849 11.5472 17.6728 11.3822C17.5607 11.2172 17.5005 11.0224 17.5 10.8229V9.94492C18.1065 9.59687 18.6107 9.09523 18.9617 8.49049C19.3128 7.88574 19.4985 7.19919 19.5 6.49992V4.49992C19.5002 3.7977 19.3154 3.10781 18.9644 2.49961C18.6134 1.89141 18.1085 1.38633 17.5004 1.03515C16.8923 0.683967 16.2024 0.499063 15.5002 0.499023C14.798 0.498984 14.1081 0.68381 13.5 1.03492" stroke="#748494" stroke-miterlimit="10" stroke-linecap="square"/>
<path d="M13.871 14.249L10.129 12.749C9.94375 12.675 9.78488 12.5473 9.67279 12.3823C9.5607 12.2172 9.50053 12.0225 9.5 11.823V11.372C12.77 10.935 13.5 9.5 13.5 9.5C13.5 9.5 11.5 7.5 11.5 5.5C11.5 4.43913 11.0786 3.42172 10.3284 2.67157C9.57828 1.92143 8.56087 1.5 7.5 1.5C6.43913 1.5 5.42172 1.92143 4.67157 2.67157C3.92143 3.42172 3.5 4.43913 3.5 5.5C3.5 7.5 1.5 9.5 1.5 9.5C1.5 9.5 2.23 10.935 5.5 11.372V11.823C5.49987 12.0228 5.43989 12.218 5.32777 12.3834C5.21566 12.5488 5.05656 12.6769 4.871 12.751L1.129 14.251C0.943754 14.325 0.784876 14.4527 0.672788 14.6177C0.5607 14.7828 0.500525 14.9775 0.5 15.177V18.5H14.5V15.177C14.4999 14.9772 14.4399 14.782 14.3278 14.6166C14.2157 14.4512 14.0566 14.3231 13.871 14.249Z" stroke="#748494" stroke-miterlimit="10" stroke-linecap="square"/>
</svg>
