<svg width="20" height="20" viewBox="0 0 20 20" fill="none" xmlns="http://www.w3.org/2000/svg">
<path d="M16.875 7.5C16.875 13.125 10 19.375 10 19.375C10 19.375 3.125 13.125 3.125 7.5C3.125 5.67664 3.84933 3.92795 5.13864 2.63864C6.42795 1.34933 8.17664 0.625 10 0.625C11.8234 0.625 13.572 1.34933 14.8614 2.63864C16.1507 3.92795 16.875 5.67664 16.875 7.5V7.5Z" stroke="#777CEA" stroke-linecap="round" stroke-linejoin="round"/>
<path d="M10 10.625C11.7259 10.625 13.125 9.22589 13.125 7.5C13.125 5.77411 11.7259 4.375 10 4.375C8.27411 4.375 6.875 5.77411 6.875 7.5C6.875 9.22589 8.27411 10.625 10 10.625Z" stroke="#777CEA" stroke-linecap="round" stroke-linejoin="round"/>
</svg>
