<svg width="19" height="11" viewBox="0 0 19 11" fill="none" xmlns="http://www.w3.org/2000/svg">
<path d="M18.18 0.5425C18.0912 0.328694 17.9213 0.15879 17.7075 0.0699999C17.6023 0.0251641 17.4893 0.00138249 17.375 0H13C12.7679 0 12.5454 0.0921874 12.3813 0.256282C12.2172 0.420376 12.125 0.642935 12.125 0.875C12.125 1.10706 12.2172 1.32962 12.3813 1.49372C12.5454 1.65781 12.7679 1.75 13 1.75H15.2663L10.375 6.64125L7.49626 3.75375C7.41492 3.67174 7.31814 3.60664 7.21151 3.56222C7.10489 3.5178 6.99052 3.49493 6.87501 3.49493C6.7595 3.49493 6.64513 3.5178 6.5385 3.56222C6.43188 3.60664 6.3351 3.67174 6.25376 3.75375L1.00376 9.00375C0.921745 9.08509 0.85665 9.18187 0.812228 9.28849C0.767805 9.39512 0.744934 9.50949 0.744934 9.625C0.744934 9.74051 0.767805 9.85488 0.812228 9.9615C0.85665 10.0681 0.921745 10.1649 1.00376 10.2462C1.0851 10.3283 1.18188 10.3934 1.2885 10.4378C1.39513 10.4822 1.5095 10.5051 1.62501 10.5051C1.74052 10.5051 1.85489 10.4822 1.96151 10.4378C2.06814 10.3934 2.16492 10.3283 2.24626 10.2462L6.87501 5.60875L9.75376 8.49625C9.8351 8.57826 9.93188 8.64336 10.0385 8.68778C10.1451 8.7322 10.2595 8.75507 10.375 8.75507C10.4905 8.75507 10.6049 8.7322 10.7115 8.68778C10.8181 8.64336 10.9149 8.57826 10.9963 8.49625L16.5 2.98375V5.25C16.5 5.48206 16.5922 5.70462 16.7563 5.86872C16.9204 6.03281 17.1429 6.125 17.375 6.125C17.6071 6.125 17.8296 6.03281 17.9937 5.86872C18.1578 5.70462 18.25 5.48206 18.25 5.25V0.875C18.2486 0.760657 18.2248 0.647694 18.18 0.5425Z" fill="#53B2E8"/>
</svg>
