<svg width="30" height="30" viewBox="0 0 30 30" fill="none" xmlns="http://www.w3.org/2000/svg">
<path d="M6.50417 16.9382L2.38901 25.5796C2.31635 25.7334 2.33182 25.9143 2.43073 26.0526C2.5287 26.1909 2.69229 26.2659 2.86432 26.2467L6.7901 25.8107L8.97776 29.3104C9.06307 29.4482 9.21354 29.5312 9.37479 29.5312C9.38229 29.5312 9.38932 29.5312 9.39729 29.5307C9.56651 29.5228 9.71839 29.4234 9.79432 29.272L13.9109 21.0389C10.9085 20.7365 8.26854 19.1953 6.50417 16.9382Z" fill="#FA627D"/>
<path d="M23.4956 16.9382L27.6107 25.5801C27.6834 25.7339 27.6679 25.9148 27.569 26.0531C27.4711 26.1914 27.3075 26.2664 27.1354 26.2471L23.2096 25.8112L21.022 29.3109C20.9367 29.4482 20.7862 29.5312 20.625 29.5312C20.6175 29.5312 20.6104 29.5312 20.6025 29.5307C20.4332 29.5228 20.2814 29.4234 20.2054 29.272L16.0889 21.0389C19.0912 20.7365 21.7312 19.1953 23.4956 16.9382Z" fill="#FA627D"/>
<path d="M15 0.46875C9.57234 0.46875 5.15625 4.88438 5.15625 10.3125C5.15625 15.7406 9.57234 20.1562 15 20.1562C20.4277 20.1562 24.8438 15.7406 24.8438 10.3125C24.8438 4.88438 20.4277 0.46875 15 0.46875ZM20.0119 9.6225L17.8289 11.7188L18.3178 14.7056C18.3469 14.8819 18.2728 15.0591 18.128 15.1627C18.0464 15.2208 17.9513 15.2503 17.8552 15.2503C17.7792 15.2503 17.7033 15.232 17.6339 15.1945L14.9658 13.7658L12.2766 15.1537C12.1186 15.2358 11.9264 15.2203 11.783 15.1144C11.6391 15.0084 11.5683 14.8303 11.5997 14.6545L12.1341 11.6752L9.98297 9.54609C9.85594 9.42047 9.81141 9.23391 9.86812 9.06469C9.92438 8.89547 10.072 8.77266 10.2488 8.74875L13.2469 8.33672L14.6067 5.6325C14.6869 5.47266 14.842 5.36297 15.0291 5.37422C15.2077 5.37563 15.3698 5.47828 15.4477 5.63859L16.7663 8.36297L19.7583 8.82094C19.9345 8.84766 20.0808 8.97281 20.1342 9.14297C20.1881 9.31312 20.1408 9.49922 20.0119 9.6225Z" fill="#FFC658"/>
</svg>
