<svg width="30" height="30" viewBox="0 0 30 30" fill="none" xmlns="http://www.w3.org/2000/svg">
<g clip-path="url(#clip0)">
<path d="M26.25 4.68748H20.7825L13.6284 0.146234C13.3228 -0.0487661 12.9338 -0.0487661 12.6281 0.142484L5.35688 4.68748H0.9375C0.42 4.68748 0 5.10655 0 5.62498V24.375C0 24.8934 0.42 25.3125 0.9375 25.3125H17.8125V22.5H2.8125V7.49998H24.375V13.125H27.1875V5.62498C27.1875 5.10655 26.7675 4.68748 26.25 4.68748ZM13.1203 2.04655L17.2706 4.68748H8.89406L13.1203 2.04655Z" fill="#494949"/>
<path d="M16.875 11.25H6.5625V13.125H16.875V11.25Z" fill="#494949"/>
<path d="M13.125 16.875H6.5625V18.75H13.125V16.875Z" fill="#494949"/>
<path d="M24.375 22.5C27.4816 22.5 30 19.9816 30 16.875C30 13.7684 27.4816 11.25 24.375 11.25C21.2684 11.25 18.75 13.7684 18.75 16.875C18.75 19.9816 21.2684 22.5 24.375 22.5Z" fill="#FFC658"/>
<path d="M24.375 24.3749C22.6012 24.3749 20.9728 23.7533 19.6875 22.7202V29.6418L24.3703 27.2999L29.0625 29.6952V22.7202C27.7772 23.7533 26.1487 24.3749 24.375 24.3749Z" fill="#FA627D"/>
</g>
<defs>
<clipPath id="clip0">
<rect width="30" height="30" fill="white"/>
</clipPath>
</defs>
</svg>
