<svg width="19" height="20" viewBox="0 0 19 20" fill="none" xmlns="http://www.w3.org/2000/svg">
<path d="M5.85352 9.00003L13.2997 4.76926" stroke="white" stroke-width="1.5" stroke-miterlimit="10"/>
<path d="M5.85352 11.5385L13.2997 15.7693" stroke="white" stroke-width="1.5" stroke-miterlimit="10"/>
<path d="M3.6537 12.8077C5.05565 12.8077 6.19216 11.6712 6.19216 10.2693C6.19216 8.8673 5.05565 7.73079 3.6537 7.73079C2.25174 7.73079 1.11523 8.8673 1.11523 10.2693C1.11523 11.6712 2.25174 12.8077 3.6537 12.8077Z" stroke="white" stroke-width="1.5" stroke-miterlimit="10" stroke-linecap="square"/>
<path d="M15.4999 6.03849C16.9018 6.03849 18.0384 4.90198 18.0384 3.50002C18.0384 2.09807 16.9018 0.961563 15.4999 0.961563C14.0979 0.961563 12.9614 2.09807 12.9614 3.50002C12.9614 4.90198 14.0979 6.03849 15.4999 6.03849Z" stroke="white" stroke-width="1.5" stroke-miterlimit="10" stroke-linecap="square"/>
<path d="M15.4999 19.577C16.9018 19.577 18.0384 18.4404 18.0384 17.0385C18.0384 15.6365 16.9018 14.5 15.4999 14.5C14.0979 14.5 12.9614 15.6365 12.9614 17.0385C12.9614 18.4404 14.0979 19.577 15.4999 19.577Z" stroke="white" stroke-width="1.5" stroke-miterlimit="10" stroke-linecap="square"/>
</svg>
