<svg width="30" height="30" viewBox="0 0 30 30" fill="none" xmlns="http://www.w3.org/2000/svg">
<path d="M7.26938 23.0256L0.625 16.25L2.5 14.375L7.5 17.5L21.875 2.5L23.75 3.75L9.15625 22.9081C9.04756 23.0508 8.90945 23.1684 8.7513 23.2529C8.59315 23.3375 8.41866 23.387 8.23967 23.3981C8.06068 23.4093 7.88139 23.3818 7.71397 23.3175C7.54655 23.2532 7.39492 23.1537 7.26938 23.0256Z" fill="#FFC658"/>
<path d="M28.75 8.125H25.625C25.4592 8.125 25.3003 8.05915 25.1831 7.94194C25.0658 7.82473 25 7.66576 25 7.5C25 7.33424 25.0658 7.17527 25.1831 7.05806C25.3003 6.94085 25.4592 6.875 25.625 6.875H28.75C28.9158 6.875 29.0747 6.94085 29.1919 7.05806C29.3092 7.17527 29.375 7.33424 29.375 7.5C29.375 7.66576 29.3092 7.82473 29.1919 7.94194C29.0747 8.05915 28.9158 8.125 28.75 8.125Z" fill="#494949"/>
<path d="M28.75 13.75H21.25C21.0842 13.75 20.9253 13.6842 20.8081 13.5669C20.6908 13.4497 20.625 13.2908 20.625 13.125C20.625 12.9592 20.6908 12.8003 20.8081 12.6831C20.9253 12.5658 21.0842 12.5 21.25 12.5H28.75C28.9158 12.5 29.0747 12.5658 29.1919 12.6831C29.3092 12.8003 29.375 12.9592 29.375 13.125C29.375 13.2908 29.3092 13.4497 29.1919 13.5669C29.0747 13.6842 28.9158 13.75 28.75 13.75Z" fill="#494949"/>
<path d="M28.75 19.375H16.875C16.7092 19.375 16.5503 19.3091 16.4331 19.1919C16.3158 19.0747 16.25 18.9158 16.25 18.75C16.25 18.5842 16.3158 18.4253 16.4331 18.3081C16.5503 18.1908 16.7092 18.125 16.875 18.125H28.75C28.9158 18.125 29.0747 18.1908 29.1919 18.3081C29.3092 18.4253 29.375 18.5842 29.375 18.75C29.375 18.9158 29.3092 19.0747 29.1919 19.1919C29.0747 19.3091 28.9158 19.375 28.75 19.375Z" fill="#494949"/>
<path d="M28.75 25H12.5C12.3342 25 12.1753 24.9341 12.0581 24.8169C11.9408 24.6997 11.875 24.5408 11.875 24.375C11.875 24.2092 11.9408 24.0503 12.0581 23.9331C12.1753 23.8158 12.3342 23.75 12.5 23.75H28.75C28.9158 23.75 29.0747 23.8158 29.1919 23.9331C29.3092 24.0503 29.375 24.2092 29.375 24.375C29.375 24.5408 29.3092 24.6997 29.1919 24.8169C29.0747 24.9341 28.9158 25 28.75 25Z" fill="#494949"/>
</svg>
